<?xml version="1.0" encoding="UTF-8"?>
<svg id="Layer_1" data-name="Layer 1" xmlns="http://www.w3.org/2000/svg" viewBox="0 0 250 250">
  <defs>
    <style>
      .cls-1, .cls-2 {
        stroke-width: 0px;
      }

      .cls-2 {
        fill: #fff;
      }
    </style>
  </defs>
  <path class="cls-1" d="M124.98,210.93c-47.4-.02-85.87-38.47-85.92-85.87-.04-47.39,38.52-86.05,85.79-85.98,47.66.06,86.1,38.41,86.09,85.91,0,47.45-38.53,85.96-85.96,85.95ZM115.87,144.37c1.49-1.32,2.99-2.46,4.26-3.81,4.4-4.67,7.08-10.08,6.09-16.67-1.16-7.76-5.55-13.4-12.15-17.39-3.9-2.36-8.16-3.42-12.72-2.55-6.58,1.25-11.51,5.05-15.29,10.4-2.81,3.99-4.5,8.41-4.13,13.39.63,8.59,7.21,16.7,15.74,19.36,1.66.52,3.39.78,5.14,1.17.05.52.1,1.07.16,1.75.51,0,.96,0,1.41,0,7.21,0,14.41.07,21.62-.02,7-.09,11.89,3.14,14.47,9.49,2.39,5.88,4.94,11.73,6.36,17.97.16.7.41,1.08,1.27,1.08,8.81-.04,17.61-.02,26.42-.02,2.54,0,4.55-1.13,6.19-2.98,2.27-2.58,3.3-5.66,3.3-9.04.02-27.22.02-54.44,0-81.66,0-2.44-.59-4.77-1.81-6.89-1.91-3.32-4.63-5.15-8.64-5.14-20.21.06-40.41.04-60.62.02-2.84,0-5.1,1.09-6.89,3.22-2.21,2.63-3.11,5.74-3.15,9.11-.05,4.27-.03,8.54-.04,12.81,0,.78,0,1.57,0,2.27,1.95-.1,3.74-.37,5.5-.26,5.5.32,10.1,2.76,14.03,6.48,4.76,4.51,7.84,9.92,8.13,16.62.42,9.49-7.23,18.07-14.66,21.32ZM64.06,178.42h78.03c-.24-3.18-5.23-16.14-6.72-19.12-2.67-5.34-7.07-7.95-13.09-7.93-11.36.05-22.72,0-34.08.03-1.71,0-3.45,0-5.12.29-6.87,1.23-11.83,4.8-14,11.71-.85,2.73-1.81,5.42-2.72,8.13-.76,2.27-1.51,4.54-2.3,6.89Z"/>
  <path class="cls-2" d="M115.87,144.37c7.43-3.26,15.07-11.83,14.66-21.32-.29-6.69-3.37-12.11-8.13-16.62-3.93-3.72-8.53-6.16-14.03-6.48-1.76-.1-3.55.16-5.5.26,0-.7,0-1.49,0-2.27,0-4.27-.02-8.54.04-12.81.04-3.37.94-6.48,3.15-9.11,1.8-2.13,4.06-3.22,6.89-3.22,20.21.02,40.41.05,60.62-.02,4.01-.01,6.73,1.81,8.64,5.14,1.22,2.13,1.81,4.45,1.81,6.89.01,27.22.02,54.44,0,81.66,0,3.38-1.03,6.47-3.3,9.04-1.63,1.85-3.65,2.98-6.19,2.98-8.81,0-17.61-.01-26.42.02-.86,0-1.11-.37-1.27-1.08-1.42-6.24-3.98-12.09-6.36-17.97-2.57-6.34-7.46-9.57-14.47-9.49-7.2.09-14.41.02-21.62.02-.45,0-.89,0-1.41,0-.06-.68-.11-1.23-.16-1.75-1.74-.39-3.48-.66-5.14-1.17-8.53-2.65-15.12-10.76-15.74-19.36-.36-4.98,1.32-9.4,4.13-13.39,3.78-5.36,8.71-9.15,15.29-10.4,4.56-.87,8.82.19,12.72,2.55,6.6,3.99,10.99,9.64,12.15,17.39.99,6.59-1.7,12-6.09,16.67-1.27,1.35-2.77,2.49-4.26,3.81ZM139.73,107.88h34.84v-4.83h-34.84v4.83ZM139.74,147.71h34.86v-4.81h-34.86v4.81ZM139.73,120.64h34.85v-4.8h-34.85v4.8ZM174.63,89.73h-34.86v4.82h34.86v-4.82ZM139.69,133.4h34.9v-4.86c-.39,0-.7,0-1,0-10.89,0-21.79,0-32.68,0-.19,0-.42-.06-.56.02-.25.15-.62.38-.63.58-.06,1.4-.03,2.8-.03,4.26Z"/>
  <path class="cls-2" d="M64.06,178.42c.79-2.35,1.54-4.62,2.3-6.89.91-2.71,1.86-5.4,2.72-8.13,2.17-6.91,7.13-10.49,14-11.71,1.67-.3,3.41-.29,5.12-.29,11.36-.02,22.72.02,34.08-.03,6.02-.02,10.42,2.59,13.09,7.93,1.49,2.98,6.48,15.94,6.72,19.12h-78.03Z"/>
  <path class="cls-1" d="M139.73,107.88v-4.83h34.84v4.83h-34.84Z"/>
  <path class="cls-1" d="M139.74,147.71v-4.81h34.86v4.81h-34.86Z"/>
  <path class="cls-1" d="M139.73,120.64v-4.8h34.85v4.8h-34.85Z"/>
  <path class="cls-1" d="M174.63,89.73v4.82h-34.86v-4.82h34.86Z"/>
  <path class="cls-1" d="M139.69,133.4c0-1.46-.03-2.86.03-4.26,0-.21.38-.44.63-.58.14-.08.37-.02.56-.02,10.89,0,21.79,0,32.68,0,.3,0,.6,0,1,0v4.86h-34.9Z"/>
</svg>