<?xml version="1.0" encoding="UTF-8"?>
<svg id="Layer_1" data-name="Layer 1" xmlns="http://www.w3.org/2000/svg" viewBox="0 0 250 250">
  <defs>
    <style>
      .cls-1 {
        stroke-width: 0px;
      }
    </style>
  </defs>
  <path class="cls-1" d="M15.75,137.57c25.65-13.31,50.87-26.39,76.42-39.64-3.38-7.97-7.14-15.26-9.53-22.98-2.14-6.9-4.47-14.46-3.73-21.41,1.71-16.24,19.67-28.34,34.95-24.97,17.8,3.92,28.4,20.89,23.47,37.95-1.6,5.53-3.55,11.03-6.07,16.19l-2.73,5.19c31.92,23.56,68.89,50.86,100.71,74.56,1.56,1.16,3.04,2.42,5.02,3.99-2.79,1.53-5.03,2.78-7.29,3.99-30.77,16.4-97.23,51.56-97.23,51.56-35.79-26.38-112.58-83.2-113.97-84.43ZM118.96,144.53c24.05,11.87,71.82,34.37,71.82,34.37l27.22-13.77-47.57-35.33s-33.98,9.55-51.47,14.72ZM62.27,161.16c17.61,12.89,33.93,24.83,50.69,37.09,8.03-11.87,15.67-23.16,23.72-35.06-9.94-4.91-19.14-9.53-28.43-13.98-1.15-.55-2.82-.65-4.06-.29-13.56,3.88-27.07,7.88-41.92,12.24ZM125.72,96.41c-5.87,11.44-11.26,21.96-17.17,33.47-4.55-8.61-8.52-16.09-12.63-23.87-8.89,4.61-17.3,8.97-26.8,13.89,12.95,6.38,37.85,18.28,37.85,18.28,0,0,24.1-6.51,34.03-9.44,6.22-1.83,12.43-3.71,20.09-5.99-12.41-9.24-23.66-17.62-35.37-26.34ZM109.11,110.9c6.58-15.78,13.64-31.37,19.7-47.35,3.15-8.3-.36-16.48-7.69-22.09-6.98-5.35-15.54-5.93-22.95-1.55-8.06,4.76-12.53,12.95-10.49,21.6,4.18,17.72,13.51,33.27,21.44,49.38ZM180.8,184.98l-35.52-18.06-25.14,36.52,10.77,7.78,49.89-26.24ZM94.56,142.37c-12.21-6.01-34.28-17.36-34.28-17.36,0,0-19.04,9.33-28.18,14.05,7.08,5.15,22.19,14.69,22.19,14.69,0,0,26.32-7.25,40.27-11.38Z"/>
  <path class="cls-1" d="M108.82,45.93c-7.69-.1-14.06,6.19-14.08,13.92-.02,7.65,6.51,14.23,14.01,14.13,7.3-.1,13.61-6.41,13.76-13.77.16-7.69-6.07-14.19-13.7-14.28ZM108.63,65.34c-2.98,0-5.39-2.41-5.39-5.39s2.41-5.39,5.39-5.39,5.39,2.41,5.39,5.39-2.41,5.39-5.39,5.39Z"/>
</svg>