<?xml version="1.0" encoding="UTF-8"?>
<svg id="Layer_1" data-name="Layer 1" xmlns="http://www.w3.org/2000/svg" viewBox="0 0 250 250">
  <defs>
    <style>
      .cls-1 {
        stroke-width: 0px;
      }
    </style>
  </defs>
  <path class="cls-1" d="M125.5,137.05c10.28,1.73,15.48,5.61,15.48,5.61l-.19,13.66h-16.16v20.8c4.08,0,8.09.19,12.07-.05,3.72-.23,4.92,1.32,4.74,4.87-.21,4.21-.05,8.44-.05,13.35h16.41l.21,8.17c-1.47,1.07-2.71,2.21-6.38,3.18-4.63,1.22-9.47,2.19-14.23,2.23-27.47.21-54.95.12-82.42.07-2.58,0-5.18-.39-7.73-.81-17.38-2.89-24.44-12.71-21.87-30.32,3.22-22.05,18.63-37.37,41-40.77,14.07,20.56,49.11,20.73,59.12.02Z"/>
  <path class="cls-1" d="M79.91,48.25c1.06,5.63,1.76,10.39,2.95,15.02.04.14.09.28.15.41.97,2.13,4.2,1.86,4.97-.35.15-.42.22-.84.18-1.24-.48-4.78-1.43-9.54-2.51-14.23-.83-3.61.61-5.31,3.61-6.06.39-.1,1.06-.19,1.46-.23,15.89-1.59,16.91-.65,14.44,14.82-.29,1.83-1.06,3.68-.9,5.46.03.3.08.59.15.88.61,2.44,4.1,2.86,5.1.55.05-.12.1-.25.13-.38,1.21-4.58,1.84-9.32,2.83-14.66,10.64,6.06,16.8,14.49,18.79,25.99.48,2.78.78,6.65.78,6.65h3.34c2.46,0,4.46,2,4.46,4.46h0c0,2.46-2,4.46-4.46,4.46H57.39c-2.46,0-4.46-2-4.46-4.46h0c0-2.46,2-4.46,4.46-4.46h3.34s-.18-3.03.24-5.77c1.8-11.68,7.77-20.58,18.94-26.83Z"/>
  <path class="cls-1" d="M109.95,136.29c-7.71,4.56-17.32,5.06-25.41,1.22-4.82-2.29-8.57-5.69-11.84-9.91-6.39-8.26-9.88-17.76-11.17-28.06-.03-.24,0-.49.05-.74.42-1.83,3.22-1.85,3.6,0,0,.01,0,.02,0,.03,2.06,10.95,5.63,21.16,13.92,29.09,10.23,9.79,25.18,9.8,35.1-.25,4.31-4.36,5.57-5.57,8.91-13.37,2.36-5.51,2.57-11.1,4-15.68.09-.3.27-.58.49-.85,1.03-1.24,3.18-.7,3.3.9,0,.11,0,.22,0,.33-2.04,14.61-7.14,27.8-19.74,36.51-.4.28-.81.54-1.23.78Z"/>
  <path class="cls-1" d="M145.61,154.93v-12.32h28.37v12.32h-28.37Z"/>
  <path class="cls-1" d="M157.06,160.59v12.35h-28.26v-12.35h28.26Z"/>
  <path class="cls-1" d="M190.92,172.97h-28.25v-12.22h28.25v12.22Z"/>
  <path class="cls-1" d="M225.14,172.96h-28.19v-12.41h28.19v12.41Z"/>
  <path class="cls-1" d="M208.42,190.78h-28.19v-12.41h28.19v12.41Z"/>
  <path class="cls-1" d="M208.13,142.66v12.25h-28.26v-12.25h28.26Z"/>
  <path class="cls-1" d="M145.6,190.78v-11.94h28.37v11.94h-28.37Z"/>
  <path class="cls-1" d="M162.58,208.85v-11.85h28.36v11.85h-28.36Z"/>
</svg>