<?xml version="1.0" encoding="UTF-8"?>
<svg id="Layer_1" xmlns="http://www.w3.org/2000/svg" version="1.1" viewBox="0 0 250 250">
  <!-- Generator: Adobe Illustrator 29.5.0, SVG Export Plug-In . SVG Version: 2.1.0 Build 137)  -->
  <defs>
    <style>
      .st0 {
        fill: #6a7282;
      }
    </style>
  </defs>
  <path class="st0" d="M125.5,137.1c10.3,1.7,15.5,5.6,15.5,5.6l-.2,13.7h-16.2v20.8c4.1,0,8.1.2,12.1,0,3.7-.2,4.9,1.3,4.7,4.9-.2,4.2,0,8.4,0,13.4h16.4l.2,8.2c-1.5,1.1-2.7,2.2-6.4,3.2-4.6,1.2-9.5,2.2-14.2,2.2-27.5.2-54.9.1-82.4,0-2.6,0-5.2-.4-7.7-.8-17.4-2.9-24.4-12.7-21.9-30.3,3.2-22.1,18.6-37.4,41-40.8,14.1,20.6,49.1,20.7,59.1,0h0Z"/>
  <path class="st0" d="M79.9,48.2c1.1,5.6,1.8,10.4,2.9,15,0,.1,0,.3.2.4,1,2.1,4.2,1.9,5-.3.2-.4.2-.8.2-1.2-.5-4.8-1.4-9.5-2.5-14.2-.8-3.6.6-5.3,3.6-6.1.4,0,1.1-.2,1.5-.2,15.9-1.6,16.9-.7,14.4,14.8-.3,1.8-1.1,3.7-.9,5.5,0,.3,0,.6.2.9.6,2.4,4.1,2.9,5.1.5,0-.1,0-.2.1-.4,1.2-4.6,1.8-9.3,2.8-14.7,10.6,6.1,16.8,14.5,18.8,26,.5,2.8.8,6.7.8,6.7h3.3c2.5,0,4.5,2,4.5,4.5h0c0,2.5-2,4.5-4.5,4.5H57.4c-2.5,0-4.5-2-4.5-4.5h0c0-2.5,2-4.5,4.5-4.5h3.3s-.2-3,.2-5.8c1.8-11.7,7.8-20.6,18.9-26.8h0Z"/>
  <path class="st0" d="M109.9,136.3c-7.7,4.6-17.3,5.1-25.4,1.2-4.8-2.3-8.6-5.7-11.8-9.9-6.4-8.3-9.9-17.8-11.2-28.1,0-.2,0-.5,0-.7.4-1.8,3.2-1.8,3.6,0h0c2.1,11,5.6,21.2,13.9,29.1,10.2,9.8,25.2,9.8,35.1-.2,4.3-4.4,5.6-5.6,8.9-13.4,2.4-5.5,2.6-11.1,4-15.7,0-.3.3-.6.5-.8,1-1.2,3.2-.7,3.3.9v.3c-2,14.6-7.1,27.8-19.7,36.5-.4.3-.8.5-1.2.8h0Z"/>
  <path class="st0" d="M145.6,154.9v-12.3h28.4v12.3h-28.4Z"/>
  <path class="st0" d="M157.1,160.6v12.4h-28.3v-12.4h28.3Z"/>
  <path class="st0" d="M190.9,173h-28.2v-12.2h28.2v12.2Z"/>
  <path class="st0" d="M225.1,173h-28.2v-12.4h28.2v12.4Z"/>
  <path class="st0" d="M208.4,190.8h-28.2v-12.4h28.2v12.4Z"/>
  <path class="st0" d="M208.1,142.7v12.2h-28.3v-12.2h28.3Z"/>
  <path class="st0" d="M145.6,190.8v-11.9h28.4v11.9h-28.4Z"/>
  <path class="st0" d="M162.6,208.9v-11.9h28.4v11.9h-28.4Z"/>
</svg>