<?xml version="1.0" encoding="UTF-8"?>
<svg id="Layer_1" xmlns="http://www.w3.org/2000/svg" version="1.1" viewBox="0 0 250 250">
  <!-- Generator: Adobe Illustrator 29.5.0, SVG Export Plug-In . SVG Version: 2.1.0 Build 137)  -->
  <defs>
    <style>
      .st0 {
        fill: #6a7282;
      }
    </style>
  </defs>
  <path class="st0" d="M15.8,137.6c25.7-13.3,50.9-26.4,76.4-39.6-3.4-8-7.1-15.3-9.5-23-2.1-6.9-4.5-14.5-3.7-21.4,1.7-16.2,19.7-28.3,35-25,17.8,3.9,28.4,20.9,23.5,37.9-1.6,5.5-3.6,11-6.1,16.2l-2.7,5.2c31.9,23.6,68.9,50.9,100.7,74.6,1.6,1.2,3,2.4,5,4-2.8,1.5-5,2.8-7.3,4-30.8,16.4-97.2,51.6-97.2,51.6-35.8-26.4-112.6-83.2-114-84.4h0ZM119,144.5c24,11.9,71.8,34.4,71.8,34.4l27.2-13.8-47.6-35.3s-34,9.6-51.5,14.7h0ZM62.3,161.2c17.6,12.9,33.9,24.8,50.7,37.1,8-11.9,15.7-23.2,23.7-35.1-9.9-4.9-19.1-9.5-28.4-14-1.2-.6-2.8-.6-4.1-.3-13.6,3.9-27.1,7.9-41.9,12.2h0ZM125.7,96.4c-5.9,11.4-11.3,22-17.2,33.5-4.6-8.6-8.5-16.1-12.6-23.9-8.9,4.6-17.3,9-26.8,13.9,12.9,6.4,37.8,18.3,37.8,18.3,0,0,24.1-6.5,34-9.4,6.2-1.8,12.4-3.7,20.1-6-12.4-9.2-23.7-17.6-35.4-26.3ZM109.1,110.9c6.6-15.8,13.6-31.4,19.7-47.3,3.1-8.3-.4-16.5-7.7-22.1-7-5.3-15.5-5.9-22.9-1.5-8.1,4.8-12.5,13-10.5,21.6,4.2,17.7,13.5,33.3,21.4,49.4h0ZM180.8,185l-35.5-18.1-25.1,36.5,10.8,7.8,49.9-26.2ZM94.6,142.4c-12.2-6-34.3-17.4-34.3-17.4,0,0-19,9.3-28.2,14.1,7.1,5.1,22.2,14.7,22.2,14.7,0,0,26.3-7.2,40.3-11.4Z"/>
  <path class="st0" d="M108.8,45.9c-7.7,0-14.1,6.2-14.1,13.9,0,7.7,6.5,14.2,14,14.1,7.3,0,13.6-6.4,13.8-13.8.2-7.7-6.1-14.2-13.7-14.3h0ZM108.6,65.3c-3,0-5.4-2.4-5.4-5.4s2.4-5.4,5.4-5.4,5.4,2.4,5.4,5.4-2.4,5.4-5.4,5.4Z"/>
</svg>