<?xml version="1.0" encoding="UTF-8"?>
<svg id="Layer_1" data-name="Layer 1" xmlns="http://www.w3.org/2000/svg" viewBox="0 0 250 250">
  <defs>
    <style>
      .cls-1, .cls-2 {
        stroke-width: 0px;
      }

      .cls-2 {
        fill: #fff;
      }
    </style>
  </defs>
  <path class="cls-1" d="M126.71,122.58c5.51-1.15,10.94-2.14,16.29-3.44,5.37-1.3,10.56-3.17,15.29-6.32.27.19.59.39.89.62,5.77,4.4,5.81,9.4.05,13.78-.91.69-1.27,1.37-1.26,2.51.06,5.48.03,10.96.03,16.44v1.76c-2.59,0-5.04,0-7.5,0-4.9,0-7.24,1.65-8.94,6.27-1.55,4.23-3.13,8.44-4.65,12.68-.31.86-.72,1.22-1.67,1.16-1.16-.07-2.35-.1-3.48.12-3.05.59-5.08,2.45-6.15,5.38-1.63,4.46-3.3,8.9-4.88,13.37-.33.92-.74,1.26-1.74,1.23-1.39-.03-2.84-.03-4.18.31-2.61.67-4.35,2.43-5.29,4.96-1.09,2.95-2.14,5.92-3.29,8.85-.17.44-.84.97-1.28.97-14.31.06-28.46-1.17-42.25-5.26-4.52-1.34-8.89-3.05-12.77-5.81-6.29-4.48-6.4-9.68-.25-14.31.77-.58.99-1.17.99-2.06-.02-15.47-.02-30.94,0-46.41,0-.85-.16-1.46-.95-1.93-.66-.39-1.23-.95-1.78-1.49-3.79-3.7-3.74-7.72.15-11.34.71-.66,1.48-1.24,2.18-1.82,9.77,6,20.7,7.82,31.63,9.53-.2,14.45,11.53,23.71,23.05,23.4,10.35-.28,21.84-8.65,21.74-23.16Z"/>
  <path class="cls-1" d="M50.68,85.25c0-6.69-.02-13.38.02-20.08,0-1.07-.29-1.76-1.17-2.42-5.88-4.44-5.84-9.6.12-13.95,4.98-3.64,10.74-5.53,16.62-7.03,14.49-3.69,29.25-4.67,44.14-4.22,10.83.33,21.55,1.5,32.07,4.23,5.12,1.33,10.16,2.93,14.66,5.79,1.73,1.1,3.39,2.46,4.73,4.01,2.3,2.65,2.22,5.75.05,8.5-.74.94-1.6,1.87-2.59,2.52-1.14.75-1.36,1.65-1.36,2.91.04,13.19,0,26.38.07,39.57,0,1.53-.48,2.33-1.8,3.04-5.96,3.18-12.37,5.02-18.93,6.36-3.51.72-7.07,1.18-10.6,1.79-.93.16-1.34-.16-1.69-1.03-3.4-8.52-11.48-14.04-20.55-14.09-9.06-.05-17.22,5.39-20.73,13.84-.32.77-.49,1.46-1.66,1.3-9.24-1.27-18.36-2.99-26.93-6.85-4.49-2.02-4.47-2.05-4.47-6.88,0-5.77,0-11.54,0-17.31ZM108.07,70.26c3.52-.21,8.9-.42,14.26-.89,7.87-.69,15.67-1.92,23.23-4.33,3.56-1.14,7.06-2.46,9.98-4.89,3.27-2.71,3.36-5.9.03-8.53-1.76-1.39-3.81-2.5-5.87-3.42-5.03-2.22-10.37-3.46-15.78-4.35-20.21-3.3-40.43-3.29-60.61.28-5.73,1.01-11.39,2.38-16.57,5.15-1.72.92-3.37,2.13-4.74,3.52-1.79,1.82-1.8,4.16-.04,6.01,1.27,1.35,2.79,2.66,4.46,3.39,3.53,1.54,7.16,2.98,10.88,3.96,12.75,3.33,25.81,4.03,40.77,4.09Z"/>
  <path class="cls-1" d="M157.28,212.55c-4.17,0-8.34,0-12.51,0-2.37,0-3.16-1.12-2.35-3.35,1.6-4.41,3.23-8.81,4.81-13.23.49-1.37,1.32-2.01,2.81-1.99,4.85.05,9.7.04,14.54,0,1.4,0,2.23.52,2.72,1.88,1.57,4.42,3.23,8.81,4.84,13.22.87,2.39.09,3.46-2.5,3.47-4.12,0-8.24,0-12.36,0ZM146.21,206.72c.13.03.25.06.38.09,1.04-2.75,2.14-5.49,3.09-8.27.41-1.22,1.05-1.69,2.32-1.67,1.32.03,2.64-.14,3.97-.22-1.53-.4-3.02-.5-4.52-.56-1-.04-1.87.29-2.21,1.29-1.04,3.1-2.02,6.22-3.02,9.34Z"/>
  <path class="cls-1" d="M124.73,212.55c-4.12,0-8.23,0-12.35,0-2.36,0-3.15-1.14-2.34-3.35,1.59-4.36,3.24-8.7,4.77-13.08.53-1.5,1.36-2.17,2.98-2.14,4.75.06,9.49.06,14.24,0,1.48-.02,2.33.58,2.82,1.96,1.59,4.46,3.25,8.9,4.86,13.35.76,2.1-.06,3.25-2.34,3.26-4.21.01-8.43,0-12.64,0ZM123.64,196.67c0-.11-.02-.22-.03-.33-1.5-.09-3-.29-4.49-.21-.72.04-1.86.45-2.06.97-1.2,3.14-2.17,6.36-3.22,9.56.13.04.26.09.39.13,1.05-2.79,2.15-5.57,3.13-8.38.38-1.1.98-1.53,2.12-1.53,1.39.01,2.77-.13,4.16-.2Z"/>
  <path class="cls-1" d="M157.19,172.37c-4.16,0-8.33.01-12.49,0-2.27,0-3.07-1.15-2.3-3.28,1.63-4.5,3.32-8.98,4.93-13.48.46-1.29,1.29-1.8,2.63-1.79,4.84.03,9.68.04,14.53,0,1.42-.01,2.24.56,2.71,1.89,1.6,4.46,3.26,8.9,4.87,13.35.8,2.2,0,3.32-2.38,3.33-4.16.01-8.33,0-12.49,0h0ZM156.22,156.48c-.02-.1-.05-.2-.07-.3-1.4-.09-2.79-.21-4.19-.27-1.87-.08-2.43.29-3,2.02-.71,2.15-1.39,4.32-2.06,6.48-.22.72-.4,1.45-.59,2.18,1.34-2.71,2.45-5.49,3.41-8.31.4-1.17,1.03-1.59,2.22-1.58,1.43.01,2.86-.14,4.29-.22Z"/>
  <path class="cls-1" d="M189.64,212.55c-3.97,0-7.94,0-11.92,0-3.01,0-3.69-.94-2.68-3.73,1.56-4.27,3.16-8.52,4.66-12.81.51-1.46,1.37-2.06,2.9-2.04,4.75.05,9.49.05,14.24,0,1.54-.02,2.39.62,2.9,2.06,1.54,4.38,3.18,8.72,4.76,13.08.84,2.32.07,3.43-2.38,3.44-4.17,0-8.33,0-12.5,0ZM188.52,196.68c0-.11,0-.23-.01-.34-.71-.04-1.41-.07-2.12-.11-4.24-.25-4.25-.26-5.55,3.76-.7,2.16-1.35,4.33-2.02,6.5.12.04.23.08.35.11,1.03-2.75,2.11-5.49,3.08-8.26.36-1.03.92-1.47,2.01-1.47,1.42,0,2.85-.12,4.27-.2Z"/>
  <path class="cls-1" d="M173.41,192.46c-4.12,0-8.23,0-12.35,0-2.49,0-3.3-1.11-2.47-3.38,1.61-4.4,3.26-8.79,4.83-13.21.49-1.39,1.32-1.99,2.8-1.98,4.79.04,9.59.04,14.38,0,1.48-.01,2.3.6,2.79,1.99,1.57,4.42,3.22,8.81,4.82,13.21.82,2.25.04,3.36-2.32,3.37-4.16.01-8.33,0-12.49,0ZM162.47,186.38c.13.04.27.08.4.12,1.01-2.7,2.08-5.39,3.01-8.12.4-1.16,1.03-1.6,2.22-1.59,1.37.01,2.75-.14,4.12-.23-1.52-.39-3.03-.63-4.5-.51-.78.06-1.96.58-2.19,1.19-1.16,2.99-2.06,6.09-3.06,9.14Z"/>
  <path class="cls-1" d="M141.03,192.46c-4.12,0-8.23,0-12.35,0-2.49,0-3.3-1.1-2.46-3.39,1.63-4.45,3.29-8.88,4.89-13.34.46-1.28,1.27-1.83,2.61-1.82,4.89.03,9.78.03,14.67,0,1.35,0,2.13.58,2.59,1.85,1.61,4.51,3.3,8.99,4.93,13.48.75,2.06-.05,3.21-2.24,3.22-4.21.02-8.43,0-12.64,0ZM129.98,186.85c.11.05.22.11.32.16,1.08-2.9,2.21-5.78,3.23-8.7.38-1.09.98-1.54,2.12-1.53,1.43.01,2.86-.14,4.29-.22-1.59-.4-3.16-.52-4.74-.59-1.15-.04-1.95.5-2.31,1.62-.98,3.08-1.95,6.17-2.93,9.25Z"/>
  <path class="cls-1" d="M104.45,107.52c.41,1.27.65,2.63,1.26,3.79,1.6,3.08,3.29,6.13,5.09,9.11,1.61,2.66,3.29,5.26,3.59,8.47.39,4.14-1.07,7.47-4.61,9.66-3.62,2.24-7.42,2.2-10.99-.09-3.51-2.25-4.9-5.62-4.44-9.75.34-3.09,1.83-5.7,3.55-8.18,2.77-4.01,5.26-8.14,6.56-13.01ZM101.79,118.31c-.08-.04-.16-.07-.24-.11-1.27,2.05-2.63,4.05-3.8,6.16-1.83,3.29-1.7,6.68-.16,10.06.46,1,1.29,1.38,2.27.91.97-.47,1.32-1.4.66-2.31-2.54-3.52-2.01-7.08-.34-10.72.6-1.3,1.08-2.65,1.61-3.98Z"/>
  <path class="cls-2" d="M108.07,70.26c-14.97-.06-28.02-.76-40.77-4.09-3.72-.97-7.35-2.41-10.88-3.96-1.67-.73-3.19-2.05-4.46-3.39-1.61-1.7-1.58-4.37.07-6.04,1.36-1.38,3-2.58,4.71-3.49,5.18-2.76,10.85-4.13,16.57-5.15,20.18-3.57,40.4-3.58,60.61-.28,5.4.88,10.75,2.12,15.78,4.35,2.07.91,4.12,2.03,5.88,3.43,2.81,2.23,2.85,6.06.11,8.38-2.96,2.52-6.52,3.86-10.14,5.02-7.56,2.41-15.35,3.64-23.23,4.33-5.36.47-10.73.68-14.26.89ZM58.46,59.51c2.55,1.08,5.45,1.06,7.99-.02.26-.11.52-.23.77-.37,1.86-1.01,1.8-2.84.08-4.08-2.42-1.74-7.21-1.76-9.65-.04-1.78,1.25-1.84,3.13.08,4.17.23.13.47.24.72.34Z"/>
  <path class="cls-2" d="M146.21,206.72c1-3.11,1.98-6.23,3.02-9.34.34-1.01,1.21-1.34,2.21-1.29,1.5.06,3,.16,4.52.56-1.32.08-2.65.25-3.97.22-1.26-.03-1.9.45-2.32,1.67-.95,2.79-2.05,5.52-3.09,8.27-.13-.03-.25-.06-.38-.09Z"/>
  <path class="cls-2" d="M123.64,196.67c-1.39.07-2.77.22-4.16.2-1.14,0-1.74.43-2.12,1.53-.98,2.82-2.08,5.59-3.13,8.38-.13-.04-.26-.09-.39-.13,1.05-3.2,2.03-6.42,3.22-9.56.2-.53,1.33-.93,2.06-.97,1.49-.08,2.99.12,4.49.21,0,.11.02.22.03.33Z"/>
  <path class="cls-2" d="M156.22,156.48c-1.43.08-2.86.23-4.29.22-1.19-.01-1.82.41-2.22,1.58-.96,2.82-2.08,5.6-3.41,8.31.2-.73.37-1.46.59-2.18.68-2.16,1.35-4.33,2.06-6.48.57-1.73,1.13-2.1,3-2.02,1.4.06,2.8.18,4.19.27.02.1.05.2.07.3Z"/>
  <path class="cls-2" d="M188.52,196.68c-1.42.07-2.85.2-4.27.2-1.08,0-1.65.44-2.01,1.47-.97,2.77-2.04,5.51-3.08,8.26-.12-.04-.23-.08-.35-.11.67-2.17,1.32-4.34,2.02-6.5,1.3-4.02,1.32-4.02,5.55-3.76.7.04,1.41.07,2.12.11,0,.11,0,.23.01.34Z"/>
  <path class="cls-2" d="M162.47,186.38c.99-3.06,1.9-6.15,3.06-9.14.24-.61,1.41-1.12,2.19-1.19,1.48-.12,2.98.12,4.5.51-1.37.08-2.75.24-4.12.23-1.19,0-1.83.43-2.22,1.59-.93,2.73-2,5.42-3.01,8.12-.13-.04-.27-.08-.4-.12Z"/>
  <path class="cls-2" d="M129.98,186.85c.98-3.08,1.95-6.17,2.93-9.25.36-1.12,1.16-1.66,2.31-1.62,1.58.06,3.15.18,4.74.59-1.43.08-2.86.23-4.29.22-1.15,0-1.74.44-2.12,1.53-1.02,2.92-2.15,5.8-3.23,8.7-.11-.05-.22-.11-.32-.16Z"/>
  <path class="cls-2" d="M101.79,118.31c-.53,1.33-1.01,2.68-1.61,3.98-1.67,3.64-2.2,7.2.34,10.72.66.91.31,1.84-.66,2.31-.97.47-1.81.1-2.27-.91-1.54-3.37-1.67-6.77.16-10.06,1.17-2.11,2.52-4.11,3.8-6.16.08.04.16.07.24.11Z"/>
  <path class="cls-1" d="M66.45,59.49c-2.55,1.08-5.45,1.09-7.99.02-.25-.1-.49-.22-.72-.34-1.93-1.04-1.87-2.91-.08-4.17,2.44-1.72,7.23-1.69,9.65.04,1.72,1.23,1.78,3.06-.08,4.08-.25.14-.51.26-.77.37Z"/>
</svg>