<?xml version="1.0" encoding="UTF-8"?>
<svg id="Layer_1" xmlns="http://www.w3.org/2000/svg" version="1.1" viewBox="0 0 250 250">
  <!-- Generator: Adobe Illustrator 29.5.0, SVG Export Plug-In . SVG Version: 2.1.0 Build 137)  -->
  <defs>
    <style>
      .st0 {
        fill: #6a7282;
      }

      .st1 {
        fill: #fff;
      }
    </style>
  </defs>
  <path class="st0" d="M125,210.9c-47.4,0-85.9-38.5-85.9-85.9,0-47.4,38.5-86.1,85.8-86,47.7,0,86.1,38.4,86.1,85.9,0,47.4-38.5,86-86,85.9h0ZM115.9,144.4c1.5-1.3,3-2.5,4.3-3.8,4.4-4.7,7.1-10.1,6.1-16.7-1.2-7.8-5.6-13.4-12.2-17.4-3.9-2.4-8.2-3.4-12.7-2.6-6.6,1.2-11.5,5.1-15.3,10.4-2.8,4-4.5,8.4-4.1,13.4.6,8.6,7.2,16.7,15.7,19.4,1.7.5,3.4.8,5.1,1.2,0,.5,0,1.1.2,1.8h1.4c7.2,0,14.4,0,21.6,0,7,0,11.9,3.1,14.5,9.5,2.4,5.9,4.9,11.7,6.4,18,.2.7.4,1.1,1.3,1.1,8.8,0,17.6,0,26.4,0s4.6-1.1,6.2-3c2.3-2.6,3.3-5.7,3.3-9,0-27.2,0-54.4,0-81.7,0-2.4-.6-4.8-1.8-6.9-1.9-3.3-4.6-5.2-8.6-5.1-20.2,0-40.4,0-60.6,0-2.8,0-5.1,1.1-6.9,3.2-2.2,2.6-3.1,5.7-3.2,9.1,0,4.3,0,8.5,0,12.8v2.3c1.9,0,3.7-.4,5.5-.3,5.5.3,10.1,2.8,14,6.5,4.8,4.5,7.8,9.9,8.1,16.6.4,9.5-7.2,18.1-14.7,21.3h0ZM64.1,178.4h78c-.2-3.2-5.2-16.1-6.7-19.1-2.7-5.3-7.1-7.9-13.1-7.9-11.4,0-22.7,0-34.1,0-1.7,0-3.4,0-5.1.3-6.9,1.2-11.8,4.8-14,11.7-.8,2.7-1.8,5.4-2.7,8.1-.8,2.3-1.5,4.5-2.3,6.9h0Z"/>
  <path class="st1" d="M115.9,144.4c7.4-3.3,15.1-11.8,14.7-21.3-.3-6.7-3.4-12.1-8.1-16.6-3.9-3.7-8.5-6.2-14-6.5-1.8,0-3.6.2-5.5.3v-2.3c0-4.3,0-8.5,0-12.8,0-3.4.9-6.5,3.2-9.1,1.8-2.1,4.1-3.2,6.9-3.2,20.2,0,40.4,0,60.6,0,4,0,6.7,1.8,8.6,5.1,1.2,2.1,1.8,4.4,1.8,6.9,0,27.2,0,54.4,0,81.7,0,3.4-1,6.5-3.3,9-1.6,1.9-3.6,3-6.2,3-8.8,0-17.6,0-26.4,0-.9,0-1.1-.4-1.3-1.1-1.4-6.2-4-12.1-6.4-18-2.6-6.3-7.5-9.6-14.5-9.5-7.2,0-14.4,0-21.6,0h-1.4c0-.7-.1-1.2-.2-1.8-1.7-.4-3.5-.7-5.1-1.2-8.5-2.6-15.1-10.8-15.7-19.4-.4-5,1.3-9.4,4.1-13.4,3.8-5.4,8.7-9.2,15.3-10.4,4.6-.9,8.8.2,12.7,2.6,6.6,4,11,9.6,12.2,17.4,1,6.6-1.7,12-6.1,16.7-1.3,1.4-2.8,2.5-4.3,3.8h0ZM139.7,107.9h34.8v-4.8h-34.8v4.8ZM139.7,147.7h34.9v-4.8h-34.9v4.8ZM139.7,120.6h34.8v-4.8h-34.9v4.8h0ZM174.6,89.7h-34.9v4.8h34.9v-4.8ZM139.7,133.4h34.9v-4.9h-33.7c-.2,0-.4,0-.6,0-.2.1-.6.4-.6.6,0,1.4,0,2.8,0,4.3Z"/>
  <path class="st1" d="M64.1,178.4c.8-2.4,1.5-4.6,2.3-6.9.9-2.7,1.9-5.4,2.7-8.1,2.2-6.9,7.1-10.5,14-11.7,1.7-.3,3.4-.3,5.1-.3,11.4,0,22.7,0,34.1,0,6,0,10.4,2.6,13.1,7.9,1.5,3,6.5,15.9,6.7,19.1h-78Z"/>
  <path class="st0" d="M139.7,107.9v-4.8h34.8v4.8h-34.8Z"/>
  <path class="st0" d="M139.7,147.7v-4.8h34.9v4.8h-34.9Z"/>
  <path class="st0" d="M139.7,120.6v-4.8h34.8v4.8h-34.9,0Z"/>
  <path class="st0" d="M174.6,89.7v4.8h-34.9v-4.8h34.9Z"/>
  <path class="st0" d="M139.7,133.4c0-1.5,0-2.9,0-4.3,0-.2.4-.4.6-.6.1,0,.4,0,.6,0h33.7v4.9h-34.9Z"/>
</svg>