<svg width="16" height="17" viewBox="0 0 16 17" fill="none" xmlns="http://www.w3.org/2000/svg">
<path d="M4.00008 9.16675C2.16008 9.16675 0.666748 10.6534 0.666748 12.5001C0.666748 14.3467 2.16008 15.8334 4.00008 15.8334C5.84008 15.8334 7.33342 14.3401 7.33342 12.5001C7.33342 10.6601 5.84675 9.16675 4.00008 9.16675ZM2.64008 11.1401H4.00008C4.25341 11.1401 4.45341 11.3467 4.45341 11.5934C4.45341 11.8401 4.25341 12.0467 4.00008 12.0467H2.64008C2.38675 12.0467 2.18675 11.8401 2.18675 11.5934C2.18675 11.3467 2.38675 11.1401 2.64008 11.1401ZM5.36008 13.8601H2.64008C2.38675 13.8601 2.18675 13.6534 2.18675 13.4067C2.18675 13.1601 2.39341 12.9534 2.64008 12.9534H5.36675C5.62008 12.9534 5.82008 13.1601 5.82008 13.4067C5.82008 13.6534 5.61341 13.8601 5.36008 13.8601Z" fill="#202020"/>
<path d="M11.3333 2.5H4.66659C2.66659 2.5 1.33325 3.5 1.33325 5.83333V7.92667C1.33325 8.41333 1.83325 8.72 2.27992 8.52667C3.01325 8.20667 3.84659 8.08667 4.71992 8.22667C6.46659 8.51333 7.89325 9.89333 8.24659 11.6267C8.34659 12.1333 8.35992 12.6267 8.29325 13.1C8.23992 13.4933 8.55992 13.84 8.95325 13.84H11.3333C13.3333 13.84 14.6666 12.84 14.6666 10.5067V5.83333C14.6666 3.5 13.3333 2.5 11.3333 2.5ZM11.6466 6.22667L9.55992 7.89333C9.11992 8.24667 8.55992 8.42 7.99992 8.42C7.43992 8.42 6.87325 8.24667 6.43992 7.89333L4.35325 6.22667C4.13992 6.05333 4.10659 5.73333 4.27325 5.52C4.44659 5.30667 4.75992 5.26667 4.97325 5.44L7.05992 7.10667C7.56659 7.51333 8.42659 7.51333 8.93325 7.10667L11.0199 5.44C11.2333 5.26667 11.5533 5.3 11.7199 5.52C11.8933 5.73333 11.8599 6.05333 11.6466 6.22667Z" fill="#202020"/>
</svg>
