<svg width="20" height="20" viewBox="0 0 20 20" fill="none" xmlns="http://www.w3.org/2000/svg">
<path d="M10 11.4584C9.65833 11.4584 9.375 11.175 9.375 10.8334V6.45837C9.375 6.11671 9.65833 5.83337 10 5.83337C10.3417 5.83337 10.625 6.11671 10.625 6.45837V10.8334C10.625 11.175 10.3417 11.4584 10 11.4584Z" fill="#121828"/>
<path d="M10.0001 14.375C9.77508 14.375 9.56673 14.2917 9.4084 14.1334C9.3334 14.05 9.27509 13.9584 9.22509 13.8584C9.18342 13.7584 9.16675 13.65 9.16675 13.5417C9.16675 13.325 9.2584 13.1083 9.4084 12.95C9.71673 12.6417 10.2834 12.6417 10.5918 12.95C10.7418 13.1083 10.8334 13.325 10.8334 13.5417C10.8334 13.65 10.8084 13.7584 10.7667 13.8584C10.7251 13.9584 10.6668 14.05 10.5918 14.1334C10.4334 14.2917 10.2251 14.375 10.0001 14.375Z" fill="#121828"/>
<path d="M10.0001 18.9583C9.44174 18.9583 8.87506 18.8166 8.37506 18.5249L3.42506 15.6666C2.42506 15.0833 1.80005 14.0083 1.80005 12.8499V7.14997C1.80005 5.99164 2.42506 4.91664 3.42506 4.3333L8.37506 1.47498C9.37506 0.891642 10.6167 0.891642 11.6251 1.47498L16.5751 4.3333C17.5751 4.91664 18.2001 5.99164 18.2001 7.14997V12.8499C18.2001 14.0083 17.5751 15.0833 16.5751 15.6666L11.6251 18.5249C11.1251 18.8166 10.5584 18.9583 10.0001 18.9583ZM10.0001 2.29163C9.6584 2.29163 9.30839 2.3833 9.00006 2.5583L4.05006 5.41663C3.43339 5.77496 3.05005 6.43331 3.05005 7.14997V12.8499C3.05005 13.5583 3.43339 14.225 4.05006 14.5833L9.00006 17.4416C9.61673 17.8 10.3834 17.8 10.9917 17.4416L15.9417 14.5833C16.5584 14.225 16.9418 13.5666 16.9418 12.8499V7.14997C16.9418 6.44164 16.5584 5.77496 15.9417 5.41663L10.9917 2.5583C10.6917 2.3833 10.3417 2.29163 10.0001 2.29163Z" fill="#121828"/>
</svg>
