<svg width="31" height="31" viewBox="0 0 31 31" fill="none" xmlns="http://www.w3.org/2000/svg">
<path d="M23.7998 5.97998C24.1432 5.97998 24.4736 6.10918 24.7252 6.34242C24.9762 6.57634 25.1305 6.89594 25.1564 7.23798L25.1598 7.33998V8.69998C25.1598 9.04338 25.0306 9.37386 24.7973 9.62546C24.5634 9.87706 24.2438 10.0307 23.9018 10.0566L23.7998 10.06V16.18H25.1598V17.54H23.7998V23.66C23.7998 24.0034 23.6706 24.3339 23.4373 24.5855C23.2034 24.8364 22.8838 24.9907 22.5418 25.0166L22.4398 25.02H7.47977C7.13637 25.02 6.80589 24.8908 6.55429 24.6569C6.30269 24.4236 6.14901 24.104 6.12317 23.762L6.11977 23.66V17.54H4.75977V16.18H6.11977V10.06L6.01777 10.0566C5.69409 10.0321 5.38945 9.8927 5.15961 9.66354C4.92977 9.43438 4.78901 9.13042 4.76385 8.80674L4.75977 8.69998V7.33998C4.75977 6.99658 4.88897 6.6661 5.12221 6.4145C5.35613 6.1629 5.67573 6.00922 6.01777 5.98338L6.11977 5.97998H23.7998ZM22.4398 17.54H7.47977V23.66H8.83977V21.62C8.83977 20.9101 9.11721 20.2287 9.61225 19.7207C10.108 19.2128 10.7825 18.9183 11.4918 18.9007C12.201 18.883 12.8892 19.1434 13.4094 19.6255C13.9296 20.1083 14.241 20.7754 14.2764 21.484L14.2798 21.62V23.66H15.6398V21.62C15.6398 20.9101 15.9172 20.2287 16.4122 19.7207C16.908 19.2128 17.5825 18.9183 18.2918 18.9007C19.001 18.883 19.6892 19.1434 20.2094 19.6255C20.7296 20.1083 21.041 20.7754 21.0764 21.484L21.0798 21.62V23.66H22.4398V17.54ZM11.5598 20.26C11.2164 20.26 10.8859 20.3892 10.6343 20.6224C10.3827 20.8563 10.229 21.1759 10.2032 21.518L10.1998 21.62V23.66H12.9198V21.62C12.9198 21.2596 12.7763 20.9135 12.5213 20.6585C12.2663 20.4035 11.9202 20.26 11.5598 20.26ZM18.3598 20.26C18.0164 20.26 17.6859 20.3892 17.4343 20.6224C17.1834 20.8563 17.029 21.1759 17.0032 21.518L16.9998 21.62V23.66H19.7198V21.62C19.7198 21.2596 19.5763 20.9135 19.3213 20.6585C19.0663 20.4035 18.7202 20.26 18.3598 20.26ZM22.4398 10.06H7.47977V16.18H8.83977V14.14C8.83977 13.4301 9.11721 12.7487 9.61225 12.2407C10.108 11.7328 10.7825 11.4383 11.4918 11.4207C12.201 11.403 12.8892 11.6634 13.4094 12.1455C13.9296 12.6283 14.241 13.2954 14.2764 14.004L14.2798 14.14V16.18H15.6398V14.14C15.6398 13.4301 15.9172 12.7487 16.4122 12.2407C16.908 11.7328 17.5825 11.4383 18.2918 11.4207C19.001 11.403 19.6892 11.6634 20.2094 12.1455C20.7296 12.6283 21.041 13.2954 21.0764 14.004L21.0798 14.14V16.18H22.4398V10.06ZM11.5598 12.78C11.2164 12.78 10.8859 12.9092 10.6343 13.1424C10.3827 13.3763 10.229 13.6959 10.2032 14.038L10.1998 14.14V16.18H12.9198V14.14C12.9198 13.7796 12.7763 13.4335 12.5213 13.1785C12.2663 12.9235 11.9202 12.78 11.5598 12.78ZM18.3598 12.78C18.0164 12.78 17.6859 12.9092 17.4343 13.1424C17.1834 13.3763 17.029 13.6959 17.0032 14.038L16.9998 14.14V16.18H19.7198V14.14C19.7198 13.7796 19.5763 13.4335 19.3213 13.1785C19.0663 12.9235 18.7202 12.78 18.3598 12.78ZM23.7998 7.33998H6.11977V8.69998H23.7998V7.33998Z" fill="#3C3C3C"/>
</svg>
