<svg width="31" height="31" viewBox="0 0 31 31" fill="none" xmlns="http://www.w3.org/2000/svg">
<path d="M9.86043 5.97998C11.5019 5.97998 12.8422 7.27266 12.917 8.89582L12.9204 9.03998V12.2346L16.5958 9.51326C16.8189 9.34802 17.1174 9.33714 17.3499 9.47654L17.4254 9.5289L21.0804 12.4536V10.06H22.4404V13.5416L24.2254 14.9689L23.3754 16.0311L22.4404 15.2824L22.4398 18.22H23.8004C24.1493 18.22 24.4369 18.4825 24.4757 18.8204L24.4804 18.9V24.34C24.4804 24.6888 24.218 24.9765 23.88 25.0152L23.8004 25.02H5.44043V23.66H10.571L11.761 22.3H5.44043V20.94H12.9204V20.9753L14.141 19.58H5.44043V18.22H6.80043V9.03998C6.80043 7.35018 8.17063 5.97998 9.86043 5.97998ZM18.221 19.58H15.9485L12.3785 23.66H14.651L18.221 19.58ZM23.1204 20.7088L20.5385 23.66H23.1204V20.7088ZM22.301 19.58H20.0285L16.4585 23.66H18.731L22.301 19.58ZM21.0804 14.1944L16.9841 10.9175L12.9204 13.9271V18.22H14.9597L14.9604 15.5C14.9604 15.1511 15.2229 14.8635 15.5609 14.8247L15.6404 14.82H18.3604C18.7093 14.82 18.9969 15.0825 19.0357 15.4204L19.0404 15.5L19.0398 18.22H21.0798L21.0804 14.1944ZM9.86043 7.33998C8.95943 7.33998 8.22163 8.04174 8.16383 8.92846L8.16043 9.03998V18.22H11.5604V9.03998C11.5604 8.1009 10.7995 7.33998 9.86043 7.33998ZM17.6804 16.18H16.3204V18.22H17.6804V16.18Z" fill="#3C3C3C"/>
</svg>
