<svg width="24" height="25" viewBox="0 0 24 25" fill="none" xmlns="http://www.w3.org/2000/svg">
<path d="M9.275 19.5H14.725L14.225 17.5H9.775L9.275 19.5ZM9 15.5H15C16.3833 15.5 17.5625 15.0125 18.5375 14.0375C19.5125 13.0625 20 11.8833 20 10.5C20 9.11667 19.5125 7.9375 18.5375 6.9625C17.5625 5.9875 16.3833 5.5 15 5.5H9C7.61667 5.5 6.4375 5.9875 5.4625 6.9625C4.4875 7.9375 4 9.11667 4 10.5C4 11.8833 4.4875 13.0625 5.4625 14.0375C6.4375 15.0125 7.61667 15.5 9 15.5ZM12 12.5C11.45 12.5 10.9792 12.3042 10.5875 11.9125C10.1958 11.5208 10 11.05 10 10.5C10 9.95 10.1958 9.47917 10.5875 9.0875C10.9792 8.69583 11.45 8.5 12 8.5C12.55 8.5 13.0208 8.69583 13.4125 9.0875C13.8042 9.47917 14 9.95 14 10.5C14 11.05 13.8042 11.5208 13.4125 11.9125C13.0208 12.3042 12.55 12.5 12 12.5ZM6.5 9.5C6.78333 9.5 7.02083 9.40417 7.2125 9.2125C7.40417 9.02083 7.5 8.78333 7.5 8.5C7.5 8.21667 7.40417 7.97917 7.2125 7.7875C7.02083 7.59583 6.78333 7.5 6.5 7.5C6.21667 7.5 5.97917 7.59583 5.7875 7.7875C5.59583 7.97917 5.5 8.21667 5.5 8.5C5.5 8.78333 5.59583 9.02083 5.7875 9.2125C5.97917 9.40417 6.21667 9.5 6.5 9.5ZM4 21.5V19.5H7.225L7.75 17.4C6.1 17.1167 4.72917 16.3292 3.6375 15.0375C2.54583 13.7458 2 12.2333 2 10.5C2 8.55 2.67917 6.89583 4.0375 5.5375C5.39583 4.17917 7.05 3.5 9 3.5H15C16.95 3.5 18.6042 4.17917 19.9625 5.5375C21.3208 6.89583 22 8.55 22 10.5C22 12.2333 21.4542 13.7458 20.3625 15.0375C19.2708 16.3292 17.9 17.1167 16.25 17.4L16.775 19.5H20V21.5H4ZM12 14.5C13.1 14.5 14.0417 14.1083 14.825 13.325C15.6083 12.5417 16 11.6 16 10.5C16 9.4 15.6083 8.45833 14.825 7.675C14.0417 6.89167 13.1 6.5 12 6.5C10.9 6.5 9.95833 6.89167 9.175 7.675C8.39167 8.45833 8 9.4 8 10.5C8 11.6 8.39167 12.5417 9.175 13.325C9.95833 14.1083 10.9 14.5 12 14.5Z" fill="#3C3C3C"/>
</svg>
