<svg width="21" height="21" viewBox="0 0 21 21" fill="none" xmlns="http://www.w3.org/2000/svg">
<g clip-path="url(#clip0_2411_15778)">
<path d="M19.4628 17.4559H18.3456V7.55199C18.9976 7.25572 19.4524 6.59877 19.4524 5.8372V0.997948C19.4524 0.722976 19.2293 0.5 18.9544 0.5H2.04544C1.77042 0.5 1.54749 0.722976 1.54749 0.997948V5.8372C1.54749 6.59873 2.00222 7.25562 2.65417 7.55194V17.4559H1.53725C1.26233 17.4559 1.03931 17.6789 1.03931 17.9539V20.0021C1.03931 20.2771 1.26233 20.5 1.53725 20.5H19.4627C19.7376 20.5 19.9607 20.2771 19.9607 20.0021V17.9539C19.9607 17.6788 19.7377 17.4559 19.4628 17.4559ZM16.6826 1.4959H18.4565V5.8372C18.4565 6.32628 18.0587 6.72416 17.5695 6.72416C17.0804 6.72416 16.6826 6.32628 16.6826 5.8372V1.4959ZM13.8548 1.4959H15.6287V5.8372C15.6287 6.32628 15.2309 6.72416 14.7417 6.72416C14.2525 6.72416 13.8548 6.32628 13.8548 5.8372V1.4959ZM11.0269 1.4959H12.8008V5.8372C12.8008 6.32628 12.403 6.72416 11.9139 6.72416C11.4246 6.72416 11.0269 6.32628 11.0269 5.8372V1.4959ZM8.19912 1.4959H9.97293V5.8372C9.97293 6.32628 9.57515 6.72416 9.08603 6.72416C8.59681 6.72416 8.19912 6.32628 8.19912 5.8372V1.4959ZM5.3713 1.4959H7.14511V5.8372C7.14511 6.32628 6.74743 6.72416 6.25821 6.72416C5.76899 6.72416 5.3713 6.32628 5.3713 5.8372V1.4959ZM2.54339 1.4959H4.3172V5.8372C4.3172 6.32628 3.91951 6.72416 3.43029 6.72416C2.94117 6.72416 2.54339 6.32628 2.54339 5.8372V1.4959ZM3.65007 7.70701C4.12391 7.65162 4.54444 7.42001 4.8441 7.07926C5.1896 7.47195 5.69531 7.72006 6.25811 7.72006C6.82091 7.72006 7.32662 7.47195 7.67212 7.07926C8.01732 7.47195 8.52313 7.72006 9.08593 7.72006C9.64873 7.72006 10.1544 7.47195 10.4999 7.07926C10.8451 7.47195 11.3509 7.72006 11.9137 7.72006C12.4766 7.72006 12.9822 7.47195 13.3277 7.07926C13.6729 7.47195 14.1786 7.72006 14.7414 7.72006C15.3043 7.72006 15.81 7.47195 16.1555 7.07926C16.4551 7.42001 16.8757 7.65166 17.3494 7.70701V17.4559H3.65007V7.70701ZM18.9649 19.504H2.0352V18.4518H3.15212H17.8476H18.9648L18.9649 19.504Z" fill="#3C3C3C"/>
<path d="M15.9099 9.16455H5.09097C4.81594 9.16455 4.59302 9.38748 4.59302 9.6625V14.5588C4.59302 14.8339 4.81594 15.0568 5.09097 15.0568H15.91C16.185 15.0568 16.4079 14.8339 16.4079 14.5588V9.66245C16.4079 9.38743 16.1849 9.16455 15.9099 9.16455ZM5.58882 10.1604H7.20368V14.0609H5.58882V10.1604ZM15.412 14.0609H8.19958V10.1604H15.412V14.0609Z" fill="#3C3C3C"/>
</g>
<defs>
<clipPath id="clip0_2411_15778">
<rect width="20" height="20" fill="white" transform="translate(0.5 0.5)"/>
</clipPath>
</defs>
</svg>
