<svg width="31" height="31" viewBox="0 0 31 31" fill="none" xmlns="http://www.w3.org/2000/svg">
<g clip-path="url(#clip0_2411_15764)">
<path d="M22.0513 9.69596C20.9857 9.69596 20.1188 8.82955 20.1188 7.7646C20.1188 6.69965 20.9857 5.83324 22.0513 5.83324C23.1168 5.83324 23.9838 6.69965 23.9838 7.7646C23.9838 8.82955 23.1168 9.69596 22.0513 9.69596ZM22.0513 6.64691C21.4344 6.64691 20.9325 7.14829 20.9325 7.7646C20.9325 8.38091 21.4344 8.88228 22.0513 8.88228C22.6682 8.88228 23.1701 8.38091 23.1701 7.7646C23.1701 7.14829 22.6682 6.64691 22.0513 6.64691ZM22.0474 5.35302C21.9395 5.35302 21.836 5.31016 21.7597 5.23386C21.6834 5.15756 21.6406 5.05408 21.6406 4.94618V4.00669C21.6406 3.89879 21.6834 3.79531 21.7597 3.71901C21.836 3.64272 21.9395 3.59985 22.0474 3.59985C22.1553 3.59985 22.2588 3.64272 22.3351 3.71901C22.4114 3.79531 22.4543 3.89879 22.4543 4.00669V4.94618C22.4543 4.99961 22.4437 5.05251 22.4233 5.10187C22.4028 5.15123 22.3729 5.19608 22.3351 5.23386C22.2973 5.27164 22.2525 5.3016 22.2031 5.32205C22.1537 5.3425 22.1008 5.35302 22.0474 5.35302ZM20.0542 6.18124C20.0008 6.18131 19.9479 6.17083 19.8985 6.1504C19.8491 6.12997 19.8043 6.09999 19.7666 6.06219L19.1018 5.39787C19.0254 5.3216 18.9825 5.21813 18.9825 5.11023C18.9825 5.00233 19.0253 4.89883 19.1016 4.8225C19.1778 4.74618 19.2813 4.70328 19.3892 4.70324C19.4971 4.7032 19.6006 4.74603 19.6769 4.8223L20.3417 5.48661C20.5925 5.73717 20.41 6.18124 20.0542 6.18124ZM19.2308 8.1753H18.2906C18.1827 8.1753 18.0792 8.13244 18.0029 8.05614C17.9267 7.97985 17.8838 7.87636 17.8838 7.76846C17.8838 7.66056 17.9267 7.55708 18.0029 7.48079C18.0792 7.40449 18.1827 7.36163 18.2906 7.36163H19.2308C19.3387 7.36163 19.4422 7.40449 19.5185 7.48079C19.5948 7.55708 19.6376 7.66056 19.6376 7.76846C19.6376 7.87636 19.5948 7.97985 19.5185 8.05614C19.4422 8.13244 19.3387 8.1753 19.2308 8.1753ZM19.3948 10.8314C19.039 10.8314 18.8565 10.3873 19.1073 10.1368L19.772 9.47245C19.8098 9.43468 19.8547 9.40472 19.904 9.38429C19.9534 9.36386 20.0063 9.35335 20.0597 9.35337C20.1132 9.35339 20.1661 9.36393 20.2154 9.3844C20.2648 9.40487 20.3096 9.43486 20.3473 9.47266C20.3851 9.51044 20.4151 9.5553 20.4355 9.60466C20.4559 9.65403 20.4664 9.70693 20.4664 9.76036C20.4664 9.81378 20.4558 9.86668 20.4354 9.91603C20.4149 9.96538 20.3849 10.0102 20.3471 10.048L19.6824 10.7123C19.6447 10.7501 19.5998 10.7801 19.5505 10.8006C19.5011 10.821 19.4482 10.8315 19.3948 10.8314ZM22.0552 11.9293C21.9473 11.9293 21.8438 11.8864 21.7675 11.8101C21.6912 11.7338 21.6484 11.6304 21.6484 11.5225V10.583C21.6484 10.4751 21.6912 10.3716 21.7675 10.2953C21.8438 10.219 21.9473 10.1761 22.0552 10.1761C22.1631 10.1761 22.2666 10.219 22.3429 10.2953C22.4192 10.3716 22.462 10.4751 22.462 10.583V11.5225C22.462 11.6304 22.4192 11.7338 22.3429 11.8101C22.2666 11.8864 22.1631 11.9293 22.0552 11.9293ZM24.7133 10.8259C24.6599 10.826 24.607 10.8155 24.5576 10.7951C24.5083 10.7746 24.4634 10.7447 24.4257 10.7068L23.7609 10.0425C23.6845 9.96626 23.6416 9.86279 23.6416 9.75489C23.6416 9.64699 23.6844 9.54349 23.7607 9.46716C23.8369 9.39084 23.9404 9.34794 24.0483 9.3479C24.1562 9.34786 24.2597 9.39069 24.336 9.46696L25.0009 10.1313C25.2516 10.3818 25.0692 10.8259 24.7133 10.8259ZM25.812 8.16752H24.8718C24.7639 8.16752 24.6605 8.12466 24.5842 8.04836C24.5079 7.97206 24.465 7.86858 24.465 7.76068C24.465 7.65278 24.5079 7.5493 24.5842 7.47301C24.6605 7.39671 24.7639 7.35385 24.8718 7.35385H25.812C25.9199 7.35385 26.0234 7.39671 26.0997 7.47301C26.176 7.5493 26.2188 7.65278 26.2188 7.76068C26.2188 7.86858 26.176 7.97206 26.0997 8.04836C26.0234 8.12466 25.9199 8.16752 25.812 8.16752ZM24.043 6.17575C23.6871 6.17575 23.5047 5.73168 23.7554 5.48112L24.4201 4.81681C24.4965 4.74053 24.6 4.69771 24.7079 4.69775C24.8158 4.69778 24.9192 4.74068 24.9955 4.81701C25.0718 4.89334 25.1146 4.99683 25.1146 5.10474C25.1145 5.21264 25.0716 5.31611 24.9953 5.39238L24.3305 6.05669C24.2928 6.0945 24.248 6.12448 24.1986 6.14491C24.1493 6.16534 24.0964 6.17582 24.043 6.17575Z" fill="#3C3C3C"/>
<path d="M26.7499 14.3792C23.9073 14.6863 21.0624 15.5292 18.2942 16.8845C16.8744 17.5796 15.4729 18.4104 14.1053 19.3652C13.0589 18.5752 11.9587 17.97 10.9002 17.5067V15.0732C13.0356 14.737 13.9167 12.1495 13.9167 10.2761C13.9167 8.31197 12.8808 5.44824 10.5098 5.44824C8.13893 5.44824 7.10297 8.31213 7.10297 10.2761C7.10297 12.1416 7.97228 14.7062 10.0865 15.068V17.1742C8.10974 16.4211 5.9298 15.9212 3.80499 15.9142C3.69714 15.9148 3.59395 15.9582 3.51809 16.0348C3.44224 16.1115 3.39994 16.2152 3.40049 16.323C3.40054 16.3305 3.40131 16.3379 3.40171 16.3454C3.40115 16.3543 3.40039 16.3632 3.40039 16.3723V26.993C3.40039 27.1009 3.44325 27.2044 3.51955 27.2807C3.59585 27.357 3.69933 27.3999 3.80723 27.3999H26.7936C26.9015 27.3999 27.0049 27.357 27.0812 27.2807C27.1575 27.2044 27.2004 27.1009 27.2004 26.993V14.797C27.2004 14.5506 26.8611 14.3671 26.7499 14.3792C26.8611 14.3671 23.9073 14.6863 26.7499 14.3792ZM7.91659 10.2761C7.91659 8.78777 8.62866 6.26192 10.5098 6.26192C12.3908 6.26192 13.103 8.78767 13.103 10.2761C13.103 11.7644 12.3909 14.2904 10.5098 14.2904C8.62871 14.2904 7.91659 11.7646 7.91659 10.2761ZM15.821 26.5862C19.2529 23.9538 22.8005 22.3798 26.3867 21.9004V24.129C24.0226 24.4373 21.6555 25.263 19.3434 26.5862H15.821ZM11.4888 26.5862C14.8907 23.3323 20.034 19.6293 26.3867 18.7997V21.0794C22.3343 21.5972 18.3416 23.4488 14.5111 26.5862H11.4888ZM26.3867 15.242V17.979C19.3809 18.8581 13.8154 23.0998 10.3246 26.5862H7.46892C8.26281 25.6158 9.96324 23.6812 12.3933 21.6843C15.4716 19.1547 20.3705 16.0172 26.3867 15.242ZM4.21407 19.7975C5.21585 19.8724 7.93973 20.2211 10.9569 21.8366C10.3969 22.3275 9.85135 22.8346 9.32095 23.3573C6.94456 22.2971 5.02616 22.0707 4.21407 22.0238V19.7975ZM4.21407 18.9795V16.7416C7.45 16.9092 10.7767 17.9523 13.4091 19.8635C12.8864 20.2479 12.2002 20.7831 11.6179 21.2705C8.27471 19.4057 5.27861 19.0479 4.21407 18.9795ZM4.21407 22.8399C4.94632 22.8881 6.62585 23.0957 8.70626 23.9773C7.49231 25.2307 6.71774 26.2072 6.42848 26.5862H4.21407V22.8399ZM21.0896 26.5862C22.8421 25.7419 24.6167 25.1932 26.3867 24.9502V26.5862H21.0896Z" fill="#3C3C3C"/>
<path d="M11.7262 11.1347C11.6456 11.063 11.5398 11.0263 11.4321 11.0326C11.3244 11.0389 11.2236 11.0877 11.1519 11.1683L10.9002 11.4511V8.80528C10.9002 8.69738 10.8574 8.59389 10.7811 8.5176C10.7048 8.4413 10.6013 8.39844 10.4934 8.39844C10.3855 8.39844 10.282 8.4413 10.2057 8.5176C10.1294 8.59389 10.0865 8.69738 10.0865 8.80528V9.67306L9.64493 9.35979C9.60139 9.32818 9.55201 9.30551 9.49965 9.2931C9.4473 9.2807 9.393 9.2788 9.3399 9.28753C9.28681 9.29625 9.23597 9.31542 9.19034 9.34392C9.1447 9.37243 9.10517 9.4097 9.07404 9.45359C9.04291 9.49747 9.02079 9.5471 9.00897 9.59959C8.99714 9.65208 8.99585 9.7064 9.00516 9.75939C9.01447 9.81239 9.03421 9.86301 9.06322 9.90833C9.09223 9.95364 9.12994 9.99275 9.17416 10.0234L10.0865 10.6706V13.1207C10.0865 13.2286 10.1294 13.3321 10.2057 13.4084C10.282 13.4847 10.3855 13.5275 10.4934 13.5275C10.6013 13.5275 10.7048 13.4847 10.7811 13.4084C10.8574 13.3321 10.9002 13.2286 10.9002 13.1207V12.6752L11.7598 11.709C11.8315 11.6284 11.8682 11.5226 11.8619 11.4149C11.8556 11.3072 11.8068 11.2064 11.7262 11.1347Z" fill="#3C3C3C"/>
</g>
<defs>
<clipPath id="clip0_2411_15764">
<rect width="23.8" height="23.8" fill="white" transform="translate(3.39941 3.59985)"/>
</clipPath>
</defs>
</svg>
