<svg width="31" height="31" viewBox="0 0 31 31" fill="none" xmlns="http://www.w3.org/2000/svg">
<path d="M16.2837 6.41639L16.4054 6.48303L23.1939 10.4944L22.5016 11.6653L21.4878 11.0656V14.4798C21.4878 14.5336 21.4816 14.5852 21.4694 14.6356L25.9758 18.0158L25.1598 19.1038L24.2078 18.3892V24.6798C24.2078 25.028 23.9453 25.3156 23.6066 25.3551L23.5278 25.3598H7.20777C6.85893 25.3598 6.57129 25.0974 6.53253 24.7587L6.52777 24.6798V18.3892L5.57577 19.1038L4.75977 18.0158L9.26545 14.6356L9.25253 14.5587L9.24777 14.4798V11.0656L8.23389 11.6653L7.54165 10.4944L14.3301 6.48303C14.9298 6.12807 15.6663 6.10631 16.2837 6.41639ZM10.6078 18.5592L7.88777 18.5598V23.9998L10.6078 23.9992V18.5592ZM18.7678 18.5598H11.9678V23.9998L13.3278 23.9992V20.5998C13.3278 20.251 13.5902 19.9634 13.9282 19.9239L14.0078 19.9198H16.7278C17.0766 19.9198 17.3636 20.1823 17.403 20.5203L17.4078 20.5998V23.9992L18.7678 23.9998V18.5598ZM22.8478 18.5598L20.1278 18.5592V23.9992L22.8478 23.9998V18.5598ZM16.0478 21.2798H14.6878V23.9998H16.0478V21.2798ZM22.6213 17.1992L19.9013 15.1598L18.608 15.1592L19.832 17.1992H22.6213ZM8.11421 17.1992H10.9029L12.1269 15.1592L10.8342 15.1598L8.11421 17.1992ZM17.0236 15.1598H13.7126L12.4886 17.1992H18.2469L17.0236 15.1598ZM12.6478 11.0792L10.6078 11.0798V13.7998L12.6478 13.7991V11.0792ZM16.7278 11.0792H14.0078V13.7991H16.7278V11.0792ZM20.1278 11.0798L18.0878 11.0792V13.7991L20.1278 13.7998V11.0798ZM15.1039 7.61251L15.0216 7.65399L11.5264 9.71915H19.2084L15.7139 7.65399C15.5269 7.54383 15.3004 7.52955 15.1039 7.61251Z" fill="#3C3C3C"/>
</svg>
