<svg width="31" height="31" viewBox="0 0 31 31" fill="none" xmlns="http://www.w3.org/2000/svg">
<path d="M25.0338 5.37207L25.6417 6.58791L23.9777 7.42023V24.34C23.9777 25.0567 23.4229 25.6442 22.7191 25.6959L22.6177 25.7H7.65775C6.94103 25.7 6.35351 25.1451 6.30183 24.4413L6.29775 24.34V16.2602L5.24171 16.7879L4.63379 15.5721L6.29775 14.7404V9.37999H7.65775V14.0604L25.0338 5.37207ZM22.6177 8.10023L7.65775 15.5802V24.34H11.7377V17.54C11.7377 16.8233 12.2926 16.2358 12.9964 16.1834L13.0977 16.18H17.1777C17.8945 16.18 18.482 16.7349 18.5343 17.4387L18.5377 17.54V24.34H22.6177V8.10023ZM17.1777 17.54H13.0977V24.34H17.1777V17.54ZM20.5777 12.1C20.9531 12.1 21.2577 12.4046 21.2577 12.78C21.2577 13.1553 20.9531 13.46 20.5777 13.46C20.2024 13.46 19.8977 13.1553 19.8977 12.78C19.8977 12.4046 20.2024 12.1 20.5777 12.1Z" fill="#3C3C3C"/>
</svg>
