<svg width="21" height="20" viewBox="0 0 21 20" fill="none" xmlns="http://www.w3.org/2000/svg">
<path d="M5.50008 16.6667L4.66675 17.5001M15.5001 16.6667L16.3334 17.5001" stroke="#2450A0" stroke-width="1.5" stroke-linecap="round"/>
<path d="M3 10V10.8333C3 13.5832 3 14.9581 3.85427 15.8124C4.70854 16.6667 6.08347 16.6667 8.83333 16.6667H12.1667C14.9165 16.6667 16.2915 16.6667 17.1457 15.8124C18 14.9581 18 13.5832 18 10.8333V10" stroke="#2450A0" stroke-width="1.5" stroke-linecap="round" stroke-linejoin="round"/>
<path d="M2.16675 10H18.8334" stroke="#2450A0" stroke-width="1.5" stroke-linecap="round"/>
<path d="M3.83325 10V4.60284C3.83325 3.44147 4.77472 2.5 5.93609 2.5C6.86797 2.5 7.6887 3.11332 7.95275 4.00701L7.99992 4.16667" stroke="#2450A0" stroke-width="1.5" stroke-linecap="round"/>
<path d="M7.16675 5.00004L9.25008 3.33337" stroke="#2450A0" stroke-width="1.5" stroke-linecap="round"/>
</svg>
