<svg width="21" height="20" viewBox="0 0 21 20" fill="none" xmlns="http://www.w3.org/2000/svg">
<path d="M19.1667 14.5834H2.5" stroke="#2450A0" stroke-width="1.5" stroke-linecap="round" stroke-linejoin="round"/>
<path d="M19.1667 17.5V13.3333C19.1667 11.762 19.1667 10.9763 18.6785 10.4882C18.1904 10 17.4047 10 15.8333 10H5.83333C4.26199 10 3.47631 10 2.98816 10.4882C2.5 10.9763 2.5 11.762 2.5 13.3333V17.5" stroke="#2450A0" stroke-width="1.5" stroke-linecap="round" stroke-linejoin="round"/>
<path d="M9.99992 10V8.51113C9.99992 8.19393 9.95224 8.08784 9.70804 7.96281C9.19946 7.70243 8.58213 7.5 7.91659 7.5C7.25104 7.5 6.63371 7.70243 6.12513 7.96281C5.88093 8.08784 5.83325 8.19393 5.83325 8.51113L5.83325 10" stroke="#2450A0" stroke-width="1.5" stroke-linecap="round"/>
<path d="M15.8332 10V8.51113C15.8332 8.19393 15.7855 8.08784 15.5413 7.96281C15.0327 7.70243 14.4154 7.5 13.7498 7.5C13.0843 7.5 12.467 7.70243 11.9584 7.96281C11.7142 8.08784 11.6665 8.19393 11.6665 8.51113L11.6665 10" stroke="#2450A0" stroke-width="1.5" stroke-linecap="round"/>
<path d="M18.3333 10V6.13381C18.3333 5.55744 18.3333 5.26925 18.1731 4.99711C18.013 4.72496 17.7849 4.58409 17.3286 4.30236C15.489 3.16648 13.2494 2.5 10.8333 2.5C8.41714 2.5 6.17754 3.16648 4.3379 4.30236C3.88162 4.58409 3.65348 4.72496 3.49336 4.99711C3.33325 5.26925 3.33325 5.55744 3.33325 6.13381V10" stroke="#2450A0" stroke-width="1.5" stroke-linecap="round"/>
</svg>
