<svg width="16" height="17" viewBox="0 0 16 17" fill="none" xmlns="http://www.w3.org/2000/svg">
<path d="M11.7466 7.66673C11.4599 7.66673 11.2333 7.4334 11.2333 7.1534C11.2333 6.90673 10.9866 6.3934 10.5733 5.94673C10.1666 5.5134 9.71992 5.26006 9.34659 5.26006C9.05992 5.26006 8.83325 5.02673 8.83325 4.74673C8.83325 4.46673 9.06659 4.2334 9.34659 4.2334C10.0133 4.2334 10.7133 4.5934 11.3266 5.24007C11.8999 5.84673 12.2666 6.60007 12.2666 7.14673C12.2666 7.4334 12.0333 7.66673 11.7466 7.66673Z" fill="#202020"/>
<path d="M14.1534 7.66658C13.8668 7.66658 13.6401 7.43325 13.6401 7.15325C13.6401 4.78658 11.7134 2.86659 9.35342 2.86659C9.06675 2.86659 8.84009 2.63325 8.84009 2.35325C8.84009 2.07325 9.06675 1.83325 9.34675 1.83325C12.2801 1.83325 14.6668 4.21992 14.6668 7.15325C14.6668 7.43325 14.4334 7.66658 14.1534 7.66658Z" fill="#202020"/>
<path d="M7.36659 10.4666L6.13325 11.6999C5.87325 11.9599 5.45992 11.9599 5.19325 11.7066C5.11992 11.6333 5.04659 11.5666 4.97325 11.4933C4.28659 10.7999 3.66659 10.0733 3.11325 9.31325C2.56659 8.55325 2.12659 7.79325 1.80659 7.03992C1.49325 6.27992 1.33325 5.55325 1.33325 4.85992C1.33325 4.40659 1.41325 3.97325 1.57325 3.57325C1.73325 3.16659 1.98659 2.79325 2.33992 2.45992C2.76659 2.03992 3.23325 1.83325 3.72659 1.83325C3.91325 1.83325 4.09992 1.87325 4.26659 1.95325C4.43992 2.03325 4.59325 2.15325 4.71325 2.32659L6.25992 4.50659C6.37992 4.67325 6.46659 4.82659 6.52659 4.97325C6.58659 5.11325 6.61992 5.25325 6.61992 5.37992C6.61992 5.53992 6.57325 5.69992 6.47992 5.85325C6.39325 6.00659 6.26658 6.16659 6.10659 6.32659L5.59992 6.85325C5.52658 6.92659 5.49325 7.01325 5.49325 7.11992C5.49325 7.17325 5.49992 7.21992 5.51325 7.27325C5.53325 7.32659 5.55325 7.36659 5.56659 7.40659C5.68659 7.62659 5.89325 7.91325 6.18658 8.25992C6.48658 8.60659 6.80658 8.95992 7.15325 9.31325C7.21992 9.37992 7.29325 9.44659 7.35992 9.51325C7.62659 9.77325 7.63325 10.1999 7.36659 10.4666Z" fill="#202020"/>
<path d="M14.6466 12.7201C14.6466 12.9068 14.6132 13.1001 14.5466 13.2868C14.5266 13.3401 14.5066 13.3934 14.4799 13.4468C14.3666 13.6868 14.2199 13.9134 14.0266 14.1268C13.6999 14.4868 13.3399 14.7468 12.9332 14.9134C12.9266 14.9134 12.9199 14.9201 12.9132 14.9201C12.5199 15.0801 12.0932 15.1668 11.6332 15.1668C10.9532 15.1668 10.2266 15.0068 9.4599 14.6801C8.69324 14.3534 7.92657 13.9134 7.16657 13.3601C6.90657 13.1668 6.64657 12.9734 6.3999 12.7668L8.5799 10.5868C8.76657 10.7268 8.93324 10.8334 9.07324 10.9068C9.10657 10.9201 9.14657 10.9401 9.19324 10.9601C9.24657 10.9801 9.2999 10.9868 9.3599 10.9868C9.47324 10.9868 9.5599 10.9468 9.63324 10.8734L10.1399 10.3734C10.3066 10.2068 10.4666 10.0801 10.6199 10.0001C10.7732 9.90677 10.9266 9.86011 11.0932 9.86011C11.2199 9.86011 11.3532 9.88677 11.4999 9.94677C11.6466 10.0068 11.7999 10.0934 11.9666 10.2068L14.1732 11.7734C14.3466 11.8934 14.4666 12.0334 14.5399 12.2001C14.6066 12.3668 14.6466 12.5334 14.6466 12.7201Z" fill="#202020"/>
</svg>
