<svg width="20" height="20" viewBox="0 0 20 20" fill="none" xmlns="http://www.w3.org/2000/svg">
<path d="M13.7 3.33337C15.8405 3.33337 17.5837 5.07734 17.5837 7.24158C17.5837 8.15161 17.4381 8.99045 17.1863 9.76892L17.1853 9.7738C16.5807 11.6872 15.3373 13.2414 13.9792 14.4086C12.6179 15.5785 11.184 16.322 10.2751 16.6312L10.2673 16.6342C10.2309 16.647 10.1336 16.6664 9.99976 16.6664C9.86606 16.6664 9.76956 16.647 9.73315 16.6342L9.72534 16.6312L9.36108 16.4955C8.45922 16.1299 7.21254 15.4324 6.02124 14.4086C4.66318 13.2414 3.41982 11.6872 2.81519 9.7738L2.81323 9.76892C2.56143 8.99051 2.41675 8.15154 2.41675 7.24158C2.41682 5.07734 4.15996 3.33337 6.30054 3.33337C7.56125 3.33352 8.69248 3.94652 9.39917 4.89099L9.99976 5.69373L10.6003 4.89099C11.3071 3.94633 12.439 3.33342 13.7 3.33337Z" stroke="#121828" stroke-width="1.5"/>
</svg>
