<svg width="21" height="20" viewBox="0 0 21 20" fill="none" xmlns="http://www.w3.org/2000/svg">
<path d="M15.2498 8.75L16.9165 10.4167M12.3332 11.6667L13.9998 13.3333M9.4165 14.5833L11.0832 16.25" stroke="#2450A0" stroke-width="1.5" stroke-linecap="round"/>
<path d="M9.4462 3.89802C10.5835 2.76076 11.1521 2.19213 11.7864 1.92938C12.6322 1.57904 13.5825 1.57904 14.4283 1.92938C15.0626 2.19213 15.6313 2.76076 16.7685 3.89802C17.9058 5.03528 18.4744 5.60391 18.7372 6.23824C19.0875 7.08403 19.0875 8.03434 18.7372 8.88012C18.4744 9.51446 17.9058 10.0831 16.7685 11.2203L11.887 16.1019C10.7497 17.2392 10.1811 17.8078 9.54675 18.0705C8.70096 18.4209 7.75065 18.4209 6.90487 18.0705C6.27053 17.8078 5.7019 17.2392 4.56464 16.1019C3.42738 14.9646 2.85875 14.396 2.596 13.7617C2.24567 12.9159 2.24567 11.9656 2.596 11.1198C2.85875 10.4855 3.42738 9.91683 4.56464 8.77957L9.4462 3.89802Z" stroke="#2450A0" stroke-width="1.5" stroke-linecap="round" stroke-linejoin="round"/>
</svg>
