<svg width="375" height="206" viewBox="0 0 375 206" fill="none" xmlns="http://www.w3.org/2000/svg">
<g filter="url(#filter0_dd_2393_6463)">
<mask id="path-1-inside-1_2393_6463" fill="white">
<path d="M329 10C345.569 10 359 23.4315 359 40V148C359 164.569 345.569 178 329 178H46C29.4315 178 16 164.569 16 148V39C16 22.9837 28.9837 10 45 10C45.9368 10 46.424 11.1377 45.8056 11.8413C38.1462 20.5569 33.5 31.9852 33.5 44.5C33.5 71.8381 55.6619 94 83 94C110.338 94 132.5 71.8381 132.5 44.5C132.5 30.2388 142.41 10 156.671 10H329Z"/>
</mask>
<path d="M329 10C345.569 10 359 23.4315 359 40V148C359 164.569 345.569 178 329 178H46C29.4315 178 16 164.569 16 148V39C16 22.9837 28.9837 10 45 10C45.9368 10 46.424 11.1377 45.8056 11.8413C38.1462 20.5569 33.5 31.9852 33.5 44.5C33.5 71.8381 55.6619 94 83 94C110.338 94 132.5 71.8381 132.5 44.5C132.5 30.2388 142.41 10 156.671 10H329Z" fill="white"/>
<path d="M329 10V9V10ZM359 40H360H359ZM329 178V179V178ZM46 178V179V178ZM16 148H15H16ZM329 10V11C345.016 11 358 23.9837 358 40H359H360C360 22.8792 346.121 9 329 9V10ZM359 40H358V148H359H360V40H359ZM359 148H358C358 164.016 345.016 177 329 177V178V179C346.121 179 360 165.121 360 148H359ZM329 178V177H46V178V179H329V178ZM46 178V177C29.9837 177 17 164.016 17 148H16H15C15 165.121 28.8792 179 46 179V178ZM16 148H17V39H16H15V148H16ZM16 39H17C17 23.536 29.536 11 45 11V10V9C28.4315 9 15 22.4315 15 39H16ZM45.8056 11.8413L45.0545 11.1812C37.241 20.0722 32.5 31.7329 32.5 44.5H33.5H34.5C34.5 32.2374 39.0515 21.0417 46.5568 12.5015L45.8056 11.8413ZM33.5 44.5H32.5C32.5 72.3904 55.1096 95 83 95V94V93C56.2142 93 34.5 71.2858 34.5 44.5H33.5ZM83 94V95C110.89 95 133.5 72.3904 133.5 44.5H132.5H131.5C131.5 71.2858 109.786 93 83 93V94ZM156.671 10V11H329V10V9H156.671V10ZM132.5 44.5H133.5C133.5 37.5679 135.919 29.1246 140.087 22.4306C144.27 15.7117 150.047 11 156.671 11V10V9C149.034 9 142.726 14.4077 138.389 21.3735C134.036 28.3643 131.5 37.1709 131.5 44.5H132.5ZM45 10V11C45.0243 11 45.0307 11.0053 45.0338 11.0075C45.0416 11.0129 45.0567 11.0275 45.0686 11.0549C45.0806 11.0824 45.0831 11.109 45.0806 11.1283C45.0788 11.1428 45.0738 11.1592 45.0545 11.1812L45.8056 11.8413L46.5568 12.5015C47.7099 11.1893 46.8467 9 45 9V10Z" fill="black" fill-opacity="0.07" mask="url(#path-1-inside-1_2393_6463)"/>
</g>
<defs>
<filter id="filter0_dd_2393_6463" x="-3" y="0" width="381" height="206" filterUnits="userSpaceOnUse" color-interpolation-filters="sRGB">
<feFlood flood-opacity="0" result="BackgroundImageFix"/>
<feColorMatrix in="SourceAlpha" type="matrix" values="0 0 0 0 0 0 0 0 0 0 0 0 0 0 0 0 0 0 127 0" result="hardAlpha"/>
<feOffset dy="9"/>
<feGaussianBlur stdDeviation="9.5"/>
<feComposite in2="hardAlpha" operator="out"/>
<feColorMatrix type="matrix" values="0 0 0 0 0 0 0 0 0 0 0 0 0 0 0 0 0 0 0.1 0"/>
<feBlend mode="normal" in2="BackgroundImageFix" result="effect1_dropShadow_2393_6463"/>
<feColorMatrix in="SourceAlpha" type="matrix" values="0 0 0 0 0 0 0 0 0 0 0 0 0 0 0 0 0 0 127 0" result="hardAlpha"/>
<feOffset/>
<feGaussianBlur stdDeviation="0.5"/>
<feComposite in2="hardAlpha" operator="out"/>
<feColorMatrix type="matrix" values="0 0 0 0 0 0 0 0 0 0 0 0 0 0 0 0 0 0 0.16 0"/>
<feBlend mode="normal" in2="effect1_dropShadow_2393_6463" result="effect2_dropShadow_2393_6463"/>
<feBlend mode="normal" in="SourceGraphic" in2="effect2_dropShadow_2393_6463" result="shape"/>
</filter>
</defs>
</svg>
