<svg width="1440" height="765" viewBox="0 0 1440 765" fill="none" xmlns="http://www.w3.org/2000/svg">
<g clip-path="url(#clip0_132_9953)">
<g opacity="0.8">
<path d="M-126.996 2051.45C-126.996 2051.45 103.595 1757.77 245.686 1560.27C387.777 1362.76 647.563 1247.7 1046.01 1225.33C1444.45 1202.96 1214.6 693.997 1392.93 723.881C1571.25 753.765 1093.49 1210.03 1217.75 723.881C1342.01 237.737 1585.28 205.219 1782.78 60.9546C1980.29 -83.3093 1425.56 -9.46009 1425.56 -9.46009" stroke="url(#paint0_linear_132_9953)" stroke-width="3.43485"/>
<path d="M-379.002 1017.65C-421.684 563.605 237.341 884.561 407.964 542.521C578.586 200.481 269.311 215.645 104.477 363.487C-60.3562 511.329 17.0897 770.289 195.417 800.173C373.745 830.057 741.379 882.47 865.636 396.326C989.893 -89.8176 521.135 -44.551 851.344 -369.042C1115.51 -628.636 834.926 -841.612 742.274 -774.684" stroke="url(#paint1_linear_132_9953)" stroke-width="3.43485"/>
<path d="M-366.856 1064.72C-407.505 632.296 231.118 923.984 400.382 588.826C569.646 253.669 287.469 262.631 149.458 402.368C11.4471 542.105 74.2599 764.497 252.587 794.381C430.915 824.265 758.293 895.909 882.549 409.765C1006.81 -76.3786 571.955 -34.816 895.844 -350.725C1156.84 -604.826 863.197 -804.145 774.958 -740.403" stroke="url(#paint2_linear_132_9953)" stroke-width="3.43485"/>
<path d="M-354.71 1111.8C-393.326 701.005 224.896 963.424 392.801 635.15C560.706 306.875 305.627 309.636 194.439 441.267C83.2509 572.899 131.431 758.723 309.758 788.607C488.085 818.491 775.206 909.366 899.463 423.222C1023.72 -62.9216 622.775 -25.0631 940.345 -332.39C1198.16 -580.999 891.469 -766.659 807.641 -706.105" stroke="url(#paint3_linear_132_9953)" stroke-width="3.43485"/>
<path d="M-342.562 1158.92C-379.146 769.74 218.674 1002.89 385.221 681.498C551.767 360.106 323.787 356.666 239.421 480.192C155.056 603.718 188.602 752.975 366.93 782.859C545.257 812.743 792.121 922.848 916.378 436.705C1040.63 -49.4393 673.596 -15.2849 984.847 -314.03C1239.49 -557.147 919.742 -729.149 840.326 -671.781" stroke="url(#paint4_linear_132_9953)" stroke-width="3.43485"/>
<path d="M-330.414 1206.06C-364.966 838.502 212.453 1042.38 377.641 727.874C542.829 413.365 341.946 403.723 284.404 519.144C226.861 634.565 245.774 747.254 424.101 777.138C602.429 807.022 809.036 936.358 933.293 450.215C1057.55 -35.9293 724.417 -5.47891 1029.35 -295.641C1280.82 -533.267 948.015 -691.61 873.011 -637.43" stroke="url(#paint5_linear_132_9953)" stroke-width="3.43485"/>
<path d="M-318.266 1253.24C-350.785 907.303 206.232 1081.92 370.061 774.29C533.89 466.663 360.106 450.82 329.386 558.136C298.666 665.452 302.946 741.572 481.273 771.456C659.601 801.34 825.951 949.907 950.208 463.764C1074.46 -22.3802 775.238 4.36604 1073.85 -277.214C1322.14 -509.348 976.288 -654.033 905.696 -603.04" stroke="url(#paint6_linear_132_9953)" stroke-width="3.43485"/>
<path d="M-306.119 1300.46C-336.605 976.15 200.01 1121.49 362.481 820.751C524.951 520.007 378.265 497.962 374.368 597.173C370.47 696.384 360.117 735.936 538.445 765.82C716.772 795.704 842.865 963.502 967.122 477.358C1091.38 -8.78536 826.058 14.2568 1118.35 -258.741C1363.47 -485.383 1004.56 -616.409 938.38 -568.603" stroke="url(#paint7_linear_132_9953)" stroke-width="3.43485"/>
<path d="M-293.973 1347.75C-322.428 1045.06 193.786 1161.14 354.898 867.276C516.01 573.415 396.422 545.168 419.348 636.274C442.273 727.379 417.287 730.364 595.614 760.248C773.942 790.132 859.778 977.161 984.034 491.017C1108.29 4.87313 876.877 24.2112 1162.85 -240.204C1404.8 -461.354 1032.83 -578.722 971.063 -534.103" stroke="url(#paint8_linear_132_9953)" stroke-width="3.43485"/>
<path d="M-281.831 1395.12C-308.253 1114.05 187.559 1200.86 347.312 913.881C507.066 626.902 414.576 592.454 464.324 675.455C514.072 758.455 474.453 724.872 652.78 754.756C831.108 784.64 876.687 990.9 1000.94 504.756C1125.2 18.6118 927.692 34.2459 1207.35 -221.587C1446.12 -437.246 1061.1 -540.955 1003.74 -499.523" stroke="url(#paint9_linear_132_9953)" stroke-width="3.43485"/>
<path d="M-269.694 1442.6C-294.084 1183.15 181.327 1240.69 339.721 960.596C498.116 680.5 432.725 639.851 509.295 714.746C585.866 789.641 531.614 719.49 709.941 749.374C888.268 779.258 893.591 1004.75 1017.85 518.605C1142.1 32.4609 978.502 44.3909 1251.84 -202.86C1487.43 -413.026 1089.36 -503.078 1036.42 -464.833" stroke="url(#paint10_linear_132_9953)" stroke-width="3.43485"/>
<path d="M-257.567 1490.24C-279.924 1252.41 175.085 1280.68 332.121 1007.47C489.157 734.252 450.864 687.4 554.257 754.191C657.651 820.981 588.765 714.262 767.092 744.146C945.42 774.03 910.485 1018.75 1034.74 532.607C1159 46.4633 1029.3 54.6892 1296.32 -183.98C1528.74 -388.654 1117.61 -465.047 1069.08 -429.989" stroke="url(#paint11_linear_132_9953)" stroke-width="3.43485"/>
<path d="M-245.454 1538.08C-265.779 1321.87 168.829 1320.87 324.506 1054.54C480.183 788.212 468.988 735.159 599.204 793.844C729.42 852.529 645.902 709.242 824.229 739.126C1002.56 769.01 927.364 1032.96 1051.62 546.818C1175.88 60.6744 1080.09 65.1963 1340.79 -164.89C1570.03 -364.073 1145.85 -426.807 1101.73 -394.937" stroke="url(#paint12_linear_132_9953)" stroke-width="3.43485"/>
<path d="M-233.364 1586.22C-251.656 1391.63 162.55 1361.36 316.868 1101.91C471.187 842.467 487.09 783.213 644.129 833.793C801.168 884.373 703.016 704.518 881.343 734.402C1059.67 764.286 944.222 1047.47 1068.48 561.325C1192.74 75.1807 1130.85 75.9984 1385.23 -145.506C1611.3 -339.197 1174.06 -388.273 1134.36 -359.589" stroke="url(#paint13_linear_132_9953)" stroke-width="3.43485"/>
<path d="M-221.308 1634.76C-237.567 1461.79 156.237 1402.26 309.197 1149.69C462.157 897.125 505.158 831.67 689.02 874.144C872.881 916.619 760.096 700.196 938.423 730.08C1116.75 759.964 961.045 1062.38 1085.3 576.234C1209.56 90.09 1181.58 87.2037 1429.64 -125.718C1652.54 -313.917 1202.25 -349.335 1166.95 -323.838" stroke="url(#paint14_linear_132_9953)" stroke-width="3.43485"/>
<path d="M-209.298 1683.84C-223.526 1532.49 149.877 1443.69 301.478 1198.01C453.079 952.327 523.179 880.67 733.863 915.04C944.548 949.409 817.129 696.419 995.457 726.303C1173.78 756.187 977.821 1077.83 1102.08 591.687C1226.33 105.543 1232.26 98.9529 1474 -105.387C1693.73 -288.094 1230.38 -309.853 1199.5 -287.544" stroke="url(#paint15_linear_132_9953)" stroke-width="3.43485"/>
<path d="M-197.35 1733.61C-209.544 1603.89 143.456 1485.82 293.699 1247.02C443.942 1008.22 541.14 930.359 778.647 956.624C1016.15 982.888 874.102 693.33 1052.43 723.214C1230.76 753.098 994.537 1093.97 1118.79 607.829C1243.05 121.685 1282.89 111.391 1518.31 -84.3669C1734.86 -261.582 1258.45 -269.683 1231.98 -250.561" stroke="url(#paint16_linear_132_9953)" stroke-width="3.43485"/>
<path d="M-185.472 1784.21C-195.634 1676.11 136.965 1528.77 285.849 1296.85C434.733 1064.93 559.029 980.875 823.358 999.034C1087.69 1017.19 931.003 691.067 1109.33 720.95C1287.66 750.834 1011.18 1110.94 1135.44 624.797C1259.7 138.653 1333.44 124.654 1562.54 -62.5211C1775.91 -234.244 1286.46 -228.687 1264.4 -212.752" stroke="url(#paint17_linear_132_9953)" stroke-width="3.43485"/>
<path d="M-173.671 1835.73C-181.801 1749.25 130.397 1572.64 277.922 1347.61C425.447 1122.57 576.842 1032.31 867.994 1042.36C1159.15 1052.42 987.829 689.723 1166.16 719.607C1344.48 749.491 1027.75 1128.83 1152.01 642.684C1276.26 156.54 1383.91 138.838 1606.69 -39.7554C1816.89 -205.987 1314.38 -186.771 1296.73 -174.023" stroke="url(#paint18_linear_132_9953)" stroke-width="3.43485"/>
<path d="M-161.942 1888.22C-168.039 1823.36 123.757 1617.48 269.923 1399.33C416.09 1181.18 594.582 1084.72 912.558 1086.67C1230.53 1088.61 1044.58 689.352 1222.91 719.236C1401.24 749.12 1044.25 1147.69 1168.5 661.544C1292.76 175.4 1434.31 153.993 1650.78 -16.0176C1857.8 -176.757 1342.24 -143.883 1329 -134.322" stroke="url(#paint19_linear_132_9953)" stroke-width="3.43485"/>
<path d="M-150.271 1941.69C-154.336 1898.45 117.058 1663.31 261.866 1452.04C406.675 1240.77 612.265 1138.1 957.063 1131.95C1301.86 1125.79 1101.28 689.961 1279.6 719.845C1457.93 749.729 1060.68 1167.53 1184.94 681.384C1309.2 195.24 1484.66 170.129 1694.8 8.70086C1898.65 -146.547 1370.03 -100.014 1361.21 -93.6402" stroke="url(#paint20_linear_132_9953)" stroke-width="3.43485"/>
<path d="M-138.635 1996.12C-140.668 1974.5 110.325 1710.08 253.774 1505.7C397.224 1301.31 629.912 1192.44 1001.53 1178.18C1373.15 1163.92 1157.94 691.524 1336.26 721.408C1514.59 751.292 1077.09 1188.32 1201.34 702.177C1325.6 216.033 1534.97 187.218 1738.79 34.372C1939.47 -115.384 1397.79 -55.193 1393.38 -52.0059" stroke="url(#paint21_linear_132_9953)" stroke-width="3.43485"/>
</g>
</g>
<defs>
<linearGradient id="paint0_linear_132_9953" x1="1281.96" y1="152.332" x2="869.357" y2="1026.93" gradientUnits="userSpaceOnUse">
<stop offset="0.31" stop-opacity="0.04"/>
<stop offset="0.634615" stop-opacity="0"/>
</linearGradient>
<linearGradient id="paint1_linear_132_9953" x1="626.506" y1="-609.342" x2="240.561" y2="89.294" gradientUnits="userSpaceOnUse">
<stop offset="0.31" stop-opacity="0.04"/>
<stop offset="0.634615" stop-opacity="0"/>
</linearGradient>
<linearGradient id="paint2_linear_132_9953" x1="641.227" y1="-575.254" x2="251.014" y2="127.042" gradientUnits="userSpaceOnUse">
<stop offset="0.31" stop-opacity="0.04"/>
<stop offset="0.634615" stop-opacity="0"/>
</linearGradient>
<linearGradient id="paint3_linear_132_9953" x1="671.49" y1="-539.317" x2="280.638" y2="171.153" gradientUnits="userSpaceOnUse">
<stop offset="0.31" stop-opacity="0.04"/>
<stop offset="0.634615" stop-opacity="0"/>
</linearGradient>
<linearGradient id="paint4_linear_132_9953" x1="702.976" y1="-503.23" x2="311.736" y2="215.682" gradientUnits="userSpaceOnUse">
<stop offset="0.31" stop-opacity="0.04"/>
<stop offset="0.634615" stop-opacity="0"/>
</linearGradient>
<linearGradient id="paint5_linear_132_9953" x1="734.546" y1="-467.131" x2="342.9" y2="260.162" gradientUnits="userSpaceOnUse">
<stop offset="0.31" stop-opacity="0.04"/>
<stop offset="0.634615" stop-opacity="0"/>
</linearGradient>
<linearGradient id="paint6_linear_132_9953" x1="766.198" y1="-431.018" x2="374.124" y2="304.602" gradientUnits="userSpaceOnUse">
<stop offset="0.31" stop-opacity="0.04"/>
<stop offset="0.634615" stop-opacity="0"/>
</linearGradient>
<linearGradient id="paint7_linear_132_9953" x1="797.928" y1="-394.892" x2="405.401" y2="349.005" gradientUnits="userSpaceOnUse">
<stop offset="0.31" stop-opacity="0.04"/>
<stop offset="0.634615" stop-opacity="0"/>
</linearGradient>
<linearGradient id="paint8_linear_132_9953" x1="829.734" y1="-358.749" x2="436.724" y2="393.381" gradientUnits="userSpaceOnUse">
<stop offset="0.31" stop-opacity="0.04"/>
<stop offset="0.634615" stop-opacity="0"/>
</linearGradient>
<linearGradient id="paint9_linear_132_9953" x1="861.614" y1="-322.591" x2="468.084" y2="437.737" gradientUnits="userSpaceOnUse">
<stop offset="0.31" stop-opacity="0.04"/>
<stop offset="0.634615" stop-opacity="0"/>
</linearGradient>
<linearGradient id="paint10_linear_132_9953" x1="893.564" y1="-286.413" x2="499.47" y2="482.087" gradientUnits="userSpaceOnUse">
<stop offset="0.31" stop-opacity="0.04"/>
<stop offset="0.634615" stop-opacity="0"/>
</linearGradient>
<linearGradient id="paint11_linear_132_9953" x1="925.582" y1="-250.209" x2="530.869" y2="526.452" gradientUnits="userSpaceOnUse">
<stop offset="0.31" stop-opacity="0.04"/>
<stop offset="0.634615" stop-opacity="0"/>
</linearGradient>
<linearGradient id="paint12_linear_132_9953" x1="957.665" y1="-213.978" x2="562.259" y2="570.853" gradientUnits="userSpaceOnUse">
<stop offset="0.31" stop-opacity="0.04"/>
<stop offset="0.634615" stop-opacity="0"/>
</linearGradient>
<linearGradient id="paint13_linear_132_9953" x1="989.813" y1="-177.708" x2="593.618" y2="615.328" gradientUnits="userSpaceOnUse">
<stop offset="0.31" stop-opacity="0.04"/>
<stop offset="0.634615" stop-opacity="0"/>
</linearGradient>
<linearGradient id="paint14_linear_132_9953" x1="1022.02" y1="-141.391" x2="624.911" y2="659.921" gradientUnits="userSpaceOnUse">
<stop offset="0.31" stop-opacity="0.04"/>
<stop offset="0.634615" stop-opacity="0"/>
</linearGradient>
<linearGradient id="paint15_linear_132_9953" x1="1054.29" y1="-105.009" x2="656.099" y2="704.69" gradientUnits="userSpaceOnUse">
<stop offset="0.31" stop-opacity="0.04"/>
<stop offset="0.634615" stop-opacity="0"/>
</linearGradient>
<linearGradient id="paint16_linear_132_9953" x1="1086.62" y1="-68.5509" x2="687.14" y2="749.697" gradientUnits="userSpaceOnUse">
<stop offset="0.31" stop-opacity="0.04"/>
<stop offset="0.634615" stop-opacity="0"/>
</linearGradient>
<linearGradient id="paint17_linear_132_9953" x1="1119" y1="-32" x2="718" y2="795" gradientUnits="userSpaceOnUse">
<stop offset="0.31" stop-opacity="0.04"/>
<stop offset="0.634615" stop-opacity="0"/>
</linearGradient>
<linearGradient id="paint18_linear_132_9953" x1="1151.44" y1="4.65089" x2="748.656" y2="840.642" gradientUnits="userSpaceOnUse">
<stop offset="0.31" stop-opacity="0.04"/>
<stop offset="0.634615" stop-opacity="0"/>
</linearGradient>
<linearGradient id="paint19_linear_132_9953" x1="1183.95" y1="41.4089" x2="779.101" y2="886.652" gradientUnits="userSpaceOnUse">
<stop offset="0.31" stop-opacity="0.04"/>
<stop offset="0.634615" stop-opacity="0"/>
</linearGradient>
<linearGradient id="paint20_linear_132_9953" x1="1216.53" y1="78.2772" x2="809.348" y2="933.04" gradientUnits="userSpaceOnUse">
<stop offset="0.31" stop-opacity="0.04"/>
<stop offset="0.634615" stop-opacity="0"/>
</linearGradient>
<linearGradient id="paint21_linear_132_9953" x1="1249.19" y1="115.251" x2="839.419" y2="979.803" gradientUnits="userSpaceOnUse">
<stop offset="0.31" stop-opacity="0.04"/>
<stop offset="0.634615" stop-opacity="0"/>
</linearGradient>
<clipPath id="clip0_132_9953">
<rect width="799" height="699" fill="white" transform="translate(641)"/>
</clipPath>
</defs>
</svg>
