<?xml version="1.0" encoding="UTF-8"?>
<svg id="Layer_1" data-name="Layer 1" xmlns="http://www.w3.org/2000/svg" viewBox="0 0 250 250">
  <defs>
    <style>
      .cls-1 {
        fill: #2450a0;
        stroke-width: 0px;
      }
    </style>
  </defs>
  <path class="cls-1" d="M125.13,78.52c6.97-13.98,17.84-23.23,33.54-25.99,22.36-3.93,44.91,11.27,49.88,33.42,4.22,18.8-.96,35.64-11.24,51.2-11.46,17.35-26.67,31.13-43.08,43.6-6.96,5.29-14.4,9.97-21.68,14.83-5.24,3.51-10.58,3.44-15.89.03-22.03-14.16-42.63-30.02-59.16-50.58-8.63-10.74-15.34-22.64-16.99-36.56-2.29-19.41,2.45-36.66,18.54-49,15.94-12.22,40.28-9.48,55.61,5.88,3.93,3.94,6.99,8.75,10.46,13.17Z"/>
</svg>