<?xml version="1.0" encoding="UTF-8"?>
<svg id="Layer_1" data-name="Layer 1" xmlns="http://www.w3.org/2000/svg" viewBox="0 0 250 250">
  <defs>
    <style>
      .cls-1, .cls-2 {
        stroke-width: 0px;
      }

      .cls-2 {
        fill: #e3e3e3;
      }
    </style>
  </defs>
  <path class="cls-2" d="M152.15,220.5h-54.3c-37.69,0-68.35-30.66-68.35-68.35v-54.3c0-37.69,30.66-68.35,68.35-68.35h54.3c37.69,0,68.35,30.66,68.35,68.35v54.3c0,37.69-30.66,68.35-68.35,68.35ZM97.85,38.85c-32.53,0-59,26.47-59,59v54.3c0,32.53,26.47,59,59,59h54.3c32.53,0,59-26.47,59-59v-54.3c0-32.53-26.47-59-59-59h-54.3Z"/>
  <path class="cls-1" d="M125.22,95.14c4.91-4.08,10.4-6.61,16.69-6.99,19.66-1.18,33.58,18.63,25.58,36.88-2.22,5.06-5.76,9.74-9.47,13.9-7.5,8.4-16.56,15.01-26.18,20.86-5.25,3.19-10.24,3.14-15.12-.64-7.06-5.47-14.3-10.73-21.11-16.5-7.48-6.35-13.15-14.11-14.9-24.04-1.92-10.85,1.6-19.78,10.82-25.88,9.56-6.33,19.54-6.29,29.45-.52,1.36.79,2.6,1.8,4.24,2.94ZM125.26,105.85c-1.26-1.49-2.3-2.79-3.42-4.03-6.75-7.47-17.12-9.1-25.6-4.05-8.32,4.96-11.23,14.09-7.59,23.94,2.59,7.01,7.33,12.47,12.99,17.09,6.13,5,12.57,9.63,18.77,14.55,2.81,2.23,5.51,2.43,8.3.27,7.76-6.01,15.86-11.66,23.07-18.28,4.04-3.7,7.34-8.69,9.62-13.72,4.11-9.06-.06-19.61-8.72-24.5-7.92-4.47-18.75-2.1-24.76,5.4-.83,1.04-1.67,2.07-2.67,3.32Z"/>
</svg>