<?xml version="1.0" encoding="UTF-8"?>
<svg id="Layer_1" data-name="Layer 1" xmlns="http://www.w3.org/2000/svg" viewBox="0 0 250 250">
  <defs>
    <style>
      .cls-1 {
        fill: #e3e3e3;
      }

      .cls-1, .cls-2 {
        stroke-width: 0px;
      }

      .cls-2 {
        fill: red;
      }
    </style>
  </defs>
  <path class="cls-1" d="M152.4,220.31h-54.3c-37.69,0-68.35-30.66-68.35-68.35v-54.3c0-37.69,30.66-68.35,68.35-68.35h54.3c37.69,0,68.35,30.66,68.35,68.35v54.3c0,37.69-30.66,68.35-68.35,68.35ZM98.1,38.66c-32.53,0-59,26.47-59,59v54.3c0,32.53,26.47,59,59,59h54.3c32.53,0,59-26.47,59-59v-54.3c0-32.53-26.47-59-59-59h-54.3Z"/>
  <path class="cls-2" d="M125.32,99.8c3.75-7.52,9.6-12.5,18.05-13.98,12.03-2.11,24.16,6.07,26.84,17.98,2.27,10.12-.52,19.18-6.05,27.55-6.17,9.33-14.35,16.75-23.18,23.46-3.75,2.85-7.75,5.36-11.66,7.98-2.82,1.89-5.69,1.85-8.55.02-11.85-7.62-22.94-16.15-31.83-27.22-4.65-5.78-8.25-12.18-9.14-19.67-1.23-10.44,1.32-19.72,9.98-26.36,8.57-6.58,21.67-5.1,29.92,3.16,2.11,2.12,3.76,4.71,5.63,7.09Z"/>
</svg>