<?xml version="1.0" encoding="UTF-8"?>
<svg id="Layer_1" data-name="Layer 1" xmlns="http://www.w3.org/2000/svg" viewBox="0 0 250 250">
  <defs>
    <style>
      .cls-1 {
        fill: #2450a0;
      }

      .cls-1, .cls-2 {
        fill-rule: evenodd;
        stroke-width: 0px;
      }
    </style>
  </defs>
  <path class="cls-2" d="M125,82c-15.83,0-28.67,12.83-28.67,28.67s12.83,28.67,28.67,28.67,28.67-12.83,28.67-28.67-12.83-28.67-28.67-28.67ZM125,96.33c-7.92,0-14.33,6.42-14.33,14.33s6.42,14.33,14.33,14.33,14.33-6.42,14.33-14.33-6.42-14.33-14.33-14.33Z"/>
  <path class="cls-1" d="M118.48,200.94c.83.57,1.49,1.01,1.95,1.31l.76.49c2.33,1.46,5.28,1.46,7.61,0l.77-.49c.46-.3,1.12-.74,1.95-1.31,1.66-1.14,4-2.81,6.8-4.96,5.59-4.29,13.05-10.55,20.54-18.42,14.77-15.53,30.64-38.42,30.64-65.59,0-17.4-6.76-34.12-18.83-46.47-12.08-12.36-28.51-19.33-45.66-19.33s-33.58,6.97-45.66,19.33c-12.08,12.35-18.83,29.07-18.83,46.47,0,27.17,15.87,50.05,30.64,65.59,7.49,7.87,14.95,14.13,20.54,18.42,2.8,2.15,5.14,3.82,6.8,4.96ZM125,60.5c-13.25,0-25.99,5.38-35.42,15.02-9.43,9.64-14.75,22.75-14.75,36.45,0,21.63,12.8,41.1,26.69,55.71,6.85,7.2,13.72,12.97,18.88,16.93,1.76,1.35,3.31,2.49,4.59,3.4,1.28-.91,2.83-2.04,4.59-3.4,5.16-3.97,12.03-9.73,18.88-16.93,13.9-14.61,26.69-34.07,26.69-55.71,0-13.7-5.32-26.81-14.75-36.45-9.42-9.63-22.16-15.02-35.42-15.02Z"/>
</svg>