<?xml version="1.0" encoding="UTF-8"?>
<svg id="Layer_1" data-name="Layer 1" xmlns="http://www.w3.org/2000/svg" viewBox="0 0 250 250">
  <defs>
    <style>
      .cls-1 {
        fill: #a6b9d9;
      }

      .cls-1, .cls-2, .cls-3 {
        stroke-width: 0px;
      }

      .cls-2 {
        fill: #2450a9;
      }

      .cls-3 {
        fill: #23519f;
      }
    </style>
  </defs>
  <g>
    <path class="cls-3" d="M80.06,150.44c-2.6,7.57.1,16.12,7.01,20.16,4.28,2.5,9.57,3.11,14.5.79,12.21-5.73,24.01-12.35,35.91-18.72,3.1-1.66,3.56-4.29,1.84-8.16-4.74-10.69-9.55-21.35-14.34-32.02-3.86-8.58-7.66-17.18-11.63-25.7-2.2-4.74-13.42-10.17-19.24-9.56-7.38.78-13.65,5.89-14.76,13.29-.54,3.58.29,7.68,1.59,11.13,1.98,5.28,4.87,10.22,7.44,15.27,2.58,5.07,2.56,11.08.01,16.16-2.56,5.11-5.2,10.19-7.56,15.39-.29.65-.55,1.31-.78,1.98Z"/>
    <path class="cls-1" d="M170.91,125.1c-.39-6.65-3.38-11.59-9.17-14.68-8.71-4.66-17.41-9.35-26.28-13.7-1.6-.78-4.28-.57-5.93.26-2.27,1.14-2.56,3.74-1.52,6.06,5.78,12.99,11.58,25.97,17.52,38.88,1.35,2.93,3.99,3.92,6.98,2.47,4-1.95,8.03-3.93,11.74-6.37,4.55-2.99,6.33-7.7,6.66-12.92Z"/>
  </g>
  <path class="cls-2" d="M202.03,232.5H47.97c-24.8,0-44.97-20.17-44.97-44.97V62.47c0-24.8,20.17-44.97,44.97-44.97h154.05c24.8,0,44.97,20.18,44.97,44.97v125.05c0,24.8-20.17,44.97-44.97,44.97ZM47.97,22.5c-22.04,0-39.97,17.93-39.97,39.97v125.05c0,22.04,17.93,39.97,39.97,39.97h154.05c22.04,0,39.97-17.93,39.97-39.97V62.47c0-22.04-17.93-39.97-39.97-39.97H47.97Z"/>
</svg>