<?xml version="1.0" encoding="UTF-8"?>
<svg id="Layer_1" data-name="Layer 1" xmlns="http://www.w3.org/2000/svg" viewBox="0 0 64 50">
  <path d="M6.33,11.73l4.6,12.2,12.15.21c.88.38.84,3.61.43,3.91-.15.11-.45.1-.65.1l1.3,9.75h-2.39s-1.29-9.66-1.29-9.66l-9.12-.1-1.28,9.63-2.41.12c.5-4.17,1.72-8.45,1.05-12.65s-3.29-8.34-4.37-12.32c-.47-1.74.58-1.66,1.97-1.21Z"/>
  <path d="M59.68,11.7c.17.27-.05.91-.13,1.23-.97,3.97-3.72,8.26-4.37,12.32s.62,8.52,1.06,12.65l-2.36-.02-1.33-9.73-9.07.03-1.33,9.73h-2.39s1.31-9.64,1.31-9.64l-.6-.15c-.27-1.38-.81-3.86,1.13-4.08,1.85-.21,10.62.36,11.39-.1l4.57-11.9c.24-.65,1.88-.69,2.11-.32Z"/>
  <path d="M33.05,20.99v15.93c.31.65,2.22.16,2.39.32v1.3h-6.94v-1.3c.16-.17,2.07.32,2.38-.32v-15.93c-2.96-.23-6.29.28-9.22,0s-3.01-3.47-.44-3.7c6.95-.62,14.84.47,21.89.02,2.18.39,1.63,3.67-.42,3.67h-9.65Z"/>
</svg>