<?xml version="1.0" encoding="UTF-8"?>
<svg id="Layer_1" data-name="Layer 1" xmlns="http://www.w3.org/2000/svg" viewBox="0 0 64 50">
  <path d="M27.89.69l8.29.02c.33.11.36.47.39.78l.02,11.35,4.98,4.54c.1.21.09,2.51,0,2.72-.04.09-.16.18-.24.24h-18.65c-.08-.07-.2-.15-.24-.24-.09-.21-.09-2.51,0-2.72l4.98-4.54.02-11.35c.03-.34.06-.72.46-.8ZM39.48,17.09c.04-.19-.07-.19-.16-.27-1.3-1.19-2.71-2.3-3.92-3.56V1.89l-.15-.15h-6.51l-.15.15v11.37c-.99,1.09-2.19,2.03-3.3,3.01l-.78.83h3.74c.5,0,.36,1.07,0,1.07h-4.71v1.17h16.91v-1.17h-9.76c-.49,0-.4-1.07-.1-1.07h8.89Z"/>
  <path d="M24.62.66v13.52s-16.92,0-16.92,0V.67s16.92,0,16.92,0ZM15.58,1.74h-6.8v11.37h6.8V1.74ZM23.55,1.74h-6.8v11.37h6.8V1.74Z"/>
  <path d="M18.28,8.42c-.16.16-.6.15-.79.03-.24-.15-.47-2.59.61-2.09.42.19.38,1.85.17,2.06Z"/>
  <path d="M14.05,8.42c-.18-.52-.39-2.38.59-2.1.47.14.46,1.61.35,1.96-.1.3-.71.32-.93.14Z"/>
  <path d="M56.3.66v13.52s-16.92,0-16.92,0V.67s16.92,0,16.92,0ZM47.26,1.74h-6.8v11.37h6.8V1.74ZM55.22,1.74h-6.8v11.37h6.8V1.74Z"/>
  <path d="M46.55,8.42c-.16.16-.6.15-.79.03-.24-.15-.47-2.59.61-2.09.42.19.38,1.85.17,2.06Z"/>
  <path d="M49.13,6.43c.25-.25.83-.12.93.24.06.19.06,1.22.02,1.43-.1.54-.92.56-1.05.18-.07-.22-.05-1.7.1-1.86Z"/>
  <path d="M54.64,30.01c.42.04,1.29-.14,1.56.24l.09,12.34c-.16.53-.71.58-1.07.2v-5.83l-.15-.15h-5.59v9.04h5.73v-1.41c.36-.38.91-.33,1.07.2v4.17s-.44.44-.44.44H20.68c-.65-.03-.75-1-.1-1.07l34.55-.04.09-1.12H8.78c.05.26-.14,1.06.16,1.15l8.74.1c.22.25.26.57.04.83-.15.14-.34.13-.53.15-2.84.26-6.07-.21-8.95,0l-.48-.3-.06-18.41c-.07-.19.32-.53.44-.53h3.74c-1-1.19-.88-2.91-.66-4.35.3-.3,1.93,0,2.43-.14.28-.08,1.21-1.27,1.57-1.53.48-.34,1.01-.05.93.53-.05.32-.74.71-.88,1.03h2.19c.57,0,.46,1.7.44,2.09-.06.87-.3,1.72-.87,2.38h6.8c-.44-.67-.26-1.48-.29-2.24-1.6.26-1.5-1.34,0-1.16l.12-.95c.15-.11.33-.11.51-.12,1.39-.12,4.07-.13,5.45,0,.73.07.72.41.72,1.07,1.43-.17,1.46,1.4,0,1.17.05.76-.05,1.51-.29,2.24h3.69c-.03-.69-.45-2.6.46-2.8l7.94-.02c.9.15.47,1.16.2,1.16h-1.89v1.51s-.12.07-.1.15h13.12v-5.2c0-.3-.59-.62-.93-.25-.48.53,0,1.79-.43,2h-.68c-.64-1.52-.02-3.75,2.04-3.21.44.11,1.16.92,1.16,1.36v5.3ZM12.33,26.61c-.21,0-.16.92-.14,1.12.25,3.09,4.22,2.98,4.55.28.05-.38.09-1.1-.13-1.4h-4.27ZM24.76,26.61l-.15.15v2.23c0,.49.53.96,1.02,1.02s2.38.07,2.8-.02c.25-.06.75-.6.75-.81v-2.43l-.15-.15h-4.27ZM39.39,28.36h-4.57c.07.7-.32,1.57.63,1.66,1.12.11,2.44-.08,3.58-.02.52-.16.33-1.22.36-1.63ZM21.22,31.18h-12.44v6.8h12.44v-6.8ZM41.62,31.18h-19.24v14.67h2.23v-9.67c0-.12.34-.51.53-.44l13.88.02c.25.11.33.36.36.61.09.77.1,3.03,0,3.78-.14,1-1.16.6-1.16.2v-3.55h-12.44v6.8h12.44c.02-.64-.26-1.96.81-1.63.11.03.36.35.36.42v3.45h2.23v-14.67ZM55.22,31.18h-12.44v4.57h12.44v-4.57ZM42.79,36.81v9.04h5.64v-9.04h-5.64ZM8.78,39.05v6.8h12.44v-6.8h-12.44ZM38.22,44.78h-12.44v1.07h12.44v-1.07Z"/>
  <path d="M50.53,40.23c1.16-.21.91,2.93-.23,2.13-.36-.25-.44-2.01.23-2.13Z"/>
  <path d="M13.81,34.02c.31-.07,2.17-.07,2.48,0,.63.14.61,1.03-.08,1.14-.37.06-2.06.06-2.4-.01-.6-.14-.6-.99,0-1.12Z"/>
  <path d="M48.4,32.85c.54-.1,2.06-.11,1.63.85-.18.4-1.57.38-1.89.24-.5-.22-.38-.97.26-1.09Z"/>
  <path d="M47.13,40.23c1-.18.84,1.91.47,2.13-1.17.7-1.25-1.99-.47-2.13Z"/>
  <path d="M13.47,42.08c.11-.11.36-.11.51-.12.48-.04,1.91-.07,2.33,0,.61.11.53.96,0,1.06-.31.06-2.21.06-2.52,0-.41-.08-.6-.66-.32-.95Z"/>
  <path d="M28.38,38l7.37.07c.39.37.24.91-.29.98-2.07.28-4.77-.22-6.91,0-.59-.07-.7-.77-.17-1.05Z"/>
  <path d="M38.22,33.44c0,.94-.76,1.7-1.7,1.7s-1.7-.76-1.7-1.7.76-1.7,1.7-1.7,1.7.76,1.7,1.7ZM37.08,33.43c0-.31-.25-.56-.56-.56s-.56.25-.56.56.25.56.56.56.56-.25.56-.56Z"/>
  <path d="M29.18,33.45c0,.94-.76,1.7-1.7,1.7s-1.7-.76-1.7-1.7.76-1.7,1.7-1.7,1.7.76,1.7,1.7ZM28.04,33.43c0-.31-.25-.56-.56-.56s-.56.25-.56.56.25.56.56.56.56-.25.56-.56Z"/>
  <path d="M33.69,33.44c0,.93-.76,1.69-1.69,1.69s-1.69-.76-1.69-1.69.76-1.69,1.69-1.69,1.69.76,1.69,1.69ZM32.55,33.45c0-.31-.25-.56-.56-.56s-.56.25-.56.56.25.56.56.56.56-.25.56-.56Z"/>
</svg>