<?xml version="1.0" encoding="UTF-8"?>
<svg id="Layer_1" data-name="Layer 1" xmlns="http://www.w3.org/2000/svg" viewBox="0 0 48 37.5">
  <path d="M45.48,25.46c-2.09,3.03-6.39,3.47-8.95.76-.38.25-.68.6-1.06.85-1.89,1.25-4.17,1.27-6.1.1-.44-.27-.85-.6-1.22-.96-2.24,2.41-6.07,2.4-8.31,0-2.29,2.37-6.05,2.43-8.32,0-.41.28-.73.65-1.16.92-1.65,1.04-3.7,1.18-5.47.35-.6-.28-2.38-1.55-2.38-2.24,0-.21.2-.55.4-.61.67-.2.86.47,1.24.83,1.7,1.59,4.23,1.77,6.04.25.12-.1.58-.53.61-.64l.02-4.76c0-.77,1.13-.9,1.25-.17l.02,4.84c.43.55.98.98,1.58,1.32V9.22c0-4.13,5.45-6.23,8.27-2.98.42.49,1.13,1.76,1.13,2.39v5.33h1.59v-5.41c0-1.37-1.43-3.48-2.52-4.27-4.31-3.15-9.76-.15-10.06,5.02-.17,2.82.13,5.81,0,8.64-.18.71-1.26.42-1.26-.17v-2.56H2.98c-.49,0-.56-1.26.17-1.26h7.68c.11-2.83-.46-5.79.99-8.36C14.89.16,22.75.66,25.3,6.24c2.54-5.53,10.29-6.08,13.42-.75.43.73,1.06,2.31,1.06,3.14v5.33h5.16c.09,0,.48.3.55.42v.42l-.29.34c-5.35.18-10.75.03-16.12.07l-.29.13v9.65c1.63,2.01,4.39,2.39,6.42.71.31-.26.88-1.05,1.18-1.09.6-.08.93.67,1.38,1.05,1.9,1.6,4.34,1.39,6.13-.25.51-.47.81-1.41,1.59-.38v.42ZM38.52,13.96v-5.24c0-.66-.56-2.03-.91-2.62-2.33-3.96-8.1-4.12-10.62-.27-.44.67-1.06,2.18-1.06,2.97v17.49c.39-.17,1.52-.92,1.59-1.3v-15.78c.39-5.34,7.54-6.25,9.15-1.43.22.66.7,3.13-.53,2.88-.69-.14-.44-1.12-.48-1.62-.29-3.06-4.06-4.31-6.04-1.93-.34.41-.84,1.41-.84,1.93v4.91h6.88v-1.55c0-.2.41-.47.63-.47s.63.27.63.47v1.55h1.59ZM21.82,13.96v-5.24c0-.55-.82-1.74-1.27-2.09-2.22-1.73-5.61-.16-5.61,2.68v4.66h6.88ZM24.67,15.22h-9.73v3.19h9.73v-3.19ZM24.67,19.67h-9.73v1.76h9.73v-1.76ZM24.67,22.69h-9.73v4.03c1.26.15,2.48-.12,3.48-.92.55-.44,1.1-1.6,1.85-1.01.2.16.42.54.67.76.99.91,2.4,1.37,3.74,1.17v-4.03Z"/>
  <path d="M23.73,32.35c.72-.21.97.53,1.45.95,1.73,1.52,4.17,1.54,5.92.04.35-.3.76-.98,1.17-1.01.58-.04.78.56,1.14.88,1.84,1.66,4.44,1.69,6.24-.03.4-.38.71-1.19,1.42-.75.85.54-.81,1.93-1.26,2.24-2.39,1.66-5.41,1.29-7.45-.73-2.32,2.32-6.03,2.39-8.32,0-.4.36-2.11,1.85-2.29.62-.1-.68.64-.85,1.09-1.25.22-.2.73-.9.9-.95Z"/>
  <path d="M20.29,34.62c.36.33.16,1.01-.35,1.07-1.54.2-3.19-.76-4.28-1.75-2.04,2.01-5.06,2.39-7.45.73-.45-.31-2.21-1.81-1.21-2.27.73-.34,1,.45,1.45.86,1.88,1.69,4.42,1.56,6.25-.12.37-.34.46-.9,1.12-.8.33.05.92.9,1.27,1.17.54.42,1.29.75,1.97.89.33.07.99,0,1.24.23Z"/>
</svg>