<?xml version="1.0" encoding="UTF-8"?>
<svg id="Layer_1" data-name="Layer 1" xmlns="http://www.w3.org/2000/svg" viewBox="0 0 64 50">
  <path d="M28.46,8.37c-1.09,1.12-2.23-.83-3.02-1.32-.54.37-1.26,1.5-1.89,1.63-.98.19-1.65-.89-1.05-1.74.22-.31,2.03-2.12,2.34-2.33.59-.41,1.06-.22,1.56.19.4.33,1.94,1.84,2.16,2.23.24.43.27.97-.1,1.35Z"/>
  <path d="M35.97,4.44c1.12-.29,1.75,1.04,2.51,1.63.75-.63,1.7-2.24,2.82-1.46.64.45.53,1.1.1,1.66-.32.42-1.73,1.83-2.15,2.14-.58.43-.95.38-1.51-.05-.31-.24-2.17-2.09-2.32-2.35-.31-.56-.1-1.4.55-1.57Z"/>
  <circle cx="51.51" cy="22.79" r="1.07"/>
  <circle cx="51.51" cy="27.13" r="1.07"/>
  <path d="M56.05.03c.63.25.82.53.88,1.21l-.03,47.7c-.13.69-.54.89-1.19.95-2.73.24-5.81-.19-8.58,0-.29.04-1.02-.49-1.02-.73v-1.41h-28.24v1.41c0,.24-.73.77-1.02.73-2.77-.19-5.85.24-8.58,0-.68-.06-.96-.25-1.21-.88V.91c.21-.5.37-.67.88-.88h48.11ZM54.79,2.17H9.21v45.58h6.53V11.76c0-.23.44-.81.74-.82,10.3-.19,20.67-.14,30.98-.02.33,0,.81.58.81.84v35.99h6.53V2.17ZM30.93,13.08h-13.05v32.43h13.05V13.08ZM46.12,13.08h-13.05v32.43h13.05V13.08Z"/>
</svg>