<?xml version="1.0" encoding="UTF-8"?>
<svg id="Layer_1" data-name="Layer 1" xmlns="http://www.w3.org/2000/svg" viewBox="0 0 64 50">
  <circle cx="43.66" cy="32.93" r=".74"/>
  <path d="M55.34,47.8c-.18.22-.29.4-.6.45-.86.14-3.54.09-4.47,0-.26-.02-.77-.21-.77-.51v-3.15h-5.61c-.31,0-1.15-.39-1.44-.57-1.33-.82-1.85-2.31-1.71-3.81-1.19.11-2.1-.19-2.19-1.5-.04-.61-.08-2.37.17-2.85.4-.78,1.25-.81,2.02-.76-.81-1.11-.9-2.37-.46-3.65-2.08.08-3.63-1.47-3.92-3.47l-16.29,4.19c-2.55.21-4.86-4.16-5.71-6.13-1.39-3.23-2.23-6.88-2.37-10.4-.51-.39-1.07-.55-1.58-.98-.69-.57-1.11-1.32-1.39-2.17-.21-.63-.77-2.14.13-2.37l13.43-3.4c.09-.09-.63-2.11-.53-2.58.08-.37.5-.46.8-.57,1.7-.59,3.72-.82,5.45-1.4,1.03-.09,1.1,1.92,1.3,2.63,3.82-.75,7.53-2.04,11.33-2.86,3.1-.67,5.94-.35,8.64,1.36,3.2,2.03,4.65,5.2,5.3,8.84-.04.96-1.98.88-2.65,1.24.3,1.87,1.22,3.68,1.09,5.6-.2,3.03-2.64,5.67-5.65,6.07.71,1.92.11,4.08-1.82,4.93.14.17.34.27.5.45,1.18,1.34,1.29,3.19.23,4.65.74-.04,1.51-.05,1.96.64.05.07.23.46.23.5v2.51h1.69c.17,0,.56-.46.5-.68l.04-10.54c.1-.24.3-.4.56-.45.6-.09,2.36-.07,3.01,0,.41.04.53.13.77.46v20.25ZM53.24,11.68c-.73-5.81-6.37-9.86-12.12-8.24l-30.85,7.92c.21,1.9,1.57,3.08,3.52,2.87,4.99-1,10.12-2.97,15.09-3.88,1.76-.32,3.34.14,4.47,1.56,1.02,1.28.79,3.08,2.72,3.67,1.75.53,4.73-1,6.57-1.23,1.18-.15,1.46,1.06.34,1.44-1.2.41-4.11,1.2-5.32,1.34-1.9.22-3.68-.59-4.57-2.31-.55-1.08-.41-1.94-1.63-2.66s-2.1-.43-3.4-.11c-.08.09.72,1.87.82,2.14,1.33,3.69,2.31,8.38,1.7,12.29-.09.55-.27,1.08-.38,1.62l18.59-4.85c1.47-.64,2.63-2.04,2.95-3.62.4-1.99-.57-3.84-.93-5.77l-.1-.08c-1.23.68-2.21-.78-.82-1.29,1.01-.37,2.28-.54,3.33-.82ZM27.91,3.82l-4.3,1.06.36,1.47,4.3-1.06-.36-1.47ZM26.59,12.51l-6.37,1.54c1.07,2.35,1.87,4.83,2.33,7.39.42,2.36.67,5.22.18,7.58-.08.37-.24.72-.32,1.09l5.6-1.47c.83-.39,1.14-2.11,1.24-2.96.22-1.85.01-3.89-.3-5.72-.43-2.56-1.28-5.11-2.36-7.45ZM18.84,14.52c-.14-.09-1.09.19-1.31.26-.1.03-.16-.07-.14.14.03.25.38.77.5,1.05.9,2.16,1.62,4.58,1.95,6.9.18,1.29.43,3.46.18,4.71-.15.76-.9.82-1.38.24-1.38-1.65-2.63-5.53-3.11-7.65-.35-1.53-.53-3.08-.69-4.65l-1.36.17c.07,2.78.71,5.64,1.64,8.26.63,1.77,1.64,4,2.87,5.43.67.78,1.87,2.01,2.73.81,1.26-1.76.77-6.5.39-8.59-.45-2.45-1.25-4.82-2.26-7.08ZM18.58,24.63c-.22-2.35-.76-4.67-1.55-6.89l-.64-1.41c.21,2.28.72,4.53,1.48,6.68l.71,1.62ZM46.3,25.55l-8.42,2.08c-.11,1.17.88,2.34,2.09,2.39.63.03,4.46-.96,5.15-1.24,1.37-.56,1.61-1.93,1.18-3.23ZM53.88,28.56h-1.46v9.9c0,.6-1.18,1.78-1.78,1.78h-8.44c-.09.99.07,1.89.92,2.5.15.1.73.42.86.42h9.9v-14.59ZM45.85,32.93c0-1.21-.98-2.19-2.19-2.19s-2.19.98-2.19,2.19.98,2.19,2.19,2.19,2.19-.98,2.19-2.19ZM47.31,36.58h-7.3v2.19h7.3v-2.19ZM50.96,44.61v2.19h2.92v-2.19h-2.92Z"/>
  <path d="M46.92,13.26c.55-.07,1.19.02,1.12.74-.06.63-1.56.98-2.09,1.02-.67.05-1.11-.73-.6-1.24.21-.21,1.25-.48,1.58-.52Z"/>
</svg>