<?xml version="1.0" encoding="UTF-8"?>
<svg id="Layer_1" data-name="Layer 1" xmlns="http://www.w3.org/2000/svg" viewBox="0 0 64 50">
  <path d="M8.29,6.94h8.43v5.56h2.87c.81-8.2,9.31-13.38,17.04-10.32,4.22,1.67,7.4,5.77,7.78,10.32h2.87v-5.56h8.43v41.77h-8.43v-4.17h-13.89v4.17h-2.78v-4.17h-13.89v4.17h-8.43V6.94ZM30.61,4.17c-4.25.61-7.71,4.06-8.24,8.33h8.24V4.17ZM41.63,12.5c-.54-4.27-3.99-7.72-8.24-8.33v8.33h8.24ZM13.94,9.72h-2.87v36.21h2.87V9.72ZM52.93,9.72h-2.87v36.21h2.87V9.72ZM16.72,15.28v20.93h2.78V15.28h-2.78ZM25.05,15.28h-2.78v20.93h2.78V15.28ZM30.61,15.28h-2.78v20.93h2.78V15.28ZM33.39,15.28v20.93h2.78V15.28h-2.78ZM38.95,15.28v20.93h2.78V15.28h-2.78ZM44.5,15.28v20.93h2.78V15.28h-2.78ZM30.61,38.99h-13.89v2.78h13.89v-2.78ZM47.28,38.99h-13.89v2.78h13.89v-2.78Z"/>
</svg>