<?xml version="1.0" encoding="UTF-8"?>
<svg id="Layer_1" data-name="Layer 1" xmlns="http://www.w3.org/2000/svg" viewBox="0 0 64 50">
  <path d="M13.87.03l35.73-.03c1.68.14,2.9,1.41,3.04,3.18v43.54c-.12,1.84-1.27,3.11-3.04,3.28H14.34c-1.72-.12-2.92-1.28-3.14-3.07V3.07c.15-1.56,1.21-2.75,2.67-3.04ZM51.04,11.67V2.97c0-.41-.75-1.22-1.19-1.26l-35.93.02c-.41.05-1.11.85-1.11,1.23v8.7h38.24ZM51.04,13.33H12.8v33.69c0,.38.7,1.18,1.11,1.23l35.93.02c.44-.03,1.19-.84,1.19-1.26V13.33Z"/>
  <path d="M39.88,6.67c0,1.84-1.43,3.33-3.19,3.33s-3.19-1.49-3.19-3.33,1.43-3.33,3.19-3.33,3.19,1.49,3.19,3.33ZM38.3,6.67c0-.92-.72-1.67-1.6-1.67s-1.6.75-1.6,1.67.72,1.67,1.6,1.67,1.6-.75,1.6-1.67Z"/>
  <rect x="41.48" y="4.17" width="1.59" height="1.67"/>
  <rect x="44.67" y="4.17" width="1.59" height="1.67"/>
  <rect x="47.85" y="4.17" width="1.59" height="1.67"/>
  <rect x="41.48" y="7.5" width="1.59" height="1.67"/>
  <rect x="44.67" y="7.5" width="1.59" height="1.67"/>
  <rect x="47.85" y="7.5" width="1.59" height="1.67"/>
  <path d="M14.96,3.36l8.57.06c.28.15.39.38.43.7.06.5.06,3.45-.08,3.78-.11.26-.4.44-.67.45-2.57-.19-5.44.24-7.97,0-.44-.04-.76-.19-.84-.69-.1-.66-.08-2.85,0-3.54.04-.39.21-.64.57-.76ZM22.36,5h-6.37v1.67h6.37v-1.67Z"/>
  <path d="M47.05,30.83c0,8.74-6.77,15.83-15.13,15.83s-15.13-7.09-15.13-15.83,6.77-15.83,15.13-15.83,15.13,7.09,15.13,15.83ZM45.46,30.83c0-7.82-6.06-14.16-13.54-14.16s-13.54,6.34-13.54,14.16,6.06,14.16,13.54,14.16,13.54-6.34,13.54-14.16Z"/>
  <path d="M43.87,30.83c0,6.9-5.35,12.5-11.95,12.5s-11.95-5.59-11.95-12.5,5.35-12.5,11.95-12.5,11.95,5.59,11.95,12.5ZM42.28,31.66c.43-7.5-6.18-13.3-13.19-11.25-6.09,1.78-9.34,9.14-6.46,15.11,1.52-.07,2.11-1.69,2.97-2.72,1.83-2.17,4.07-2.26,5.92-.05.66.79,1.27,2.18,2.22,2.57,1.97.81,2.8-1.61,3.85-2.78,1.35-1.51,2.89-1.74,4.68-.88ZM23.56,36.98c-.11.14.3.65.4.78,4.82,6.22,14.42,4.72,17.44-2.58.32-.78.82-1.49,0-2.01-1.96-1.25-2.89,1.08-3.9,2.3-1.79,2.16-4.06,2.36-5.92.16-.82-.97-1.68-2.95-3.17-2.81-1.91.19-2.7,4.02-4.84,4.16Z"/>
  <path d="M31.92,20.83c3.52-.02,6.98,2.12,8.47,5.46l-1.33.67c-1.52-2.68-4.08-4.5-7.14-4.47v-1.67Z"/>
</svg>