<?xml version="1.0" encoding="UTF-8"?>
<svg id="Layer_1" data-name="Layer 1" xmlns="http://www.w3.org/2000/svg" viewBox="0 0 64 50">
  <path d="M16.12,7.91v4.68h14.22V2.41c0-.2.55-.33.73-.35,1.66-.15,5.07-.15,6.73,0,.4.04.67.1.73.54.11.84.11,3.94,0,4.78-.03.21-.25.53-.44.53h-6.58v4.68h14.13V2.41s.25-.24.32-.27l7.57-.02c.24.18.36.38.39.68.11.97.09,3.3,0,4.29-.02.22-.22.82-.44.82h-6.67v4.68h5.89c.16,0,.41.34.49.49.96,1.87,1.37,4.62,2.28,6.59.06.43.07,2.73-.03,3.07-.18.55-.97.36-1.42.38v20.65c.56.02,1.34-.19,1.46.54.07.46.08,2.87-.01,3.29-.08.35-.37.47-.71.46H9.06c-.32-.06-.49-.23-.54-.55-.07-.45-.08-2.88.01-3.29.15-.64.94-.43,1.44-.46v-20.65c-.45-.03-1.24.16-1.42-.38-.11-.34-.09-2.63-.03-3.07.14-1.06,1.59-4.85,2.06-6.02.11-.27.36-1.05.71-1.05h3.65V2.6c0-.12.42-.61.63-.54,2.23.16,4.73-.2,6.93,0,.4.04.67.1.73.54.11.84.11,3.94,0,4.78-.03.21-.25.53-.44.53h-6.67ZM22.06,3.23h-5.94v3.51h5.94v-3.51ZM31.42,3.23v3.51h5.94v-3.51h-5.94ZM46.81,3.23v3.51h5.94v-3.51h-5.94ZM23.72,13.76h-11.84l-1.9,5.46h13.05l.68-5.46ZM24.21,19.21h15.59l-.68-5.46h-14.17s-.74,5.46-.74,5.46ZM54.02,19.21l-1.9-5.46h-11.84l.68,5.46h13.05ZM9.69,20.38v1.56h44.62v-1.56H9.69ZM52.85,23.11H11.15v20.65h6.14v-18.46s.33-.33.41-.36l28.18-.08c.27-.09.82.32.82.54v18.36h6.14v-20.65ZM25.48,26.03h-7.02v3.41h7.02v-3.41ZM26.54,26.03v3.41h10.73v-3.41h-10.73ZM38.43,26.03v3.41h7.11v-3.41h-7.11ZM25.47,30.61h-7.01v3.12h7.01v-3.12ZM26.64,30.61v3.12h10.62v-3.12h-10.62ZM38.43,30.61v3.12h7.11v-3.12h-7.11ZM25.57,34.9h-7.12v8.87h7.12v-8.87ZM26.64,34.9v8.87h4.78v-8.87h-4.78ZM37.26,34.9h-4.68v8.87h4.68v-8.87ZM45.54,34.9h-7.11v8.87h7.11v-8.87ZM54.31,44.93H9.69v1.95h44.62v-1.95Z"/>
</svg>