<?xml version="1.0" encoding="UTF-8"?>
<svg id="Layer_1" data-name="Layer 1" xmlns="http://www.w3.org/2000/svg" viewBox="0 0 64 50">
  <path d="M59.85,10.41v26.2c-.69,3.18-3.43,4.12-6.42,3.81.11,1.11-.33,2.23-1.37,2.7-.72.32-3.16.33-4.01.23-1.57-.18-2.21-1.49-2.18-2.94h-27.77c.11,1.22-.31,2.35-1.52,2.77-.75.26-2.9.25-3.75.17-1.55-.14-2.38-1.46-2.22-2.94-2.71.25-5.37-.4-6.25-3.26-.28-9.03-.24-18.17-.02-27.21.46-1.91,2.19-3.27,4.15-3.35h47.3c1.97.14,3.83,1.84,4.08,3.81ZM42.46,8.34H7.94c-.75,0-2.05,1.41-2.01,2.23v25.77c-.12.86,1.39,2.33,2.12,2.33h34.41V8.34ZM44.2,38.67h11.8c.73,0,2.24-1.48,2.12-2.33V10.57c.03-.82-1.26-2.23-2.02-2.23h-11.91v30.34ZM16.47,40.41h-4.13c.01.3-.1.98.24,1.12.27.12,3.34.13,3.56.02.29-.14.35-.84.32-1.14ZM51.7,40.41h-4.13c-.03.3.03,1,.32,1.14.22.11,3.29.1,3.56-.02.34-.14.23-.82.24-1.12Z"/>
  <path d="M40.4,11.49v23.93s-32.3,0-32.3,0V11.49s32.3,0,32.3,0ZM38.76,13.23H9.84v20.55h28.92V13.23Z"/>
  <path d="M46.45,12.06c3.06.17,6.53-.31,9.55-.03.46.04.86.2.92.71.12.93.09,3.39,0,4.36-.05.55-.23.85-.82.92-3.01-.21-6.39.28-9.36,0-.43-.04-.78-.17-.92-.61.17-.96-.28-4.37.1-5.01.08-.13.37-.32.52-.35ZM55.29,13.78h-7.83v2.5h7.83v-2.5Z"/>
  <path d="M55.06,33.29c0,2.04-1.65,3.69-3.69,3.69s-3.69-1.65-3.69-3.69,1.65-3.69,3.69-3.69,3.69,1.65,3.69,3.69ZM51.02,31.31c-2.49.4-1.99,4.3.62,3.99s2.11-4.43-.62-3.99Z"/>
  <path d="M53.73,26.57c-.15.13-.58.23-.78.25-.74.07-2.53.09-3.25-.01-1.3-.18-1.17-1.58-.22-1.72.63-.1,3.16-.1,3.79,0,.71.11.97,1.05.46,1.48Z"/>
  <path d="M49.01,21.96c.17-.14.36-.13.56-.15.74-.06,3.16-.12,3.81,0,.82.16.82,1.48-.11,1.62-.63.1-3.16.1-3.79,0-.71-.11-.98-1.07-.46-1.48Z"/>
</svg>