<?xml version="1.0" encoding="UTF-8"?>
<svg id="Layer_1" data-name="Layer 1" xmlns="http://www.w3.org/2000/svg" viewBox="0 0 64 50">
  <path d="M13.59,47.52c-2.14-.45-1.76-2.33-1.76-4.04-1.12.1-2.06-.62-2.28-1.72V14.46c-.13-.34.48-1.07.49-1.23,0-.09-.28-.43-.34-.6-.25-.63-.25-4.54-.16-5.37s.75-1.54,1.58-1.76l4.83-.04v-1.54s.15-.43.19-.51c.26-.54.76-.8,1.34-.85,2.95-.26,6.31.2,9.3.01.42.09.79.27,1.06.61.05.06.31.53.31.56v1.71h7.72v-1.71s.26-.5.31-.56c.26-.35.64-.52,1.06-.61,3,.19,6.35-.28,9.3-.01.58.05,1.08.31,1.34.85.04.08.19.47.19.51v1.54l4.76.02c.88.21,1.33.76,1.64,1.56v5.18l-.5,1.01.5.92v27.74c-.36,1.01-1.16,1.68-2.28,1.58,0,1.72.38,3.56-1.76,4.04h-13.34c-.58-.27-.65-1.2.05-1.31h12.99c.22.01.74-.28.74-.49v-2.24H13.16v2.24c0,.22.6.54.83.49h20.46c.7.29.58,1.03-.04,1.31H13.59ZM26.85,3.89h-9.57v1.58h9.57v-1.58ZM46.78,3.89h-9.57v1.58h9.57v-1.58ZM10.87,6.78v5.8s42.32,0,42.32,0v-5.8s-42.32,0-42.32,0ZM53.19,13.89H10.87s0,28.27,0,28.27h42.32s0-28.27,0-28.27Z"/>
  <path d="M28.39,18.99c-.61-.13-.72-1.22.17-1.32h19.23c.63,0,1.34.56,1.44,1.19.07.42.06,2.29-.06,2.65-.32.99-1.42,1.07-2.3.99l-.02,14.86c-.15,1.06-1.03,1.97-2.12,2h-25.46c-1.17-.11-1.99-1.09-2.06-2.24v-14.62c-.96.13-2.23-.12-2.37-1.27-.05-.43-.06-2.13.04-2.51.14-.54.77-1.01,1.32-1.05,2.97.2,6.29-.27,9.22,0,.56.05.96.46.64,1-.05.09-.32.32-.38.32h-9.39l-.13.13v1.93l.13.13h31.51l.13-.13v-1.93l-.13-.13h-19.4ZM45.55,22.5h-27.04v14.7c0,.18.34.69.55.77l25.88.03c.24-.06.61-.59.61-.79v-14.7Z"/>
  <path d="M27.44,25.41c.65-.2,1.18.47.77,1.03l-4.16,4.53c-.55.58-1.42-.05-1.1-.75,1.21-1.24,2.3-2.63,3.51-3.86.16-.17.85-.91.98-.95Z"/>
  <path d="M24.81,24.97c.6-.14,1,.46.72.98l-2.19,2.38c-.6.41-1.3-.2-.95-.86.13-.25,1.9-2.17,2.14-2.34.09-.06.16-.13.28-.16Z"/>
  <path d="M21.13,9.67c0,1.25-1.01,2.26-2.26,2.26s-2.26-1.01-2.26-2.26,1.01-2.26,2.26-2.26,2.26,1.01,2.26,2.26ZM19.82,9.67c0-.52-.42-.94-.94-.94s-.94.42-.94.94.42.94.94.94.94-.42.94-.94Z"/>
  <path d="M47.45,9.67c0,1.25-1.01,2.26-2.26,2.26s-2.26-1.01-2.26-2.26,1.01-2.26,2.26-2.26,2.26,1.01,2.26,2.26ZM46.13,9.67c0-.52-.42-.95-.95-.95s-.95.42-.95.95.42.95.95.95.95-.42.95-.95Z"/>
  <path d="M41.03,9.67c0,1.25-1.01,2.26-2.26,2.26s-2.26-1.01-2.26-2.26,1.01-2.26,2.26-2.26,2.26,1.01,2.26,2.26ZM39.71,9.67c0-.52-.42-.94-.94-.94s-.94.42-.94.94.42.94.94.94.94-.42.94-.94Z"/>
  <path d="M27.54,9.67c0,1.25-1.01,2.26-2.26,2.26s-2.26-1.01-2.26-2.26,1.01-2.26,2.26-2.26,2.26,1.01,2.26,2.26ZM26.23,9.67c0-.52-.42-.94-.94-.94s-.94.42-.94.94.42.94.94.94.94-.42.94-.94Z"/>
</svg>