<?xml version="1.0" encoding="UTF-8"?>
<svg id="Layer_1" data-name="Layer 1" xmlns="http://www.w3.org/2000/svg" viewBox="0 0 64 50">
  <path d="M34.36,2.04v1.58H14.67c.01.51-.02,1.02,0,1.53.27,8.13,1.01,16.31,1.48,24.44.25,4.35.24,9.05.71,13.34.02.18.08.57.19.7l3.92,2.61c6.95.26,13.97.05,20.95.11l4.26-2.77c.23-.62.11-1.28.15-1.92.75-10.86,1.27-21.77,1.88-32.64.07-1.28.25-2.58.29-3.86.02-.51,0-1.02,0-1.53h-9.4v-1.58h10.54c.54,0,.56.97.55,1.34-.02.71-.16,1.55-.2,2.27-.53,10.12-1.18,20.23-1.68,30.37-.03.52-.18,1.08-.1,1.63h1.19v-1.83c0-.53,1.36-.88,1.56.02.09.39.08,2.32.02,2.74-.03.22-.33.65-.54.65h-2.32l-.1,1.58h2.42c.21,0,.5.43.54.65.07.42.07,2.36-.02,2.74-.2.91-1.56.55-1.56.02v-1.83h-1.48c-.08.54.03,1.75-.3,2.13l-4.91,3.3c-7.27.26-14.63.05-21.94.11l-5.25-3.46c-.29-.42-.21-2.21-.25-2.82-.7-10.28-1.2-20.58-1.78-30.86-.14-2.45-.42-4.97-.5-7.42-.01-.37,0-1.34.55-1.34h20.82Z"/>
  <rect x="35.94" y="2.04" width="1.58" height="1.58"/>
  <path d="M35.74,36.86v-1.58h6.83l1.98-27.7h-25.92l1.98,27.7h6.83v1.58h-7.77c-.55,0-.6-1.24-.64-1.63-.3-2.94-.37-5.95-.6-8.9-.48-6.32-1.24-12.89-1.49-19.19-.02-.44,0-.84.43-1.07l28.37-.03c.54.23.5.68.49,1.19-.18,5.36-.88,11.04-1.28,16.42-.29,3.83-.41,7.77-.79,11.57-.04.4-.1,1.63-.64,1.63h-7.77Z"/>
  <path d="M32.18,29.74c1.31-.11,2.26.59,2.38,1.92.07.86.1,3.87-.22,4.54-.17.36-.74.73-.78.91-.2,1.08.11,2.87,0,4.06-.04.44-.18.76-.65.83s-2.2.07-2.66,0c-.34-.05-.59-.3-.64-.64-.2-1.29.15-2.99-.02-4.33-.27-.31-.56-.43-.76-.83-.32-.66-.29-3.68-.22-4.54.11-1.27.73-1.6,1.84-1.92.15-.04.17.05.14-.2l-3.53-1.07c-.78-.43-.46-1.6.5-1.5.52.05,3.6.99,4.12,1.23.68.32.47.9.49,1.53ZM30.2,31.57v3.86s.15.17.2.2c.17.08,1.97.1,2.22.05.11-.02.35-.17.35-.24v-3.86c0-.07-.24-.22-.35-.24-.26-.05-2.05-.03-2.22.05-.05.02-.19.16-.2.2ZM31.19,37.26v3.17h.79v-3.17h-.79Z"/>
  <path d="M42.26,20.65l-.09,1.57c-1.36-.1-2.36-1.08-3.51-1.68-1.18.76-2.42,1.85-3.93,1.65-1.12-.15-2.17-1.06-3.11-1.64-1.05.55-2.1,1.56-3.35,1.66-1.39.11-2.65-.98-3.76-1.68-1.13.64-2.16,1.57-3.51,1.68l-.09-1.57c1.03.07,2.91-1.99,3.6-1.99.38,0,1.9,1.32,2.46,1.6,1.06.54,1.29.46,2.31-.1.66-.36,1.31-.89,1.87-1.39.73-.42,1.2.36,1.73.72.59.4,1.69,1.21,2.4,1.14.47-.05,1.36-.63,1.77-.9s1.18-1.08,1.6-1.08c.7,0,2.56,2.08,3.6,1.99Z"/>
</svg>