<?xml version="1.0" encoding="UTF-8"?>
<svg id="Layer_1" data-name="Layer 1" xmlns="http://www.w3.org/2000/svg" viewBox="0 0 64 50">
  <path d="M12.98,46.61c-.02.09-.3.3-.42.32-.29.06-3.04.03-3.21-.05-.19-.08-.32-.34-.29-.55l.05-14.6c.02-.07.05-.14.11-.19.22-.14,3.37-.14,3.6,0,.05.03.16.2.16.24v1.4l.32.14h7.83c.68.12.37,1.02.1,1.02h-8.11l-.14.14v9.42l.14.14h8.11c.48,0,.34,1.03,0,1.03h-8.25c-.07.42.1,1.18,0,1.54ZM11.96,32.49h-1.86v13.33h1.86v-13.33Z"/>
  <path d="M51.02,31.79c0-.05.11-.21.16-.24.23-.14,3.38-.14,3.6,0,.07.04.09.11.11.19l.05,14.6c.03.21-.1.47-.29.55-.18.08-2.92.1-3.21.05-.12-.02-.42-.26-.42-.32v-1.54h-8.25c-.34,0-.48-1.03,0-1.03h8.11l.14-.14v-9.42l-.14-.14h-8.11c-.27,0-.59-.9.1-1.02h7.83s.32-.14.32-.14c.05-.43-.07-1,0-1.4ZM53.91,32.49h-1.86v13.33h1.86v-13.33Z"/>
  <path d="M33.96,26.8v1.68h3.03c.11,0,.61.33.61.42v2.56h2.28c.07,0,.82.47.92.57.23.23.47.65.51.98v12.3c-.22.96-.91,1.56-1.9,1.63-4.84.36-10.13-.28-15.01,0-.84-.1-1.56-.8-1.73-1.63v-12.22c.04-.37.26-.8.52-1.06.11-.1.85-.57.92-.57h2.28v-2.56c0-.09.5-.42.61-.42h3.03v-1.68c-8.46-1.45-12.85-11-8.15-18.36s15.01-7.4,19.88-.5c5.2,7.35.91,17.36-7.81,18.86ZM42.93,14.95c0-6.04-4.89-10.93-10.93-10.93s-10.93,4.89-10.93,10.93,4.89,10.93,10.93,10.93,10.93-4.89,10.93-10.93ZM32.93,28.48v-1.45c-.16-.22-.43-.04-.69-.04-.32,0-.72-.09-.96-.08-.11,0-.14.04-.21.12v1.45h1.86ZM36.47,29.6h-8.95v1.86h8.95v-1.86ZM24.61,32.51c-.52.1-.85.42-.91.95.25,3.64-.32,7.69,0,11.29.03.37.16.9.56,1.03h15.49c.39-.12.54-.66.56-1.03-.26-3.6.33-7.65,0-11.19-.05-.55-.21-.85-.77-1l-14.92-.04Z"/>
  <path d="M41.13,14.95c0,5.04-4.09,9.13-9.13,9.13s-9.13-4.09-9.13-9.13,4.09-9.13,9.13-9.13,9.13,4.09,9.13,9.13ZM40.04,14.95c0-4.44-3.6-8.04-8.04-8.04s-8.04,3.6-8.04,8.04,3.6,8.04,8.04,8.04,8.04-3.6,8.04-8.04Z"/>
  <path d="M32.57,16.62c1.09.35,1.58,1.32,1.34,2.44-.12.57-.85,1.27-1.43,1.37-2.61.48-3.45-2.98-1.05-3.86.11-1.48-.16-3.2,0-4.65.08-.74.87-.75,1.12-.09l.02,4.78ZM32.91,18.49c0-.5-.41-.91-.91-.91s-.91.41-.91.91.41.91.91.91.91-.41.91-.91Z"/>
  <path d="M31.79,7.61c1.1-.34.88,2,.58,2.26-1.09.95-1.23-2.06-.58-2.26Z"/>
  <path d="M25.07,14.42c.4-.09,1.72-.13,1.92.28.47.99-1.47.94-1.99.77s-.53-.93.07-1.06Z"/>
  <path d="M37.38,14.42c.38-.09,1.83-.13,1.97.33.3.96-1.54.9-2.04.73s-.48-.93.07-1.06Z"/>
  <path d="M27.13,9.57c.3-.05,1.28.91,1.41,1.16.32.61-.17,1.08-.77.77-.13-.07-.95-.89-1.03-1.02-.23-.39-.05-.84.39-.91Z"/>
  <path d="M36.73,9.57c.28-.04.68.3.66.58-.04.48-1.71,2.18-2.01,1.11-.13-.46,1.01-1.63,1.36-1.69Z"/>
  <path d="M38.69,11.91c.2.2.16.66-.07.86-.29.24-1.74.86-2,.42-.1-.29-.11-.59.14-.79.27-.21,1.65-.78,1.93-.49Z"/>
  <path d="M36.82,16.56c.39-.12,1.91.45,1.99.87.06.34-.14.71-.5.69-.14,0-1.5-.56-1.6-.65-.23-.2-.22-.82.12-.92Z"/>
  <path d="M30.3,10.28c-.22.15-.64.18-.82-.04-.11-.13-.61-1.32-.63-1.5-.09-.65.66-.88,1.05-.29.21.32.71,1.53.41,1.83Z"/>
  <path d="M33.7,10.28c-.39-.38.61-3.06,1.38-1.89.18.27-.33,1.55-.53,1.82-.18.25-.67.27-.86.08Z"/>
  <path d="M25.54,11.81c.19-.05,1.61.49,1.76.63.19.19.17.51.09.75-.31.51-2.08-.34-2.17-.63-.08-.27.03-.68.33-.76Z"/>
  <path d="M27.31,17.45c-.07.07-1.51.67-1.61.67-.39,0-.6-.4-.49-.77s1.58-.91,1.97-.79c.33.1.33.69.13.89Z"/>
</svg>