<?xml version="1.0" encoding="UTF-8"?>
<svg id="Layer_1" data-name="Layer 1" xmlns="http://www.w3.org/2000/svg" viewBox="0 0 64 50">
  <path d="M33.03.93c.78.45.45,1.57.11,2.22-.41.78-1.22,1.07-1.15,2.14.09,1.25,1.69,1.68,1.49,3.74-.13,1.33-.93,1.54-1.32,2.43-.25.58-.04,1.52-.97,1.48-1.1-.05-.68-1.59-.35-2.23.4-.77,1.22-1.08,1.15-2.14-.07-.99-1.34-1.64-1.49-3.01-.22-2,1.06-2.18,1.45-3.5.13-.45-.05-.83.51-1.13h.56Z"/>
  <path d="M20.74,48.44c-.14.66-1.39.79-1.5-.19v-23.31c-1.11.02-2.13-.93-2.25-2.02-.09-.8-.09-2.67,0-3.47.1-.94.87-1.75,1.78-1.97l26.14-.05c1.06.06,1.99.97,2.11,2.02.08.76.09,3-.04,3.71-.19,1.03-1.21,1.75-2.21,1.83v23.35c-.15.97-1.5.61-1.5.1v-5.49h-4.5v5.49c0,.31-.52.5-.79.52-3.82.35-8.15-.27-12.02,0-.23.06-.7-.34-.7-.52v-5.49h-4.5v5.49ZM45.52,18.94h-27.03v4.51h27.03v-4.51ZM20.74,24.94v4.5h10.51v-4.5h-10.51ZM43.26,24.94h-10.51v4.5c.6-.03,1.47-.11,1.51.71.01.28-.25.8-.52.8h-6.99v4.5h10.51v-4.5c-.6.03-1.47.11-1.51-.71-.01-.28.25-.8.52-.8h6.99v-4.5ZM25.25,30.95h-4.5v4.5h4.5v-4.5ZM43.26,30.95h-4.5v4.5h4.5v-4.5ZM31.25,36.95h-10.51v4.5h8.49c.65,0,.65,1.5,0,1.5h-2.49v4.5h10.51v-4.5h-5.49c-.11,0-.52-.41-.52-.52v-5.49ZM43.26,36.95h-10.51v4.5h10.51v-4.5Z"/>
  <path d="M39.3,3.95c1.34-.29.99,1.46.61,2.2-.43.81-1.27,1.1-1.14,2.23.14,1.19,1.64,1.6,1.49,3.57-.1,1.4-.93,1.59-1.33,2.52-.26.61-.04,1.6-1.05,1.47s-.58-1.62-.26-2.22c.4-.77,1.22-1.08,1.15-2.14-.05-.74-.49-.93-.83-1.43-.73-1.05-.92-2.22-.33-3.4.26-.52.78-.86.99-1.35.22-.52.06-1.31.71-1.45Z"/>
  <path d="M25.78,5.45c1.35-.3.98,1.39.53,2.13-.38.62-1.14.93-1.07,1.73.06.59.66.85.97,1.28.68.96.7,2.15.04,3.12-.23.33-.75.66-.9.97-.24.5,0,1.37-1,1.24-1.1-.14-.49-1.73-.08-2.32.36-.51.99-.78.96-1.48s-.65-.9-.98-1.37c-.67-.94-.7-2.17-.04-3.12.22-.32.71-.63.87-.92.24-.44.02-1.14.69-1.29Z"/>
</svg>