<?xml version="1.0" encoding="UTF-8"?>
<svg id="Layer_1" data-name="Layer 1" xmlns="http://www.w3.org/2000/svg" viewBox="0 0 64 50">
  <path d="M1.33,22.25c.54-2.22,2.4-3.41,4.67-3.11-.03-2.17-.17-4.29,1.31-6.05s3.26-1.94,5.39-1.91c1.02-3.47,5.33-4.86,8.07-2.34.68.63,1.61,2.13,1.61,3.05v8.79h19.14v-8.79c0-.95.96-2.48,1.67-3.11,2.74-2.44,7-1.05,8.01,2.4,1.54.05,2.83,0,4.18.84,2.54,1.59,2.65,4.39,2.52,7.11,1.78-.22,3.61.48,4.33,2.19.5,1.18.44,4.51.34,5.89-.18,2.54-2.21,3.93-4.67,3.64.02,2.13.17,4.24-1.25,5.98s-3.32,2.01-5.45,1.97c-1.02,3.47-5.33,4.86-8.07,2.34-.68-.63-1.61-2.13-1.61-3.05v-15.61h-19.14v5.03h16.45c1.02,0,1.03,1.79.24,1.79h-16.69v8.79c0,.93-.93,2.43-1.61,3.05-2.74,2.52-7.05,1.13-8.07-2.34-2.13.03-3.95-.2-5.39-1.91s-1.34-3.87-1.31-6.05c-2.26.29-4.11-.89-4.67-3.11v-5.5ZM12.58,36.96v-17.89s.46-.48.56-.52c.69-.21,1.23.32,1.23.99l.08,18.82c1.07,3.27,5.63,2.89,6.14-.52l-.03-25.94c-.47-2.32-3.16-3.39-5.05-1.88-1.76,1.4-.93,3.32-1.14,5.2-.18,1.6-1.79,1-1.79.48v-2.69c-2.58-.31-4.56.83-4.78,3.53-.45,5.43.32,11.48.01,16.97-.17,1.26,1.61,3.43,2.8,3.43h1.97ZM46.18,9.36c-1.45.11-2.59,1.26-2.84,2.67l-.02,25.72c.42,3.66,5.38,3.91,6.22.34l-.07-26.47c-.44-1.42-1.78-2.38-3.29-2.27ZM51.35,36.96h1.97c1.19,0,2.96-2.17,2.8-3.43-.24-5.48.37-11.3.02-16.74-.08-1.24-.45-2.42-1.52-3.15-.14-.1-1.21-.62-1.3-.62h-1.97v23.93ZM6,20.93c-1.1-.09-2.26,0-2.72,1.17-.27.67-.23,4.11-.16,5,.13,1.68,1.35,2.13,2.88,1.97v-8.14ZM57.93,29.07c1.53.16,2.74-.29,2.88-1.97.07-.89.11-4.33-.16-5-.46-1.16-1.62-1.26-2.72-1.17v8.14Z"/>
</svg>