<?xml version="1.0" encoding="UTF-8"?>
<svg id="Layer_1" data-name="Layer 1" xmlns="http://www.w3.org/2000/svg" viewBox="0 0 64 50">
  <path d="M12.17,45.2c-2.62.07-5.53.28-6.02-3l-.02-34.18c.3-3.48,3.32-3.32,6.04-3.23.79-2.21,2.9-3.84,5.25-4.02,2.83-.22,6.3-.24,8.27,2.09.34.4,1.02,1.89,1.33,1.95h27.76c1.77.15,2.97,1.45,3.09,3.21v33.95c-.12,1.76-1.32,3.06-3.09,3.22h-27.76c-.31.05-.99,1.55-1.33,1.95-1.97,2.33-5.56,2.34-8.39,2.08-2.28-.21-4.38-1.86-5.13-4.01ZM17.08,2.44c-1.81.25-3.45,2.01-3.63,3.82v37.47c.19,1.92,1.93,3.66,3.85,3.85,3.58.36,7.8.22,8.26-4.23V6.64c-.18-1.79-1.22-3.39-2.96-3.98-1.09-.37-4.33-.38-5.52-.21ZM11.81,6.45h-2.84c-.39,0-1.27.96-1.2,1.45l.06,34.52c.05.37.84,1.13,1.14,1.13h2.84V6.45ZM27.08,43.54h27.95c.39,0,1.27-.96,1.2-1.45l-.06-34.52c-.1-.38-.75-1.13-1.14-1.13h-27.95v37.1Z"/>
  <path d="M39.1,32.85c.16-.15.45-.15.66-.16.74-.06,2.58-.1,3.28.01.94.15.93,1.41-.15,1.6-.59.11-3.25.11-3.68-.17s-.47-.94-.1-1.28Z"/>
  <path d="M39.1,38.91c.16-.15.45-.15.66-.16.74-.06,2.58-.1,3.28.01.94.15.93,1.41-.15,1.6-.59.11-3.25.11-3.68-.17s-.47-.94-.1-1.28Z"/>
  <path d="M30.95,32.72c.43-.1,3.18-.11,3.63-.02.59.11.86.98.39,1.39-.39.34-3.16.32-3.76.22-1.01-.18-1.15-1.38-.26-1.58Z"/>
  <path d="M47.86,32.72c.33-.09,3.36-.09,3.73,0,.91.21.7,1.46-.23,1.61-.58.09-3.42.09-3.79-.24s-.22-1.22.29-1.37Z"/>
  <path d="M30.95,38.78c.43-.1,3.18-.11,3.63-.02.59.11.86.98.39,1.39-.39.34-3.16.32-3.76.22-1.01-.18-1.15-1.38-.26-1.58Z"/>
  <path d="M47.86,38.78c.33-.09,3.36-.09,3.73,0,.91.21.7,1.46-.23,1.61-.58.09-3.42.09-3.79-.24s-.22-1.22.29-1.37Z"/>
  <path d="M32.6,9.63c5.48.29,11.59-.51,17.01-.04,1.52.13,2.45.92,2.59,2.46.43,4.91-.33,10.43,0,15.4-.11,1.22-.93,2.28-2.21,2.33-5.62-.38-11.88.49-17.42,0-1.25-.11-2.1-1.11-2.21-2.33-.44-4.94.34-10.52,0-15.53.16-1.3.96-2.09,2.24-2.3ZM32.16,11.53c-.16.19-.15.42-.17.65-.41,4.84.32,10.25,0,15.15-.08.3.28.82.58.82.22,0,.95-1.18,1.2-1.45,4-4.51,11.18-4.36,15.13.13.57.65,1.18,2.31,1.65.51-.35-4.88.44-10.35,0-15.15-.07-.72-.22-.88-.95-.95-5.29-.48-11.3.38-16.67,0-.23-.02-.64.13-.77.3ZM47.9,28.28c-3.08-4.37-10.16-4.35-13.25,0h13.25Z"/>
  <path d="M45.72,16.92c0,2.45-1.99,4.44-4.44,4.44s-4.44-1.99-4.44-4.44,1.99-4.44,4.44-4.44,4.44,1.99,4.44,4.44ZM44.1,16.92c0-1.56-1.27-2.83-2.83-2.83s-2.83,1.27-2.83,2.83,1.27,2.83,2.83,2.83,2.83-1.27,2.83-2.83Z"/>
</svg>