<?xml version="1.0" encoding="UTF-8"?>
<svg id="Layer_1" data-name="Layer 1" xmlns="http://www.w3.org/2000/svg" viewBox="0 0 64 50">
  <path d="M10.05,48.5h-1.56v-1.56h1.42c.29.4.07,1.07.14,1.56Z"/>
  <g>
    <path d="M11.52,48.5v-1.56h1.56v-4.5h-3.03v-4.59h3.03v-4.5h-3.03v-4.59h3.03v-1.88c.42-.33,2.74-2.9,2.98-2.9,1.09.89,2.04,2.01,3.08,2.99v1.79h1.47v-6.06h-2.98c-1.78,0-4.55-2.57-4.55-4.36v-1.7h4.27c.33,0,1.3.32,1.64.47.61.26,1.12.67,1.62,1.09v-6.89h-3.08c-1.74,0-4.45-2.62-4.45-4.36v-1.7h4.18c.29,0,.95.36,1.2.19l2.84-3.59c.16,0,.31.22.41.33.92.97,1.68,2.28,2.62,3.27.18.11.94-.19,1.2-.19h4.18v1.52c0,1.84-2.6,4.55-4.45,4.55h-3.08v3.03l1.53-1c.22-.1,1.29-.47,1.46-.47h4.55v1.52c0,1.99-2.75,4.55-4.73,4.55h-2.8v6.43l1.5-1.37,3,2.98v1.79h1.56v-1.79c.41-.31,2.85-3.01,3.06-2.98l3,2.98v1.79h3.03v4.59h-3.03v3.49l.97-1.01c1.25-.99,2.92-1.26,4.41-.68.98-1.05,2.21-1.88,3.72-1.81v-8.08c-2.73,2.84-7.32,2.67-9.59-.65-1.9-2.77-1.1-6.42,1.49-8.41-.84-2.81.39-5.56,3.04-6.79-1.36-4.64,2.71-8.97,7.44-7.7,3.34.9,5.17,4.47,4.14,7.75,2.66,1.05,3.92,4.03,3.04,6.74.88.73,1.64,1.54,2.08,2.61l.48,1.68v1.47c-.42,2.39-2.05,4.43-4.43,5.07-1.65.45-3.2.24-4.69-.59l-1.53-1.18v8.36c.81.23,1.7.82,2.12,1.56,3.28-1.29,6.61,1.38,6.25,4.85,1.24.67,1.95,1.89,2.28,3.23v1.29c-.38,2.05-1.89,3.58-3.95,3.95H11.52ZM43.39,18.11v-9.32l-1.92-1.38.87-1.23,2.53,1.64v2.02l1.19-.64.73,1.23-1.92,1.39v3.17l2.61-1.92.88,1.13-1.37,1.21,1.47,1.47-1.05,1.05-1.57-1.55-.95.67v4.18l3.81-2.38,3.31,1.65-.65,1.37-2.64-1.26-3.44,2.32c2.16,4.85,9.24,3.04,8.7-2.38-.18-1.8-1.54-2.96-3.02-3.76,1.9-2.76.14-6.08-3.13-6.29.98-1.82,1.32-3.74.08-5.54-2.67-3.84-8.75-1.63-8.24,3.28.09.89.61,1.45.82,2.26-2.46.26-4.15,1.97-3.85,4.54.08.7.51,1.24.72,1.89-3.49,1.21-4.17,5.98-1.04,8.06,2.93,1.95,6.77.02,7.09-3.44.03-.37.09-1.34-.12-1.6l-2.8-2.25-1.81,1.7-1.04-.97,1.73-1.84-1.1-1.81,1.17-.78c.17-.05.1.04.15.11.42.61.92,1.58,1.4,2.09.62.67,1.75,1.27,2.44,1.92ZM21.39,4.25c-.95,1.37-3,2.7-1.99,4.56s4.49,1.17,4.24-1.3c-.11-1.06-1.68-2.36-2.25-3.26ZM17.45,6.82c-.81-.13-1.95.1-2.8,0,.35,1.71,1.81,2.89,3.53,3.03-.06-.34-.31-.63-.42-.96-.21-.66-.22-1.24-.08-1.92-.01-.06-.19-.15-.24-.15ZM28.14,6.82h-2.8c-.05,0-.2.14-.32.09.25.59.18,1.14.05,1.75l-.46,1.19c1.75-.18,3.12-1.31,3.53-3.03ZM22.27,17.38h2.89c1.03,0,2.42-1.44,2.78-2.36.08-.19.27-.55.07-.67h-2.3c-.18,0-.95.22-1.17.3-1.09.39-2.14,1.58-2.27,2.73ZM20.52,21.23c-.17-1.13-.92-2.1-1.93-2.62-.2-.1-.89-.41-1.06-.41h-2.89c.23,1.07.97,2.1,1.96,2.59.24.12,1.17.44,1.39.44h2.53ZM17.58,46.94v-19.33l-1.52-1.51-1.52,1.51v19.33h3.03ZM24.75,46.94c-1.39-1.76-1.47-3.96-.13-5.78.16-.22.54-.45.59-.7v-12.76s-1.53-1.6-1.53-1.6l-1.5,1.42v19.42h2.57ZM32.73,36.47v-8.95l-1.5-1.42-1.53,1.51v9.32c.96-.37,2-.77,3.03-.46ZM13.08,30.32h-1.56v1.47h1.56v-1.47ZM20.61,30.32h-1.47v1.47h1.47v-1.47ZM28.24,30.32h-1.56v1.47h1.56v-1.47ZM35.76,30.32h-1.47v1.47h1.47v-1.47ZM19.15,33.35v4.5h1.47v-4.5h-1.47ZM28.24,33.35h-1.56v6.34l1.08-.3c-.06-.25.48-.89.48-.94v-5.1ZM44.12,39.41c0-1.31.62-2.54,1.54-3.44-1.72-2.21-5.31-.91-5.3,1.88h-1.56l.18-1.38c-1.41-.34-2.75.16-3.54,1.38.25.52.66.97.85,1.53.18.52.17.97.3,1.49h-1.56c-.08-3.18-4.36-4.16-5.69-1.29,1.96.41,3.45,2.31,3.4,4.32h-1.47c-.14-2.52-2.99-3.93-5-2.29s-1.11,4.87,1.38,5.32c8.09-.06,16.22.16,24.3-.11,3.02-1.18,2.53-5.27-.57-5.94.63-1.35.39-2.9-.8-3.84-2.01-1.6-4.94-.17-4.9,2.37h-1.56ZM13.08,39.41h-1.56v1.47h1.56v-1.47ZM20.61,39.41h-1.47v1.47h1.47v-1.47ZM19.15,42.44v4.5h1.47v-4.5h-1.47Z"/>
    <path d="M53.95,33.35h-4.18c-1.37,0-3.35-1.88-3.35-3.26v-1.33h4.09c1.3,0,3.44,1.73,3.44,3.08v1.52ZM52.29,31.79c-.03-.55-1.14-1.47-1.61-1.47h-2.62c.08.54,1.11,1.47,1.61,1.47h2.62Z"/>
  </g>
</svg>