<?xml version="1.0" encoding="UTF-8"?>
<svg id="Layer_1" data-name="Layer 1" xmlns="http://www.w3.org/2000/svg" viewBox="0 0 64 50">
  <path d="M21.75,1.96c.81.26,1.49.58,2.03,1.26.71.9,1.51,3.76,1.94,5,.23.67.47,1.34.63,2.03.13.12.92-.89,1.08-1.04,7.11-6.7,18.37-5.73,24.07,2.23,5.53,7.72,2.97,18.76-5.36,23.22-.54.29-2.37,1.4-2.49.2-.08-.76,1.53-1.21,2.13-1.55,7.87-4.48,9.7-15.08,3.9-22.03-5.66-6.78-16.48-6.92-22.2-.14-.2.24-.51.54-.48.83.1.79.79,1.25,1.29,1.78,4.94-7.24,15.89-7.21,20.62.28,5.95,9.42-2.55,21.2-13.37,18.59-5.22-1.26-9.1-6.02-9.32-11.4l-.09-.06c-.71.18-1.42.2-2.12-.02-.09,2.96,1.5,5.22,1.26,8.24s-2.17,5.32-4.32,7.3l1.57,1.57c1.96-2.13,4.16-4.08,7.21-4.32s4.77,1.08,7.47,1.26c1.59.11,2.84-.19,4.32-.27,1.17-.06,1.27,1.01.39,1.29-1.22.39-3.42.42-4.71.34-3.97-.25-6.33-2.65-10.48-.22-.58.34-3.33,2.66-3.43,3.15-.22,1.14.18,1.24-.73,2.34-1.24,1.5-3.86,4.08-5.35,5.36-2.19,1.88-3.74.41-5.27-1.4-1.04-1.23-1.15-2.34-.09-3.61,1.66-1.98,4-3.75,5.72-5.71.29-.21.59-.41.94-.5.4-.11,1.05,0,1.26-.09.15-.07,2.16-2.11,2.39-2.38.4-.48.82-1.14,1.08-1.72,1.67-3.75-.18-5.99-.58-9.59-.05-.5.09-1.19-.14-1.66-.15-.31-1.33-1.08-1.58-1.48l-3.72-1.32c-.54-.54-.14-1.23.61-1.15.53.06,3.21,1.2,3.39,1.12l4.67-4.84-3.1-8.71c-1.65-2.05-4.47.11-3.21,2.31.22.38.84.83.3,1.34-.61.56-1.18-.37-1.82-.53-1.77-.44-3.21,1.2-2.49,2.85.22.5,1.02,1.03.4,1.59s-1.01-.23-1.53-.45c-1.9-.81-3.73,1.25-2.48,2.93.79,1.05,2.68.94,3.6,1.62.5.37.26,1.16-.32,1.21-.3.03-2.5-.77-2.92-.95-3.69-1.59-2.17-6.72,1.71-6.35-.19-2.29,1.65-4.18,3.96-3.87-.33-1.84.95-3.43,2.7-3.87h1.08ZM40.12,9.79c-1.08-.12-2.16-.12-3.24,0,.2.23,1.5,1.64,1.65,1.61l1.59-1.61ZM35.06,10.26c-.38.05-1.29.49-1.66.69-.32.17-2.05,1.26-2.09,1.51l3.02,3.09,3.18-3.11-2.01-2.11c-.13-.12-.27-.09-.43-.07ZM41.72,10.26l-2.22,2.19,3.18,3.1,3.12-3.1c-.58-.58-3.38-2.38-4.08-2.19ZM38.55,13.39l-3.2,3.21,3.16,3.16,3.2-3.21-3.16-3.16ZM46.74,13.4l-3.1,3.12,3.1,3.18,2.21-2.3c-.38-1.5-1.23-2.83-2.21-4ZM30.27,13.49c-.17.03-1.13,1.36-1.13,1.57.47,1.13.49,2.38.02,3.51l1.1,1.12,3.1-3.12-3.09-3.09ZM26.66,14.12l-4.24,4.23c-.06.07-.04.11,0,.18.05.1.79.79.92.89,2.54,1.73,5.8-.97,4.55-3.83-.26-.6-.79-1.01-1.23-1.47ZM34.4,17.53l-3.15,3.16,3.17,3.16,3.15-3.16-3.17-3.16ZM42.64,17.48l-3.2,3.21,3.16,3.16,3.2-3.21-3.16-3.16ZM49.4,19.07c-.16-.04-.18.06-.27.13-.49.38-.95,1.03-1.44,1.44l1.58,1.58c.21.04.12-.09.13-.23.11-1.02.1-1.91,0-2.93ZM28.33,19.79c-.07.32-.72.57-.8.87-.02.06.05,1.09.07,1.25.01.14.01.22.14.31l1.57-1.57c-.17-.13-.83-.96-.98-.85ZM30.27,21.69l-2.21,2.29c.46,1.44,1.21,2.79,2.21,3.92l3.19-3.1-3.18-3.1ZM38.5,21.63l-3.16,3.17,3.16,3.15,3.16-3.17-3.16-3.15ZM46.67,21.69l-3.04,3.1,3.1,3.1c.77-.83,1.48-1.91,1.9-2.97.14-.35.42-.89.23-1.22-.07-.12-1.79-1.84-1.94-1.94-.09-.06-.13-.11-.26-.08ZM34.4,25.73l-3.11,3.19c1.17.97,2.51,1.81,4,2.19l2.21-2.26-3.1-3.12ZM42.6,25.73l-3.1,3.12,2.22,2.27c1.47-.39,2.86-1.18,3.98-2.21l-3.1-3.18ZM40.12,31.49l-1.65-1.61-1.59,1.61c.43.11,3.07.17,3.24,0ZM19.18,37.21c-.36,0-.68.23-.95.45-1.59,1.83-3.78,3.47-5.31,5.31-.37.45-.67.91-.31,1.48.12.19,2.02,2.07,2.18,2.14.35.17.74.15,1.06-.07l6.01-6.06c.12-.34.13-.74-.07-1.05-.13-.21-1.75-1.83-1.98-1.99-.19-.13-.4-.22-.63-.22Z"/>
  <path d="M14.52,24.04c1.69-.27,2.94,1.43,2.35,2.98-.23.61-2.06,1.89-2.68,2.18-2.44,1.16-4.33-2.29-2.52-3.78.38-.31,2.39-1.31,2.85-1.38ZM15.41,25.58c-.2-.2-.44-.25-.71-.19-.19.04-1.91.92-2.09,1.06-.73.59.02,1.83.88,1.6.2-.05,1.98-1.34,2.09-1.52.17-.29.07-.71-.16-.95Z"/>
  <path d="M18.39,27.64c1.31-.22,2.69.8,2.64,2.18-.02.47-1.01,2.58-1.31,3.02-1.31,1.83-4.34.51-4.09-1.75.05-.46,1.32-2.44,1.67-2.83.23-.25.77-.56,1.1-.61ZM18.57,28.99c-.23.07-1.55,2.01-1.59,2.28-.13.84,1.21,1.51,1.69.7.15-.62,1.18-1.97.94-2.53-.14-.32-.71-.56-1.04-.46Z"/>
  <path d="M15.23,19.37c1.17,1.17.59,3.32-1.1,3.65-.53.1-2.27.25-2.78.18-2.38-.31-2.32-4.23-.1-4.5.67-.08,2.82.02,3.41.28.14.06.45.27.56.38ZM11.37,20.08c-.58.17-.6,1.55.02,1.74.29.09,2.22-.05,2.57-.14.67-.17.71-1.29.05-1.49-.21-.06-.95-.12-1.22-.13-.31-.02-1.18-.05-1.43.02Z"/>
</svg>