<?xml version="1.0" encoding="UTF-8"?>
<svg id="Layer_1" data-name="Layer 1" xmlns="http://www.w3.org/2000/svg" viewBox="0 0 64 50">
  <path d="M45.32,15.73v3.98l9.7,6.44.14.27.05,15.26c-.1.35-.4.56-.77.54h-14.6c-.23.05-.7-.34-.7-.52v-8.89l-.14-.14h-9.54l-.14.14v8.89c0,.31-.52.49-.79.52-1.08.1-3.63.12-4.68,0-.19-.02-.7-.27-.7-.42v-8.28l-12.97,12.52c-1.66,1-1.39-2.37-1.35-3.22.17-3.78,1.45-7.67,3.46-10.85,2.76-4.35,7.24-7.27,10.86-10.85v-5.38h-2.95c-.06,0-.36-.25-.42-.33-.39-.49-.13-.87.28-1.22l13.54-10.13c.31-.23.61-.37.96-.16l14.17,10.63c.36.33-.11,1.21-.46,1.21h-2.95ZM45.6,14.14l-11.37-8.52-11.37,8.52h22.74ZM27.73,15.73h-2.99v24.89h2.99V15.73ZM29.32,15.73v4.58h9.82v-4.58h-9.82ZM43.73,15.73h-2.99v24.89h2.99V15.73ZM53.65,35.19v-8l-8.33-5.47v8.33h2.95c.17,0,.61.52.61.7v4.44h4.77ZM30.54,21.9h-1.22v6.08h1.22v-6.08ZM32.13,21.9v6.09h1.31v-6.09h-1.31ZM36.24,21.9h-1.22v6.08h1.22v-6.08ZM37.83,21.9v6.09h1.31v-6.09h-1.31ZM23.14,31.21v-7.91l-6.32,5.61c-3.12,3.03-5.34,7-6.1,11.3-.19,1.07-.33,2.21-.26,3.29l12.68-12.3ZM39.14,29.58h-9.82v1.5h9.82v-1.5ZM47.28,31.63h-1.96v8.98h8.33v-3.84h-5.75c-.12,0-.61-.4-.61-.51v-4.63Z"/>
</svg>