<?xml version="1.0" encoding="UTF-8"?>
<svg id="Layer_1" data-name="Layer 1" xmlns="http://www.w3.org/2000/svg" viewBox="0 0 64 50">
  <circle cx="27.16" cy="9.5" r=".82"/>
  <circle cx="28.57" cy="12.94" r=".82"/>
  <circle cx="32.01" cy="14.36" r=".82"/>
  <circle cx="30.27" cy="9.19" r=".82"/>
  <circle cx="32.57" cy="11.29" r=".82"/>
  <path d="M7.54,28.64l2.12-4.81c.31-.6.81-.92,1.41-1.17,5.83-.36,11.74.02,17.58-.19l.75-.69-1.06-4.11c-8.02-3.44-6.56-15.61,2.11-17.01,10.48-1.7,14.69,12.71,5.18,17.06l-1.03,3.83c-.13.36.72.95.98.98,5.75.07,11.54-.16,17.28.12.68.2,1.13.59,1.49,1.19.51.86,1.7,3.48,1.97,4.43.41,1.4-.15,2.57-1.48,3.11v15.94c-.17,1.1-.97,1.85-2,2.16H11.17c-1-.31-1.8-1.01-1.98-2.08l-.02-16.02c-.87-.31-1.31-.95-1.63-1.78v-.96ZM39.35,9.51c0-4.05-3.29-7.34-7.34-7.34s-7.34,3.29-7.34,7.34,3.29,7.34,7.34,7.34,7.34-3.29,7.34-7.34ZM33.82,18.32c-1.21.22-2.42.22-3.63,0l.57,2.2c.8-.52,1.68-.52,2.48,0l.57-2.2ZM31.89,21.77l-10.82,10.02-.05.14c0,.12.89,1.16,1.15.96l9.43-8.83c.28-.17.63-.16.89.04l9.53,8.82.99-.99c0-.22-.33-.33-.48-.48-3.14-2.98-6.47-6.41-9.75-9.18-.22-.19-.62-.58-.89-.51ZM26.75,24.15h-14.96c-.12,0-.64.28-.7.44l-1.91,4.31c-.07.4.14.83.53.95h11.04c1.82-1.74,3.75-3.38,5.57-5.13.08-.08.54-.49.43-.58ZM52.22,24.15h-14.96c-.01.21.2.35.33.48,1.83,1.79,3.83,3.44,5.66,5.23h11.04c.39-.13.6-.56.53-.96l-1.91-4.31c-.1-.19-.51-.41-.7-.44ZM40.99,47.85v-13.52l-8.51-8.03-.51-.32-8.95,8.35v13.52h4.11v-7.89c0-.61,1.14-1.76,1.79-1.84,1.88.1,4.06-.21,5.91-.03.78.08,2.05,1.08,2.05,1.87v7.89h4.11ZM19.39,31.51h-8.6v15.72c0,.12.5.62.62.62h9.99v-13.38c-.93-.57-2.42-1.72-2.01-2.96ZM53.23,31.51h-8.46c-.22.13-.02.3-.05.51-.12.96-1.28,2.01-2.1,2.45v13.38h9.99c.12,0,.62-.5.62-.62v-15.72ZM31.15,39.73h-1.86c-.11,0-.53.41-.53.53v7.6h2.39v-8.12ZM35.26,47.85v-7.6c0-.11-.41-.53-.53-.53h-1.86v8.12h2.39Z"/>
  <path d="M46.42,40.51c.56-.09,2.36-.09,2.93-.01.62.09,1.29.66,1.39,1.29.09.56.08,2.47,0,3.05-.08.68-.72,1.28-1.4,1.38-.61.08-2.04.07-2.67.01s-1.26-.37-1.48-1c-.15-.44-.16-3.01-.07-3.52.11-.6.7-1.1,1.29-1.19ZM46.73,42.12v2.49h2.39v-2.49h-2.39Z"/>
  <path d="M29.98,30.76c.68-.12,3.17-.11,3.9-.02.65.07,1.28.64,1.38,1.3.09.58.07,2.25,0,2.87-.06.69-.56,1.39-1.29,1.48-.85.1-2.96.09-3.83,0-.67-.06-1.28-.63-1.37-1.3-.08-.56-.09-2.5,0-3.04s.65-1.17,1.21-1.27ZM30.38,32.37v2.39h3.25v-2.39h-3.25Z"/>
  <path d="M46.51,33.16c.69-.1,2.88-.11,3.46.22.34.19.73.74.77,1.14.08.64.07,2.32,0,2.97-.09.79-.71,1.3-1.48,1.39-.63.07-2.15.07-2.77,0s-1.31-.62-1.39-1.29c-.07-.6-.08-2.66.02-3.23.12-.66.77-1.1,1.39-1.19ZM46.73,34.76v2.49h2.39v-2.49h-2.39Z"/>
  <path d="M14.68,33.15c.68-.11,2.81-.1,3.4.18.46.22.77.66.83,1.18.07.63.09,2.55,0,3.15s-.79,1.13-1.38,1.2-2.39.08-2.96,0c-.66-.1-1.22-.72-1.3-1.38-.07-.57-.08-2.61.02-3.13.11-.56.83-1.11,1.39-1.19ZM17.29,34.76h-2.39v2.49h2.39v-2.49Z"/>
  <path d="M14.59,40.51c.56-.1,2.36-.09,2.93-.01.72.1,1.31.64,1.39,1.38.08.66.08,2.3,0,2.96-.09.79-.71,1.3-1.48,1.39-.62.07-2.06.07-2.68,0-.66-.07-1.37-.62-1.48-1.3-.08-.53-.08-2.61,0-3.14.09-.59.73-1.17,1.31-1.27ZM17.29,42.12h-2.39v2.49h2.39v-2.49Z"/>
</svg>