<?xml version="1.0" encoding="UTF-8"?>
<svg id="Layer_1" data-name="Layer 1" xmlns="http://www.w3.org/2000/svg" viewBox="0 0 64 50">
  <path d="M50.43,17.42c6.4.17,7.77,9.02,1.6,10.98v11c-.22,1.14-1.21,2.07-2.4,2.06-.13,1.53.18,3.36,0,4.86-.05.46-.29.7-.75.75-.55.06-1.95.06-2.51,0-.22-.03-.4-.08-.55-.25l-1.75-5.37h-24.22s-1.67,5.37-1.67,5.37c-.16.17-.33.22-.55.25-.43.05-2.53.05-2.83-.08-.28-.12-.39-.39-.43-.67-.18-1.5.14-3.32,0-4.86-1.19,0-2.18-.92-2.39-2.06v-11c-6.18-1.94-4.81-10.81,1.59-10.98-.06-2.24-.06-4.33.7-6.46,1.58-4.46,5.76-7.57,10.47-7.96,8.34.71,18.99-2.8,24.06,5.98,1.53,2.66,1.77,5.42,1.62,8.44ZM19.18,22.38c.1.99-.08,2.14,0,3.15h25.64v-3.15c0-.38.34-1.3.52-1.69.65-1.47,1.95-2.58,3.5-3.03.02-2.26.11-4.34-.73-6.47-1.45-3.69-4.99-6.25-8.94-6.58-6.16.69-15.17-1.84-20.22,2.4-3.3,2.77-4.07,6.52-3.75,10.7,2.06.43,3.78,2.61,4,4.67ZM50.65,27.16c.22-.21.8-.23,1.1-.35,4.56-1.82,2.81-8.3-1.85-7.76-1.89.22-3.34,1.85-3.49,3.72-.25,3.13.36,6.87,0,9.92-.04.31-.14.52-.43.67l-27.76.07c-.41-.07-.61-.34-.66-.74-.36-3.12.32-6.93-.01-10.1-.36-3.48-4.91-4.85-7.1-2.11-1.74,2.19-.87,5.28,1.7,6.3.54.21,1.25.09,1.38.83l.02,11.5c.01.38.29.69.66.74l35.7-.04c.29-.12.49-.38.5-.7.24-3.61-.33-7.66,0-11.22.02-.21.09-.57.23-.72ZM44.82,27.03h-25.64v4.81h25.64v-4.81ZM18.08,41.46h-2.1v4.01l1.01-.06,1.09-3.95ZM48.02,41.46h-2.1l1.09,3.95,1.01.06v-4.01Z"/>
</svg>