<?xml version="1.0" encoding="UTF-8"?>
<svg id="Layer_1" data-name="Layer 1" xmlns="http://www.w3.org/2000/svg" viewBox="0 0 64 50">
  <path d="M17.15,48.58c-.85-.33-1.31-.87-1.39-1.79V3.77c.02-1.23.85-2.21,2.08-2.34l20.09.02c.78.12,1.62.85,1.78,1.63.15.74.12,3.39.05,4.2s-1,.81-1.28.25c-.36-.74.04-3.05-.12-4.03-.05-.33-.36-.64-.69-.69h-19.65c-.31-.05-.87.42-.87.69v14.74l.14.14h14.53c-.2-.51-.95-.78-.37-1.43.75-.84,1.89,1.04,2.45,1.43h3.46c.04-.16-.07-.18-.14-.28-.17-.23-2.03-2.1-2.17-2.16-.68-.31-2.6.46-2.68-.65-.05-.73.61-.84,1.2-.78-.32-.5-1.49-1.13-.83-1.8.71-.72,1.33.43,1.85.79-.06-.47.02-1.15.6-1.21,1.34-.12.53,2.01.83,2.68l2.35,2.3v-3.18c-.38-.56-2.19-1.6-1.34-2.35.57-.5.93.03,1.34.37v-1.52c0-.22.39-.63.62-.68s.76.25.76.4v1.8c.51-.2.78-.95,1.43-.37.83.73-1.04,1.9-1.43,2.44v3.09c.16.04.18-.07.28-.14.23-.17,2.1-2.03,2.17-2.17.3-.66-.45-2.63.65-2.68.7-.03.8.65.78,1.2.56-.34,1.26-1.71,2.03-1.06s-.69,1.58-1.01,2.07c.54-.02,1.25.1,1.21.78-.07,1.1-2.02.34-2.68.65-.14.06-2,1.94-2.17,2.16-.07.09-.18.12-.14.28h3.09c.56-.39,1.7-2.27,2.45-1.43.58.65-.17.92-.37,1.43h1.8c.15,0,.44.52.4.76s-.46.62-.68.62h-1.52c.35.41.88.77.37,1.34-.75.85-1.8-.96-2.36-1.34h-3.18l2.31,2.35c.64.29,2.73-.45,2.68.74-.02.65-.68.74-1.21.69.32.49,1.78,1.4,1.01,2.07s-1.46-.71-2.03-1.06c.02.55-.09,1.23-.78,1.2-1.1-.04-.35-2.01-.65-2.68-.06-.14-1.94-1.99-2.17-2.17-.09-.07-.12-.18-.28-.14v3.45c.39.55,2.26,1.71,1.43,2.44-.65.58-.92-.17-1.43-.37v21.04c0,.39-.96,1.2-1.38,1.24h-2.21c-1.56-.37-1.5-2.23-2.28-3.3l-9.3-.02c-1.08-.15-.67-1.37-.19-1.37h13.98v-17.59c-.41.35-.77.87-1.34.37-.85-.75.96-1.8,1.34-2.35v-3.55l-2.35,2.3c-.27.78.49,2.79-.83,2.68-.58-.05-.66-.74-.6-1.21-.52.33-1.08,1.47-1.8.83-.75-.67.45-1.34.79-1.84-.59.06-1.25-.05-1.2-.78.08-1.11,2-.34,2.68-.65l2.31-2.35h-3.55c-.56.38-1.6,2.18-2.36,1.34-.5-.57.03-.93.37-1.34h-14.67v24.13h4.29c.22,0,.43.59.4.85-.04.3-.98,2.57-1.16,2.9-.27.48-.74.72-1.22.95h-2.31ZM20.1,45.26h-2.95v1.61c0,.51,1.75.31,2.12.28l.83-1.89ZM38.37,45.26h-2.95l.8,1.85c.32.11,2.15.21,2.15-.15v-1.7Z"/>
  <path d="M20.63,7.71c1.35-.23,2.32.76,2.43,2.05.08.9.11,3.89-.14,4.65-.66,2.02-3.69,1.65-3.92-.41-.09-.84-.12-3.99.04-4.75s.83-1.41,1.6-1.54ZM20.82,9.08c-.15.04-.4.34-.43.49.11,1.31-.15,2.86,0,4.14.1.86,1.16.91,1.29-.01.11-.78.1-3.16.01-3.95-.05-.43-.4-.81-.86-.67Z"/>
  <path d="M20.36,29.34c-.68-.2-1.24-.86-1.35-1.56-.13-.9-.14-3.75-.02-4.67.3-2.31,3.82-2.4,4.06.36.08.89.1,4-.17,4.72-.23.62-1.07,1.07-1.11,1.19-.24.7.55,3.4-.85,3.13-1-.19-.37-2.41-.57-3.17ZM21.46,27.92c.09-.09.19-.43.21-.57.08-.76.11-3.24,0-3.96-.12-.78-1.16-.83-1.28-.09-.1.64-.1,3.59,0,4.23.09.54.74.71,1.08.4Z"/>
</svg>