<?xml version="1.0" encoding="UTF-8"?>
<svg id="OBJECTS" xmlns="http://www.w3.org/2000/svg" viewBox="0 0 632.9 605.46">
  <defs>
    <style>
      .cls-1 {
        fill: #2d5be3;
        stroke: #231f20;
        stroke-miterlimit: 10;
      }
    </style>
  </defs>
  <path class="cls-1" d="M279.05,88.78c32.74-.67,66.34,28.09,68.92,61.08,2.02,25.87-11.62,48.9-19.85,72.35l230.16,172.13-227.55,122.34L74.62,331.25l167.11-88.01c-13.76-42.21-47.78-83.32-15.75-126.03,11.45-15.27,33.86-28.03,53.07-28.42ZM282.24,266.83c12.2-41.77,72.24-110.36,23.77-145.98-18.57-13.64-42.05-11.54-58.03,5.22-23.96,25.12-8.75,52.29,2.29,79.44,2.11,5.18,28.62,63.86,31.97,61.32ZM198.15,290.53c-3.09,4.11,74.02,37.96,80.12,40.88,11.76-5.19,111.74-28.48,111.75-34.33l-69.69-53.85c-5.24-1.09-3.18,1.14-4.45,3.3-5.81,9.88-30.06,65.3-34.95,67.62-5.35,1.24-3.54-2.2-5.17-5.17-3.67-6.7-20.21-43.72-23.97-44.6l-53.63,26.16ZM245.44,340.48c-16.87-2.23-59.3-34.02-72.28-34.02-11.2,0-42.39,24.6-56.52,26.13-1.97,2.62,38.21,32.03,43.74,33.52l85.06-25.63ZM308.58,348.3l149.76,72.59c8.78,1.28,46.93-24.04,57.87-29.18l-101.12-76.66-84.89,24.68-21.62,8.56ZM182.39,385.11l106.5,75.79,51.18-71.82-64.73-32.04-92.95,28.06ZM434.76,437.69c2.58-3.44-69.42-37.46-76.02-39.27-2.71,11.93-51.24,72.51-50.13,77.23.39,1.65,19.7,16.59,24.31,14.2l101.84-52.17Z"/>
  <circle class="cls-1" cx="280.32" cy="161.08" r="31.83"/>
</svg>