<?xml version="1.0" encoding="UTF-8"?>
<svg id="OBJECTS" xmlns="http://www.w3.org/2000/svg" viewBox="0 0 632.9 605.46">
  <defs>
    <style>
      .cls-1 {
        fill: #2d5be3;
        stroke: #231f20;
        stroke-miterlimit: 10;
      }
    </style>
  </defs>
  <g>
    <path class="cls-1" d="M560.78,438.3v37.79h-74.13c-7.11,0-3.64-31.24-4.36-37.79h78.49Z"/>
    <path class="cls-1" d="M517.18,484.81c-.72,6.55,2.75,37.79-4.36,37.79h-74.13v-37.79h78.49Z"/>
    <path class="cls-1" d="M470.67,438.3v37.79h-74.13c-2.15,0-3.56-4.15-3.71-6.61-.25-4.16,1-31.18,3.71-31.18h74.13Z"/>
    <rect class="cls-1" x="482.3" y="345.27" width="78.49" height="34.88"/>
    <rect class="cls-1" x="348.57" y="391.79" width="78.49" height="34.88"/>
    <rect class="cls-1" x="438.69" y="391.79" width="78.49" height="34.88"/>
    <rect class="cls-1" x="525.9" y="391.79" width="78.49" height="34.88"/>
    <path class="cls-1" d="M429.97,481.9c-1.25,6.21,2.09,21.51-.49,25.69-4.96,8.03-56.51,14.48-67.7,15.13-56,3.26-133.17,3.21-189.2,0-33.62-1.92-81.85-6.03-90.16-46.46-14.65-71.28,38.84-140.3,110.37-145.74,11.83,51.09,118.64,50.6,142.59,14.64,2.87-4.3,4.19-14.1,6.2-14.64,4.98-1.34,44.79,9.53,44.79,11.85v40.7h-43.6v52.33h43.6v46.51h43.6Z"/>
    <path class="cls-1" d="M470.67,345.27v34.88h-78.49c4.59-10.8,4.6-24.04,0-34.88h78.49Z"/>
  </g>
  <g>
    <path class="cls-1" d="M295.75,87.02c5.09,8.23-11,51.27-6.93,57.72,1.87,2.96,8.3,4.15,10.29,2.85,2.16-1.4,6.8-42.62,8.79-49.4,26.55,12.34,45.22,37.65,51.6,66.09,1.04,4.61.09,17.38.81,18.1,2.2,2.19,18.65-3.98,17.62,16.12-.61,11.84-9.14,12.32-19.06,13.2-60.21,5.35-128.15-4.38-189.22,0-12.46.47-16.5-13.83-11.54-23.46,2.93-5.69,12.52-5.25,14.71-8.53,2.85-4.27.46-12.81,2.02-18.33,6.93-24.61,25.48-54.78,51.62-60.29,1.52,1.46,4.48,35.61,6.39,41.61,2.49,7.79,13.53,7.9,12.83-3.84-.74-12.45-12.2-42.1-6.14-52.33,5.59-9.44,51.48-7.14,56.21.51Z"/>
    <path class="cls-1" d="M185.36,223.6c1.9,1.14,7.75,35.46,10.66,43.12,40.92,107.51,151.1,51.36,149.63-43.55,5.76,1.23,14.72-3.97,14.65,4.39-.28,36.15-29.8,92.37-63.39,108.21-69.59,32.81-122.24-52.48-122.75-112.6,3.37.48,8.61-1.11,11.19.43Z"/>
  </g>
</svg>