<?xml version="1.0" encoding="UTF-8"?>
<svg id="OBJECTS" xmlns="http://www.w3.org/2000/svg" viewBox="0 0 632.9 605.46">
  <defs>
    <style>
      .cls-1 {
        fill: #2d5be3;
        stroke: #231f20;
        stroke-miterlimit: 10;
      }
    </style>
  </defs>
  <path class="cls-1" d="M288.27,367.26c25.61-11.23,51.94-40.77,50.52-73.47-1-23.06-11.61-41.73-28.02-57.28-13.54-12.82-29.4-21.23-48.35-22.33-6.07-.34-12.23.55-18.95.9v-7.82c0-14.72-.07-29.43.14-44.15.14-11.61,3.24-22.33,10.86-31.4,6.2-7.34,13.99-11.1,23.74-11.1,69.65.07,139.26.17,208.91-.07,13.82-.03,23.19,6.24,29.78,17.71,4.2,7.34,6.24,15.34,6.24,23.74.03,93.81.07,187.62,0,281.42,0,11.65-3.55,22.3-11.37,31.15-5.62,6.38-12.58,10.27-21.33,10.27-30.36,0-60.69-.03-91.05.07-2.96,0-3.83-1.28-4.38-3.72-4.89-21.5-13.72-41.67-21.92-61.93-8.86-21.85-25.71-32.98-49.87-32.71-24.81.31-49.66.07-74.51.07h-4.86c-.21-2.34-.38-4.24-.55-6.03-6-1.34-11.99-2.27-17.71-4.03-29.4-9.13-52.11-37.08-54.24-66.72-1.24-17.16,4.55-32.4,14.23-46.15,13.03-18.47,30.02-31.53,52.69-35.84,15.72-3,30.4.65,43.84,8.79,22.75,13.75,37.87,33.22,41.87,59.93,3.41,22.71-5.86,41.36-20.99,57.45-4.38,4.65-9.55,8.58-14.68,13.13l-.03.1ZM370.5,241.5h120.07v-16.65h-120.07v16.65ZM370.54,378.77h120.14v-16.58h-120.14v16.58ZM370.5,285.48h120.1v-16.54h-120.1v16.54h0ZM490.78,178.95h-120.14v16.61h120.14v-16.61ZM370.36,329.45h120.28v-16.75h-116.07c-.65,0-1.45-.21-1.93.07-.86.52-2.14,1.31-2.17,2-.21,4.82-.1,9.65-.1,14.68ZM109.72,484.61c2.72-8.1,5.31-15.92,7.93-23.74,3.14-9.34,6.41-18.61,9.37-28.02,7.48-23.81,24.57-36.15,48.25-40.36,5.76-1.03,11.75-1,17.64-1,39.15-.07,78.3.07,117.45-.1,20.75-.07,35.91,8.93,45.11,27.33,5.13,10.27,22.33,54.93,23.16,65.89H109.72Z"/>
</svg>