<?xml version="1.0" encoding="UTF-8"?>
<svg id="OBJECTS" xmlns="http://www.w3.org/2000/svg" viewBox="0 0 632.9 605.46">
  <defs>
    <style>
      .cls-1 {
        fill: #2d5be3;
        stroke: #231f20;
        stroke-miterlimit: 10;
      }
    </style>
  </defs>
  <path class="cls-1" d="M438.7,381.43c-12.54,1.69-18.63,10.1-23.24,20.72-6.6,15.2-10.98,32.65-17.36,48.08-15.93-.73-29.16,1.35-36.6,16.84-7.48,15.57-11.54,35.24-18.68,51.25-1.63,1.96-9.91.69-12.99,1-28.2,2.86-26.52,32.68-37.46,52.45l-38.52-.48c-37.82-3.09-76.11-6.85-112.34-18.53-32.05-10.33-86.43-36.25-39.89-70.86,2.14-55.36.36-111.31.9-166.89-.5-2.63-10.26-9.58-12.94-13.04-13.35-17.24-1.9-32.99,13.92-42.42,2.76,5.05,11.34,8.41,16.67,10.83,27.92,12.68,60.96,18.82,91.27,22.12-2.46,30.6,15.8,61.1,43.59,73.79,53.04,24.23,111.56-16.16,108.24-73.79,30.41-3.35,63.3-9.41,91.27-22.12,5.73-2.6,13.5-5.8,17.12-10.84,21.24,14.6,27.15,31.48,5.98,49.92-1.58,1.38-5.47,2.71-5.47,3.03v68.94c-10.45,1.01-23.33-1.36-33.47,0Z"/>
  <path class="cls-1" d="M439.91,539.5c17.89.85,38.16-1.87,55.77-.26,5.5.5,5.73,1.36,7.93,6.06,7.13,15.27,11.35,34.2,18.07,49.89.47,3.01-1.27,5.85-3.58,7.51l-95.44.57c-4.11-.32-7.38-5.07-6.03-9.07l18.81-51.19c.79-1.9,2.56-2.99,4.47-3.52Z"/>
  <path class="cls-1" d="M383.97,470.56c17.9.85,38.16-1.87,55.77-.26,1.8.16,3.22.1,4.85,1.15,4.85,3.09,16.92,46.97,21.15,54.81.64,4.96-3.31,8.35-8.01,8.08-28.71-2.02-60.7,2.52-89.01,0-5.53-.49-8.82-2.86-7.78-8.79l19.1-51.92,3.93-3.06Z"/>
  <path class="cls-1" d="M438.91,401.62l60.8.72c1.95,1.64,2.85,3.86,3.91,6.08,3.91,8.17,15.6,38.76,17.05,46.9,1.18,6.64-.16,9.46-7,10.08-28.87,2.64-61.7-2.11-91.01,0-4.59-.6-6.85-4.63-6.03-9.07,1.44-7.8,14.63-43.22,18.54-50.46.96-1.77,1.65-3.49,3.74-4.25Z"/>
  <path class="cls-1" d="M328.02,539.49c17.91.85,38.14-1.85,55.78-.25,4.4.4,5.93,1.04,7.95,5.03,5.09,10.05,11.89,31.11,15.49,42.45,2.23,7.03,6.45,13.81-3.46,16.56-29.32-2.11-62.12,2.62-91.01,0-6.86-.62-8.18-3.47-7-10.08,1.28-7.13,14.41-42.15,18.04-48.9,1.05-1.96,2-3.86,4.2-4.79Z"/>
  <path class="cls-1" d="M550.79,539.49c17.91.85,38.14-1.84,55.78-.25,4.4.4,5.93,1.04,7.95,5.04,7.28,14.38,10.83,35,18.06,49.94,1.36,3.98-1.93,8.76-6.03,9.06-29.32-2.11-62.12,2.63-91.01,0-6.85-.62-8.18-3.47-7-10.08,1.48-8.28,13.07-38.63,17.05-46.9,1.24-2.58,2.38-5.51,5.19-6.8Z"/>
  <path class="cls-1" d="M494.85,470.55c17.92.85,38.14-1.84,55.78-.25,3.33.3,5.51.61,7.23,3.76l18.78,51.21c1.36,3.98-1.93,8.76-6.03,9.06-29.32-2.11-62.12,2.63-91.01,0-6.85-.62-8.18-3.47-7-10.08,1.28-7.14,14.23-42.48,17.77-49.17.75-1.42,2.98-4.09,4.47-4.52Z"/>
  <path class="cls-1" d="M288.34,240.55c1.7,32.8,43.44,57.62,32.01,91.46-12.37,36.61-72.36,27.19-67.96-17.01,1.64-16.49,15.86-31.34,23.49-45.45,5.28-9.76,7.37-17.09,10.44-27.53.43-1.46-.57-1.74,2.02-1.46ZM273.12,337.22c4.24-4.25-2.07-10.69-3.55-14.45-5.98-15.21,2.91-26.14,6.77-40.25l-13.15,21.3c-3.86,8.75-3.94,22.83,1.34,30.98,1.9,2.93,5.49,5.52,8.58,2.42Z"/>
  <path class="cls-1" d="M359.29,273.52c-5.39-19.95-22.93-38.7-41.99-46.44-41.95-17.03-88.2,3.76-102.46,46.51-30.58-4.56-62.73-9.4-91.32-21.57-3.72-1.59-17.41-8.05-19.53-10.44-.98-1.11-1.66-1.85-1.51-3.48l.1-143.97c-.62-4.52-7.78-7.41-11.03-10.95-27.44-29.84,20.75-52.45,43.43-60.45,82.04-28.94,236.6-29.59,316.88,4.84,19.1,8.19,51.65,26.89,34.12,51.45-3.88,5.44-10.23,9.07-13.79,14.18l-.51,147.35c-32.84,21.49-74.1,27.38-112.38,32.96ZM108.88,53.08c-16.29,17.81,8.26,31.84,22.66,38.08,68.21,29.57,203.8,27.77,275.7,11.04,21.14-4.92,92.57-25.1,51.66-54.69-40.9-29.59-156.98-33.57-207.06-30.78-33.75,1.88-119.87,11.11-142.96,36.36Z"/>
  <path class="cls-1" d="M162.13,75.36c-9.07,9.44-42.59,7.7-39.61-8.11,2.32-12.27,36.62-12.72,41.43-1.52,1.4,3.25.57,7.14-1.82,9.63Z"/>
</svg>