<?xml version="1.0" encoding="UTF-8"?>
<svg id="Layer_1" xmlns="http://www.w3.org/2000/svg" version="1.1" viewBox="0 0 250 250">
  <!-- Generator: Adobe Illustrator 29.5.0, SVG Export Plug-In . SVG Version: 2.1.0 Build 137)  -->
  <defs>
    <style>
      .st0 {
        fill: #6a7282;
      }
    </style>
  </defs>
  <path class="st0" d="M126.7,122.6c5.5-1.2,10.9-2.1,16.3-3.4,5.4-1.3,10.6-3.2,15.3-6.3.3.2.6.4.9.6,5.8,4.4,5.8,9.4,0,13.8-.9.7-1.3,1.4-1.3,2.5,0,5.5,0,11,0,16.4v1.8h-7.5c-4.9,0-7.2,1.6-8.9,6.3-1.6,4.2-3.1,8.4-4.6,12.7-.3.9-.7,1.2-1.7,1.2-1.2,0-2.4-.1-3.5.1-3.1.6-5.1,2.4-6.2,5.4-1.6,4.5-3.3,8.9-4.9,13.4-.3.9-.7,1.3-1.7,1.2-1.4,0-2.8,0-4.2.3-2.6.7-4.3,2.4-5.3,5-1.1,2.9-2.1,5.9-3.3,8.9-.2.4-.8,1-1.3,1-14.3,0-28.5-1.2-42.2-5.3-4.5-1.3-8.9-3.1-12.8-5.8-6.3-4.5-6.4-9.7-.2-14.3.8-.6,1-1.2,1-2.1,0-15.5,0-30.9,0-46.4,0-.9-.2-1.5-1-1.9-.7-.4-1.2-.9-1.8-1.5-3.8-3.7-3.7-7.7.2-11.3.7-.7,1.5-1.2,2.2-1.8,9.8,6,20.7,7.8,31.6,9.5-.2,14.5,11.5,23.7,23,23.4,10.3-.3,21.8-8.6,21.7-23.2h0Z"/>
  <path class="st0" d="M50.7,85.2c0-6.7,0-13.4,0-20.1,0-1.1-.3-1.8-1.2-2.4-5.9-4.4-5.8-9.6.1-14,5-3.6,10.7-5.5,16.6-7,14.5-3.7,29.2-4.7,44.1-4.2,10.8.3,21.6,1.5,32.1,4.2,5.1,1.3,10.2,2.9,14.7,5.8,1.7,1.1,3.4,2.5,4.7,4,2.3,2.7,2.2,5.8,0,8.5-.7.9-1.6,1.9-2.6,2.5-1.1.8-1.4,1.6-1.4,2.9,0,13.2,0,26.4,0,39.6,0,1.5-.5,2.3-1.8,3-6,3.2-12.4,5-18.9,6.4-3.5.7-7.1,1.2-10.6,1.8-.9.2-1.3-.2-1.7-1-3.4-8.5-11.5-14-20.5-14.1-9.1,0-17.2,5.4-20.7,13.8-.3.8-.5,1.5-1.7,1.3-9.2-1.3-18.4-3-26.9-6.8-4.5-2-4.5-2.1-4.5-6.9v-17.3h0ZM108.1,70.3c3.5-.2,8.9-.4,14.3-.9,7.9-.7,15.7-1.9,23.2-4.3,3.6-1.1,7.1-2.5,10-4.9,3.3-2.7,3.4-5.9,0-8.5-1.8-1.4-3.8-2.5-5.9-3.4-5-2.2-10.4-3.5-15.8-4.3-20.2-3.3-40.4-3.3-60.6.3-5.7,1-11.4,2.4-16.6,5.2-1.7.9-3.4,2.1-4.7,3.5-1.8,1.8-1.8,4.2,0,6,1.3,1.3,2.8,2.7,4.5,3.4,3.5,1.5,7.2,3,10.9,4,12.8,3.3,25.8,4,40.8,4.1h0Z"/>
  <path class="st0" d="M157.3,212.6h-12.5c-2.4,0-3.2-1.1-2.4-3.4,1.6-4.4,3.2-8.8,4.8-13.2.5-1.4,1.3-2,2.8-2,4.9,0,9.7,0,14.5,0,1.4,0,2.2.5,2.7,1.9,1.6,4.4,3.2,8.8,4.8,13.2.9,2.4,0,3.5-2.5,3.5h-12.4,0ZM146.2,206.7c.1,0,.2,0,.4,0,1-2.8,2.1-5.5,3.1-8.3.4-1.2,1.1-1.7,2.3-1.7,1.3,0,2.6-.1,4-.2-1.5-.4-3-.5-4.5-.6-1,0-1.9.3-2.2,1.3-1,3.1-2,6.2-3,9.3h0Z"/>
  <path class="st0" d="M124.7,212.6h-12.3c-2.4,0-3.2-1.1-2.3-3.4,1.6-4.4,3.2-8.7,4.8-13.1.5-1.5,1.4-2.2,3-2.1,4.8,0,9.5,0,14.2,0,1.5,0,2.3.6,2.8,2,1.6,4.5,3.2,8.9,4.9,13.4.8,2.1,0,3.2-2.3,3.3-4.2,0-8.4,0-12.6,0h0ZM123.6,196.7c0-.1,0-.2,0-.3-1.5,0-3-.3-4.5-.2-.7,0-1.9.4-2.1,1-1.2,3.1-2.2,6.4-3.2,9.6.1,0,.3,0,.4.1,1.1-2.8,2.2-5.6,3.1-8.4.4-1.1,1-1.5,2.1-1.5,1.4,0,2.8-.1,4.2-.2h0Z"/>
  <path class="st0" d="M157.2,172.4c-4.2,0-8.3,0-12.5,0-2.3,0-3.1-1.1-2.3-3.3,1.6-4.5,3.3-9,4.9-13.5.5-1.3,1.3-1.8,2.6-1.8,4.8,0,9.7,0,14.5,0,1.4,0,2.2.6,2.7,1.9,1.6,4.5,3.3,8.9,4.9,13.4.8,2.2,0,3.3-2.4,3.3-4.2,0-8.3,0-12.5,0h0ZM156.2,156.5c0-.1,0-.2,0-.3-1.4,0-2.8-.2-4.2-.3-1.9,0-2.4.3-3,2-.7,2.1-1.4,4.3-2.1,6.5-.2.7-.4,1.4-.6,2.2,1.3-2.7,2.4-5.5,3.4-8.3.4-1.2,1-1.6,2.2-1.6,1.4,0,2.9-.1,4.3-.2h0Z"/>
  <path class="st0" d="M189.6,212.6h-11.9c-3,0-3.7-.9-2.7-3.7,1.6-4.3,3.2-8.5,4.7-12.8.5-1.5,1.4-2.1,2.9-2,4.8,0,9.5,0,14.2,0,1.5,0,2.4.6,2.9,2.1,1.5,4.4,3.2,8.7,4.8,13.1.8,2.3,0,3.4-2.4,3.4h-12.5,0ZM188.5,196.7c0-.1,0-.2,0-.3-.7,0-1.4,0-2.1-.1q-4.2-.2-5.6,3.8c-.7,2.2-1.4,4.3-2,6.5.1,0,.2,0,.4.1,1-2.8,2.1-5.5,3.1-8.3.4-1,.9-1.5,2-1.5s2.9-.1,4.3-.2h0Z"/>
  <path class="st0" d="M173.4,192.5h-12.4c-2.5,0-3.3-1.1-2.5-3.4,1.6-4.4,3.3-8.8,4.8-13.2.5-1.4,1.3-2,2.8-2,4.8,0,9.6,0,14.4,0,1.5,0,2.3.6,2.8,2,1.6,4.4,3.2,8.8,4.8,13.2.8,2.2,0,3.4-2.3,3.4-4.2,0-8.3,0-12.5,0h0ZM162.5,186.4c.1,0,.3,0,.4.1,1-2.7,2.1-5.4,3-8.1.4-1.2,1-1.6,2.2-1.6,1.4,0,2.8-.1,4.1-.2-1.5-.4-3-.6-4.5-.5-.8,0-2,.6-2.2,1.2-1.2,3-2.1,6.1-3.1,9.1h0Z"/>
  <path class="st0" d="M141,192.5h-12.4c-2.5,0-3.3-1.1-2.5-3.4,1.6-4.4,3.3-8.9,4.9-13.3.5-1.3,1.3-1.8,2.6-1.8,4.9,0,9.8,0,14.7,0,1.4,0,2.1.6,2.6,1.9,1.6,4.5,3.3,9,4.9,13.5.8,2.1,0,3.2-2.2,3.2-4.2,0-8.4,0-12.6,0h0ZM130,186.9c.1,0,.2.1.3.2,1.1-2.9,2.2-5.8,3.2-8.7.4-1.1,1-1.5,2.1-1.5,1.4,0,2.9-.1,4.3-.2-1.6-.4-3.2-.5-4.7-.6-1.1,0-1.9.5-2.3,1.6-1,3.1-1.9,6.2-2.9,9.2h0Z"/>
  <path class="st0" d="M104.4,107.5c.4,1.3.7,2.6,1.3,3.8,1.6,3.1,3.3,6.1,5.1,9.1,1.6,2.7,3.3,5.3,3.6,8.5.4,4.1-1.1,7.5-4.6,9.7-3.6,2.2-7.4,2.2-11,0-3.5-2.2-4.9-5.6-4.4-9.8.3-3.1,1.8-5.7,3.6-8.2,2.8-4,5.3-8.1,6.6-13h0ZM101.8,118.3c0,0-.2,0-.2-.1-1.3,2.1-2.6,4.1-3.8,6.2-1.8,3.3-1.7,6.7-.2,10.1.5,1,1.3,1.4,2.3.9,1-.5,1.3-1.4.7-2.3-2.5-3.5-2-7.1-.3-10.7.6-1.3,1.1-2.7,1.6-4h0Z"/>
  <path class="st0" d="M108.1,70.3c-15,0-28-.8-40.8-4.1-3.7-1-7.3-2.4-10.9-4-1.7-.7-3.2-2-4.5-3.4-1.6-1.7-1.6-4.4,0-6,1.4-1.4,3-2.6,4.7-3.5,5.2-2.8,10.9-4.1,16.6-5.2,20.2-3.6,40.4-3.6,60.6-.3,5.4.9,10.8,2.1,15.8,4.3,2.1.9,4.1,2,5.9,3.4,2.8,2.2,2.9,6.1.1,8.4-3,2.5-6.5,3.9-10.1,5-7.6,2.4-15.4,3.6-23.2,4.3-5.4.5-10.7.7-14.3.9h0ZM58.5,59.5c2.5,1.1,5.5,1.1,8,0,.3-.1.5-.2.8-.4,1.9-1,1.8-2.8,0-4.1-2.4-1.7-7.2-1.8-9.7,0-1.8,1.2-1.8,3.1,0,4.2.2.1.5.2.7.3h0Z"/>
  <path class="st0" d="M146.2,206.7c1-3.1,2-6.2,3-9.3.3-1,1.2-1.3,2.2-1.3,1.5,0,3,.2,4.5.6-1.3,0-2.6.2-4,.2-1.3,0-1.9.4-2.3,1.7-.9,2.8-2.1,5.5-3.1,8.3-.1,0-.2,0-.4,0h0Z"/>
  <path class="st0" d="M123.6,196.7c-1.4,0-2.8.2-4.2.2-1.1,0-1.7.4-2.1,1.5-1,2.8-2.1,5.6-3.1,8.4-.1,0-.3,0-.4-.1,1.1-3.2,2-6.4,3.2-9.6.2-.5,1.3-.9,2.1-1,1.5,0,3,.1,4.5.2,0,.1,0,.2,0,.3h0Z"/>
  <path class="st0" d="M156.2,156.5c-1.4,0-2.9.2-4.3.2-1.2,0-1.8.4-2.2,1.6-1,2.8-2.1,5.6-3.4,8.3.2-.7.4-1.5.6-2.2.7-2.2,1.4-4.3,2.1-6.5.6-1.7,1.1-2.1,3-2,1.4,0,2.8.2,4.2.3,0,.1,0,.2,0,.3h0Z"/>
  <path class="st0" d="M188.5,196.7c-1.4,0-2.9.2-4.3.2s-1.6.4-2,1.5c-1,2.8-2,5.5-3.1,8.3-.1,0-.2,0-.4-.1.7-2.2,1.3-4.3,2-6.5,1.3-4,1.3-4,5.6-3.8.7,0,1.4,0,2.1.1,0,.1,0,.2,0,.3h0Z"/>
  <path class="st0" d="M162.5,186.4c1-3.1,1.9-6.1,3.1-9.1.2-.6,1.4-1.1,2.2-1.2,1.5-.1,3,.1,4.5.5-1.4,0-2.8.2-4.1.2-1.2,0-1.8.4-2.2,1.6-.9,2.7-2,5.4-3,8.1-.1,0-.3,0-.4-.1h0Z"/>
  <path class="st0" d="M130,186.9c1-3.1,1.9-6.2,2.9-9.2.4-1.1,1.2-1.7,2.3-1.6,1.6,0,3.1.2,4.7.6-1.4,0-2.9.2-4.3.2-1.1,0-1.7.4-2.1,1.5-1,2.9-2.1,5.8-3.2,8.7-.1,0-.2-.1-.3-.2h0Z"/>
  <path class="st0" d="M101.8,118.3c-.5,1.3-1,2.7-1.6,4-1.7,3.6-2.2,7.2.3,10.7.7.9.3,1.8-.7,2.3s-1.8.1-2.3-.9c-1.5-3.4-1.7-6.8.2-10.1,1.2-2.1,2.5-4.1,3.8-6.2,0,0,.2,0,.2.1h0Z"/>
  <path class="st0" d="M66.4,59.5c-2.5,1.1-5.5,1.1-8,0-.2,0-.5-.2-.7-.3-1.9-1-1.9-2.9,0-4.2,2.4-1.7,7.2-1.7,9.7,0,1.7,1.2,1.8,3.1,0,4.1-.2.1-.5.3-.8.4h0Z"/>
</svg>