<svg width="64" height="38" viewBox="0 0 64 38" fill="none" xmlns="http://www.w3.org/2000/svg">
<rect width="64" height="38" rx="15" fill="white"/>
<rect x="0.5" y="0.5" width="63" height="37" rx="14.5" stroke="#0A0909" stroke-opacity="0.15"/>
<rect x="5" y="5" width="54" height="28" rx="10" fill="#121828" fill-opacity="0.05"/>
<path d="M20.808 14.66V15.776H17.268V18.236H20.028V19.352H17.268V23H15.9V14.66H20.808ZM22.5318 15.512C22.2838 15.512 22.0758 15.428 21.9078 15.26C21.7398 15.092 21.6558 14.884 21.6558 14.636C21.6558 14.388 21.7398 14.18 21.9078 14.012C22.0758 13.844 22.2838 13.76 22.5318 13.76C22.7718 13.76 22.9758 13.844 23.1438 14.012C23.3118 14.18 23.3958 14.388 23.3958 14.636C23.3958 14.884 23.3118 15.092 23.1438 15.26C22.9758 15.428 22.7718 15.512 22.5318 15.512ZM23.2038 16.388V23H21.8358V16.388H23.2038ZM26.1278 14.12V23H24.7598V14.12H26.1278ZM29.2799 17.504V21.164C29.2799 21.412 29.3359 21.592 29.4479 21.704C29.5679 21.808 29.7679 21.86 30.0479 21.86H30.8879V23H29.8079C29.1919 23 28.7199 22.856 28.3919 22.568C28.0639 22.28 27.8999 21.812 27.8999 21.164V17.504H27.1199V16.388H27.8999V14.744H29.2799V16.388H30.8879V17.504H29.2799ZM37.9688 19.532C37.9688 19.78 37.9528 20.004 37.9208 20.204H32.8688C32.9088 20.732 33.1048 21.156 33.4568 21.476C33.8088 21.796 34.2408 21.956 34.7528 21.956C35.4888 21.956 36.0088 21.648 36.3128 21.032H37.7888C37.5888 21.64 37.2248 22.14 36.6968 22.532C36.1768 22.916 35.5288 23.108 34.7528 23.108C34.1208 23.108 33.5528 22.968 33.0488 22.688C32.5528 22.4 32.1608 22 31.8728 21.488C31.5928 20.968 31.4528 20.368 31.4528 19.688C31.4528 19.008 31.5888 18.412 31.8608 17.9C32.1408 17.38 32.5288 16.98 33.0248 16.7C33.5288 16.42 34.1048 16.28 34.7528 16.28C35.3768 16.28 35.9328 16.416 36.4208 16.688C36.9088 16.96 37.2888 17.344 37.5608 17.84C37.8328 18.328 37.9688 18.892 37.9688 19.532ZM36.5408 19.1C36.5328 18.596 36.3528 18.192 36.0008 17.888C35.6488 17.584 35.2128 17.432 34.6928 17.432C34.2208 17.432 33.8168 17.584 33.4808 17.888C33.1448 18.184 32.9448 18.588 32.8808 19.1H36.5408ZM40.443 17.348C40.643 17.012 40.907 16.752 41.235 16.568C41.571 16.376 41.967 16.28 42.423 16.28V17.696H42.075C41.539 17.696 41.131 17.832 40.851 18.104C40.579 18.376 40.443 18.848 40.443 19.52V23H39.075V16.388H40.443V17.348ZM45.8405 23.108C45.3205 23.108 44.8525 23.016 44.4365 22.832C44.0285 22.64 43.7045 22.384 43.4645 22.064C43.2245 21.736 43.0965 21.372 43.0805 20.972H44.4965C44.5205 21.252 44.6525 21.488 44.8925 21.68C45.1405 21.864 45.4485 21.956 45.8165 21.956C46.2005 21.956 46.4965 21.884 46.7045 21.74C46.9205 21.588 47.0285 21.396 47.0285 21.164C47.0285 20.916 46.9085 20.732 46.6685 20.612C46.4365 20.492 46.0645 20.36 45.5525 20.216C45.0565 20.08 44.6525 19.948 44.3405 19.82C44.0285 19.692 43.7565 19.496 43.5245 19.232C43.3005 18.968 43.1885 18.62 43.1885 18.188C43.1885 17.836 43.2925 17.516 43.5005 17.228C43.7085 16.932 44.0045 16.7 44.3885 16.532C44.7805 16.364 45.2285 16.28 45.7325 16.28C46.4845 16.28 47.0885 16.472 47.5445 16.856C48.0085 17.232 48.2565 17.748 48.2885 18.404H46.9205C46.8965 18.108 46.7765 17.872 46.5605 17.696C46.3445 17.52 46.0525 17.432 45.6845 17.432C45.3245 17.432 45.0485 17.5 44.8565 17.636C44.6645 17.772 44.5685 17.952 44.5685 18.176C44.5685 18.352 44.6325 18.5 44.7605 18.62C44.8885 18.74 45.0445 18.836 45.2285 18.908C45.4125 18.972 45.6845 19.056 46.0445 19.16C46.5245 19.288 46.9165 19.42 47.2205 19.556C47.5325 19.684 47.8005 19.876 48.0245 20.132C48.2485 20.388 48.3645 20.728 48.3725 21.152C48.3725 21.528 48.2685 21.864 48.0605 22.16C47.8525 22.456 47.5565 22.688 47.1725 22.856C46.7965 23.024 46.3525 23.108 45.8405 23.108Z" fill="#52525B"/>
</svg>
