<svg width="31" height="31" viewBox="0 0 31 31" fill="none" xmlns="http://www.w3.org/2000/svg">
<path d="M6.80047 9.37998H12.2405V7.33998C12.2411 6.97958 12.3846 6.63346 12.6396 6.37846C12.8939 6.12414 13.2401 5.98066 13.6005 5.97998H23.1205C23.4809 5.98066 23.827 6.12346 24.082 6.37846C24.337 6.63346 24.4798 6.97958 24.4805 7.33998V23.66C24.4798 24.0204 24.3363 24.3665 24.082 24.6208C23.827 24.8758 23.4809 25.0193 23.1205 25.02H6.80047C6.44007 25.0193 6.09463 24.8758 5.83963 24.6208C5.58463 24.3658 5.44115 24.0204 5.44047 23.66V10.74C5.44115 10.3796 5.58463 10.0335 5.83963 9.77846C6.09395 9.52414 6.44007 9.38066 6.80047 9.37998ZM17.0005 23.66H19.7205V20.26H17.0005V23.66ZM13.6005 23.66H15.6405V20.26C15.6411 19.8996 15.7846 19.5535 16.0396 19.2991C16.2939 19.0441 16.6401 18.9007 17.0005 18.9H19.7205C20.0809 18.9007 20.427 19.0441 20.682 19.2991C20.9363 19.5535 21.0798 19.8996 21.0805 20.26V23.66H23.1205L23.1211 7.33998H13.6005V23.66ZM6.80047 23.66H12.2405V10.74H6.80047V23.66ZM15.6405 15.5C15.6405 15.6346 15.6806 15.7659 15.7554 15.8781C15.8295 15.9896 15.9363 16.0766 16.06 16.1283C16.1845 16.18 16.3211 16.1929 16.4531 16.1671C16.585 16.1405 16.706 16.0759 16.8012 15.9807C16.8964 15.8855 16.961 15.7645 16.9875 15.6326C17.0134 15.5007 17.0005 15.364 16.9488 15.2395C16.8971 15.1158 16.8101 15.009 16.6985 14.9349C16.5863 14.8601 16.4551 14.82 16.3205 14.82C16.1403 14.82 15.9669 14.8914 15.8397 15.0192C15.7119 15.1464 15.6405 15.3198 15.6405 15.5ZM15.6405 12.78C15.6405 12.9146 15.6806 13.0459 15.7554 13.1581C15.8295 13.2696 15.9363 13.3566 16.06 13.4083C16.1845 13.46 16.3211 13.4729 16.4531 13.4471C16.585 13.4205 16.706 13.3559 16.8012 13.2607C16.8964 13.1655 16.961 13.0445 16.9875 12.9126C17.0134 12.7807 17.0005 12.644 16.9488 12.5195C16.8971 12.3958 16.8101 12.289 16.6985 12.2149C16.5863 12.1401 16.4551 12.1 16.3205 12.1C16.1403 12.1 15.9669 12.1714 15.8397 12.2992C15.7119 12.4264 15.6405 12.5998 15.6405 12.78ZM15.6405 10.06C15.6405 10.1946 15.6806 10.3259 15.7554 10.4381C15.8295 10.5496 15.9363 10.6366 16.06 10.6883C16.1845 10.74 16.3211 10.7529 16.4531 10.7271C16.585 10.7005 16.706 10.6359 16.8012 10.5407C16.8964 10.4455 16.961 10.3245 16.9875 10.1926C17.0134 10.0607 17.0005 9.92398 16.9488 9.79954C16.8971 9.67578 16.8101 9.56902 16.6985 9.4949C16.5863 9.4201 16.4551 9.37998 16.3205 9.37998C16.1403 9.37998 15.9669 9.45138 15.8397 9.57922C15.7119 9.70638 15.6405 9.87978 15.6405 10.06ZM19.7205 15.5C19.7205 15.6346 19.7606 15.7659 19.8354 15.8781C19.9095 15.9896 20.0163 16.0766 20.14 16.1283C20.2645 16.18 20.4011 16.1929 20.5331 16.1671C20.665 16.1405 20.786 16.0759 20.8812 15.9807C20.9764 15.8855 21.041 15.7645 21.0675 15.6326C21.0934 15.5007 21.0805 15.364 21.0288 15.2395C20.9771 15.1158 20.8901 15.009 20.7785 14.9349C20.6663 14.8601 20.5351 14.82 20.4005 14.82C20.2203 14.82 20.0469 14.8914 19.9197 15.0192C19.7919 15.1464 19.7205 15.3198 19.7205 15.5ZM19.7205 12.78C19.7205 12.9146 19.7606 13.0459 19.8354 13.1581C19.9095 13.2696 20.0163 13.3566 20.14 13.4083C20.2645 13.46 20.4011 13.4729 20.5331 13.4471C20.665 13.4205 20.786 13.3559 20.8812 13.2607C20.9764 13.1655 21.041 13.0445 21.0675 12.9126C21.0934 12.7807 21.0805 12.644 21.0288 12.5195C20.9771 12.3958 20.8901 12.289 20.7785 12.2149C20.6663 12.1401 20.5351 12.1 20.4005 12.1C20.2203 12.1 20.0469 12.1714 19.9197 12.2992C19.7919 12.4264 19.7205 12.5998 19.7205 12.78ZM19.7205 10.06C19.7205 10.1946 19.7606 10.3259 19.8354 10.4381C19.9095 10.5496 20.0163 10.6366 20.14 10.6883C20.2645 10.74 20.4011 10.7529 20.5331 10.7271C20.665 10.7005 20.786 10.6359 20.8812 10.5407C20.9764 10.4455 21.041 10.3245 21.0675 10.1926C21.0934 10.0607 21.0805 9.92398 21.0288 9.79954C20.9771 9.67578 20.8901 9.56902 20.7785 9.4949C20.6663 9.4201 20.5351 9.37998 20.4005 9.37998C20.2203 9.37998 20.0469 9.45138 19.9197 9.57922C19.7919 9.70638 19.7205 9.87978 19.7205 10.06Z" fill="#3C3C3C"/>
</svg>
