<svg width="31" height="31" viewBox="0 0 31 31" fill="none" xmlns="http://www.w3.org/2000/svg">
<path d="M16.4252 6.17101L16.5442 6.28253L25.4331 15.0151L24.4798 15.9848L23.2558 14.7825L23.2564 23.9999C23.2564 24.7167 22.7016 25.3042 21.9978 25.3559L21.8964 25.3599H8.29645C7.57973 25.3599 6.99221 24.8051 6.93985 24.1013L6.93645 23.9999L6.93577 14.7832L5.71313 15.9848L4.75977 15.0151L13.6392 6.29137C14.396 5.51889 15.6166 5.47605 16.4252 6.17101ZM14.6667 7.19373L14.6014 7.25289L8.29577 13.447L8.29645 23.9999L11.6958 23.9993L11.6964 17.1999C11.6964 16.4832 12.2513 15.8957 12.9551 15.8433L13.0564 15.8399H17.1364C17.8532 15.8399 18.4407 16.3948 18.493 17.0986L18.4964 17.1999L18.4958 23.9993L21.8964 23.9999L21.8958 13.4463L15.5724 7.23385C15.3249 6.99109 14.9387 6.97613 14.6667 7.19373ZM17.1364 17.1999H13.0564L13.0558 23.9993H17.1358L17.1364 17.1999Z" fill="#3C3C3C"/>
</svg>
