<svg width="31" height="31" viewBox="0 0 31 31" fill="none" xmlns="http://www.w3.org/2000/svg">
<path d="M6.35029 10.5939L3.9159 11.6863C3.76242 11.7554 3.63214 11.8673 3.5407 12.0087C3.44926 12.15 3.40054 12.3147 3.40039 12.483C3.40039 12.8261 3.60269 13.1389 3.9159 13.2798L5.72554 14.0918L5.74041 14.0989L9.89658 12.233L6.35029 10.5939ZM11.5742 13.0083L7.44267 14.8626L9.61861 15.8397L13.6595 13.972L11.5742 13.0083ZM15.3216 14.7403L11.3051 16.5966L14.9429 18.2295C15.0554 18.28 15.1774 18.3061 15.3008 18.3061C15.4226 18.3061 15.5442 18.2806 15.6578 18.2295L19.3169 16.5868L15.3216 14.7403ZM13.6175 10.5623L11.5829 11.4758L8.03665 9.83671L10.0212 8.94607L13.6175 10.5623ZM17.38 12.2525L15.3221 13.2035L13.2606 12.2512L15.3189 11.3266H15.3193L17.38 12.2525ZM19.0654 13.0102L16.9841 13.972L21.0035 15.8296L23.1734 14.8556L19.0654 13.0102ZM18.8986 8.19121L15.3198 9.79818L11.7235 8.18178L14.9434 6.73658C15.1707 6.63436 15.431 6.63436 15.6583 6.73658L18.8986 8.19121ZM22.5863 9.84647L19.0571 11.4776L17.0212 10.5628L20.6015 8.95532L22.5863 9.84647ZM27.2002 12.4831C27.2002 12.826 26.9981 13.1389 26.6852 13.2793L24.8751 14.0918H24.8747L20.7427 12.2348L24.2722 10.6037L26.6847 11.6863C26.8382 11.7554 26.9685 11.8673 27.0599 12.0086C27.1514 12.15 27.2001 12.3147 27.2002 12.4831Z" fill="#3C3C3C"/>
<path d="M26.6847 14.9045L26.433 14.7916L15.6775 19.6194C15.5652 19.67 15.4435 19.6961 15.3204 19.696C15.1985 19.696 15.0765 19.6704 14.9628 19.6194L4.18774 14.7825L3.9159 14.9045C3.60306 15.0454 3.40039 15.3578 3.40039 15.7013C3.40039 16.0443 3.60269 16.3572 3.9159 16.4975L14.9432 21.4477C15.0555 21.4982 15.1773 21.5243 15.3005 21.5243C15.4237 21.5243 15.5454 21.4982 15.6578 21.4477L26.6851 16.4976C26.9979 16.3572 27.2002 16.0443 27.2002 15.7013C27.2001 15.533 27.1514 15.3683 27.0599 15.2269C26.9685 15.0856 26.8382 14.9736 26.6847 14.9045Z" fill="#3C3C3C"/>
<path d="M26.6847 18.1692L26.4045 18.0433L15.6773 22.8587C15.5651 22.9092 15.4433 22.9353 15.3202 22.9353C15.1984 22.9353 15.0763 22.9097 14.9626 22.8587L4.21587 18.0344L3.91572 18.1694C3.76229 18.2384 3.63206 18.3503 3.54065 18.4916C3.44925 18.6328 3.40054 18.7975 3.40039 18.9657C3.40053 19.1341 3.44925 19.2987 3.54069 19.44C3.63214 19.5814 3.76242 19.6933 3.9159 19.7623L14.9427 24.7122C15.0552 24.7628 15.1771 24.7889 15.3004 24.7888C15.4222 24.7888 15.5441 24.7633 15.6575 24.7124L26.6849 19.7622C26.8383 19.6931 26.9685 19.5812 27.0599 19.4399C27.1514 19.2986 27.2001 19.134 27.2002 18.9657C27.2002 18.6226 26.9979 18.3099 26.6847 18.1692Z" fill="#3C3C3C"/>
</svg>
