<svg width="31" height="31" viewBox="0 0 31 31" fill="none" xmlns="http://www.w3.org/2000/svg">
<path d="M14.7816 6.5097C15.0298 6.3941 15.2984 6.33018 15.5717 6.32066C15.8451 6.31182 16.1178 6.35738 16.3728 6.4553L16.4993 6.5097L25.0537 10.4809C25.2726 10.5829 25.4603 10.7413 25.5977 10.9399C25.7357 11.1385 25.818 11.369 25.8363 11.6097L25.8404 11.7151V13.6613C25.8404 13.7714 25.8139 13.8802 25.7622 13.9781C25.7106 14.0761 25.6364 14.1597 25.5453 14.2223C25.7411 14.7085 25.8404 15.2028 25.8404 15.7013C25.8404 16.3337 25.6806 16.9572 25.3685 17.5699L25.2719 17.7501L25.3345 17.8745C25.6466 18.5321 25.8119 19.3127 25.837 20.2124L25.8404 20.4613C25.8404 21.6812 25.597 22.8991 25.1122 24.1122C25.0673 24.2257 24.9925 24.325 24.8952 24.3991C24.7987 24.4739 24.6838 24.5209 24.5627 24.5358L24.4804 24.5413H6.80043C6.67395 24.5413 6.55019 24.5052 6.44275 24.4386C6.33599 24.3726 6.24895 24.2774 6.19251 24.1645C5.68795 23.1554 5.44043 21.9199 5.44043 20.4613C5.44043 19.3182 5.59003 18.4335 5.92323 17.8045L5.98239 17.7005L5.91235 17.5699C5.63151 17.0184 5.47375 16.4574 5.44519 15.8903L5.44043 15.7013C5.44043 15.2028 5.53971 14.7078 5.73487 14.2209C5.65599 14.1665 5.58935 14.0965 5.53971 14.0142C5.49007 13.9326 5.45811 13.8415 5.44587 13.7463L5.44043 13.6613V11.7151C5.44043 11.4737 5.50503 11.2364 5.62675 11.0276C5.74847 10.8195 5.92391 10.6475 6.13403 10.5292L6.22787 10.4823L14.7816 6.5097ZM24.3621 21.8213H6.89291C6.95547 22.2537 7.05067 22.6488 7.17715 23.0085L7.24243 23.1813H24.0072L24.0588 23.0337C24.1914 22.6284 24.2927 22.2245 24.3628 21.8213H24.3621ZM17.6804 14.3413H13.6004V20.4613H17.6804V14.3413ZM24.0996 14.3413H19.0404V20.4613H24.4804C24.4804 19.6249 24.3465 18.9469 24.0881 18.4213H20.4004V17.0613H24.0996C24.356 16.5961 24.4804 16.1446 24.4804 15.7013C24.4804 15.2579 24.356 14.8064 24.0996 14.3413ZM12.2404 14.3413H7.18123C6.92555 14.8071 6.80043 15.2593 6.80043 15.7013C6.80043 16.1433 6.92487 16.5961 7.18123 17.0613H10.8804V18.4213H7.13567C6.92759 18.7953 6.80043 19.478 6.80043 20.4613H12.2404V14.3413ZM15.6404 15.7013C15.8206 15.7013 15.994 15.7727 16.1212 15.9005C16.249 16.0277 16.3204 16.2011 16.3204 16.3813C16.3204 16.5615 16.249 16.7349 16.1212 16.862C15.994 16.9899 15.8206 17.0613 15.6404 17.0613C15.4602 17.0613 15.2868 16.9899 15.1597 16.862C15.0318 16.7349 14.9604 16.5615 14.9604 16.3813C14.9604 16.2011 15.0318 16.0277 15.1597 15.9005C15.2868 15.7727 15.4602 15.7013 15.6404 15.7013ZM15.9267 7.74322C15.7723 7.67114 15.5962 7.66094 15.4337 7.71262L15.3541 7.74322L6.80043 11.7151V12.9813H24.4804V11.7151L15.9267 7.74322Z" fill="#3C3C3C"/>
</svg>
