<svg width="45" height="46" viewBox="0 0 45 46" fill="none" xmlns="http://www.w3.org/2000/svg">
<path d="M23.125 20.875H29.125" stroke="#3C3C3C" stroke-width="2"/>
<path d="M10.125 16.875H34.125" stroke="#3C3C3C" stroke-width="2"/>
<path d="M29.125 23.875V13.875C29.125 12.218 27.782 10.875 26.125 10.875C24.468 10.875 23.125 12.218 23.125 13.875M23.125 23.875V13.875C23.125 12.218 21.782 10.875 20.125 10.875C18.468 10.875 17.125 12.218 17.125 13.875" stroke="#3C3C3C" stroke-width="2"/>
<mask id="mask0_2411_17322" style="mask-type:alpha" maskUnits="userSpaceOnUse" x="2" y="18" width="41" height="21">
<path d="M42.018 18.7505V38.8975H2V18.7505H42.018Z" fill="black"/>
</mask>
<g mask="url(#mask0_2411_17322)">
<path d="M10.1357 35.3521C9.41174 35.3521 8.68774 35.1021 8.13574 34.6021C7.58374 34.1021 6.85974 33.8521 6.13574 33.8521C5.41174 33.8521 4.68774 34.1021 4.13574 34.6021C3.58374 35.1021 2.85974 35.3521 2.13574 35.3521C1.41174 35.3521 0.68774 35.1021 0.13574 34.6021C-0.41626 34.1021 -1.14026 33.8521 -1.86426 33.8521C-2.58826 33.8521 -3.31226 34.1021 -3.86426 34.6021C-4.41626 35.1021 -5.14026 35.3521 -5.86426 35.3521C-6.58826 35.3521 -7.31226 35.1021 -7.86426 34.6021C-8.41626 34.1021 -9.14026 33.8521 -9.86426 33.8521C-10.5883 33.8521 -11.3123 34.1021 -11.8643 34.6021C-12.4163 35.1021 -13.1403 35.3521 -13.8643 35.3521M58.1237 35.3661C57.3997 35.3661 56.6757 35.1161 56.1237 34.6161C55.5717 34.1161 54.8477 33.8661 54.1237 33.8661C53.3997 33.8661 52.6757 34.1161 52.1237 34.6161C51.5717 35.1161 50.8477 35.3661 50.1237 35.3661C49.3997 35.3661 48.6757 35.1161 48.1237 34.6161C47.5717 34.1161 46.8477 33.8661 46.1237 33.8661C45.3997 33.8661 44.6757 34.1161 44.1237 34.6161C43.5717 35.1161 42.8477 35.3661 42.1237 35.3661C41.3997 35.3661 40.6757 35.1161 40.1237 34.6161C39.5717 34.1161 38.8477 33.8661 38.1237 33.8661C37.3997 33.8661 36.6757 34.1161 36.1237 34.6161C35.5717 35.1161 34.8477 35.3661 34.1237 35.3661M34.1247 35.3751C33.4007 35.3751 32.6767 35.1251 32.1247 34.6251C31.5727 34.1251 30.8487 33.8751 30.1247 33.8751C29.4007 33.8751 28.6767 34.1251 28.1247 34.6251C27.5727 35.1251 26.8487 35.3751 26.1247 35.3751C25.4007 35.3751 24.6767 35.1251 24.1247 34.6251C23.5727 34.1251 22.8487 33.8751 22.1247 33.8751C21.4007 33.8751 20.6767 34.1251 20.1247 34.6251C19.5727 35.1251 18.8487 35.3751 18.1247 35.3751C17.4007 35.3751 16.6767 35.1251 16.1247 34.6251C15.5727 34.1251 14.8487 33.8751 14.1247 33.8751C13.4007 33.8751 12.6767 34.1251 12.1247 34.6251C11.5727 35.1251 10.8487 35.3751 10.1247 35.3751" stroke="#3C3C3C" stroke-width="2"/>
<path d="M10.1357 30.3521C9.41174 30.3521 8.68774 30.1021 8.13574 29.6021C7.58374 29.1021 6.85974 28.8521 6.13574 28.8521C5.41174 28.8521 4.68774 29.1021 4.13574 29.6021C3.58374 30.1021 2.85974 30.3521 2.13574 30.3521C1.41174 30.3521 0.68774 30.1021 0.13574 29.6021C-0.41626 29.1021 -1.14026 28.8521 -1.86426 28.8521C-2.58826 28.8521 -3.31226 29.1021 -3.86426 29.6021C-4.41626 30.1021 -5.14026 30.3521 -5.86426 30.3521C-6.58826 30.3521 -7.31226 30.1021 -7.86426 29.6021C-8.41626 29.1021 -9.14026 28.8521 -9.86426 28.8521C-10.5883 28.8521 -11.3123 29.1021 -11.8643 29.6021C-12.4163 30.1021 -13.1403 30.3521 -13.8643 30.3521M58.1237 30.3661C57.3997 30.3661 56.6757 30.1161 56.1237 29.6161C55.5717 29.1161 54.8477 28.8661 54.1237 28.8661C53.3997 28.8661 52.6757 29.1161 52.1237 29.6161C51.5717 30.1161 50.8477 30.3661 50.1237 30.3661C49.3997 30.3661 48.6757 30.1161 48.1237 29.6161C47.5717 29.1161 46.8477 28.8661 46.1237 28.8661C45.3997 28.8661 44.6757 29.1161 44.1237 29.6161C43.5717 30.1161 42.8477 30.3661 42.1237 30.3661C41.3997 30.3661 40.6757 30.1161 40.1237 29.6161C39.5717 29.1161 38.8477 28.8661 38.1237 28.8661C37.3997 28.8661 36.6757 29.1161 36.1237 29.6161C35.5717 30.1161 34.8477 30.3661 34.1237 30.3661M34.1247 30.3751C33.4007 30.3751 32.6767 30.1251 32.1247 29.6251C31.5727 29.1251 30.8487 28.8751 30.1247 28.8751C29.4007 28.8751 28.6767 29.1251 28.1247 29.6251C27.5727 30.1251 26.8487 30.3751 26.1247 30.3751C25.4007 30.3751 24.6767 30.1251 24.1247 29.6251C23.5727 29.1251 22.8487 28.8751 22.1247 28.8751C21.4007 28.8751 20.6767 29.1251 20.1247 29.6251C19.5727 30.1251 18.8487 30.3751 18.1247 30.3751C17.4007 30.3751 16.6767 30.1251 16.1247 29.6251C15.5727 29.1251 14.8487 28.8751 14.1247 28.8751C13.4007 28.8751 12.6767 29.1251 12.1247 29.6251C11.5727 30.1251 10.8487 30.3751 10.1247 30.3751" stroke="#3C3C3C" stroke-width="2"/>
<path d="M10.1357 25.3521C9.41174 25.3521 8.68774 25.1021 8.13574 24.6021C7.58374 24.1021 6.85974 23.8521 6.13574 23.8521C5.41174 23.8521 4.68774 24.1021 4.13574 24.6021C3.58374 25.1021 2.85974 25.3521 2.13574 25.3521C1.41174 25.3521 0.68774 25.1021 0.13574 24.6021C-0.41626 24.1021 -1.14026 23.8521 -1.86426 23.8521C-2.58826 23.8521 -3.31226 24.1021 -3.86426 24.6021C-4.41626 25.1021 -5.14026 25.3521 -5.86426 25.3521C-6.58826 25.3521 -7.31226 25.1021 -7.86426 24.6021C-8.41626 24.1021 -9.14026 23.8521 -9.86426 23.8521C-10.5883 23.8521 -11.3123 24.1021 -11.8643 24.6021C-12.4163 25.1021 -13.1403 25.3521 -13.8643 25.3521M58.1237 25.3661C57.3997 25.3661 56.6757 25.1161 56.1237 24.6161C55.5717 24.1161 54.8477 23.8661 54.1237 23.8661C53.3997 23.8661 52.6757 24.1161 52.1237 24.6161C51.5717 25.1161 50.8477 25.3661 50.1237 25.3661C49.3997 25.3661 48.6757 25.1161 48.1237 24.6161C47.5717 24.1161 46.8477 23.8661 46.1237 23.8661C45.3997 23.8661 44.6757 24.1161 44.1237 24.6161C43.5717 25.1161 42.8477 25.3661 42.1237 25.3661C41.3997 25.3661 40.6757 25.1161 40.1237 24.6161C39.5717 24.1161 38.8477 23.8661 38.1237 23.8661C37.3997 23.8661 36.6757 24.1161 36.1237 24.6161C35.5717 25.1161 34.8477 25.3661 34.1237 25.3661M34.1247 25.3751C33.4007 25.3751 32.6767 25.1251 32.1247 24.6251C31.5727 24.1251 30.8487 23.8751 30.1247 23.8751C29.4007 23.8751 28.6767 24.1251 28.1247 24.6251C27.5727 25.1251 26.8487 25.3751 26.1247 25.3751C25.4007 25.3751 24.6767 25.1251 24.1247 24.6251C23.5727 24.1251 22.8487 23.8751 22.1247 23.8751C21.4007 23.8751 20.6767 24.1251 20.1247 24.6251C19.5727 25.1251 18.8487 25.3751 18.1247 25.3751C17.4007 25.3751 16.6767 25.1251 16.1247 24.6251C15.5727 24.1251 14.8487 23.8751 14.1247 23.8751C13.4007 23.8751 12.6767 24.1251 12.1247 24.6251C11.5727 25.1251 10.8487 25.3751 10.1247 25.3751" stroke="#3C3C3C" stroke-width="2"/>
</g>
</svg>
